STARTFONT 2.1
FONT -cmvnd-uushiscaled-medium-R-Normal--22-160-100-100-P-114-ISO10646-1
SIZE 18 75 75
FONTBOUNDINGBOX 20 30 -4 -6
COMMENT "Generated by fontforge, http://fontforge.sourceforge.net"
COMMENT "This font was automatically resized by bdfresize-1.5"
COMMENT "mag_x = 2/1, mag_y = 2/1, blackness = 4"
STARTPROPERTIES 18
CHARSET_COLLECTIONS "ISO8859-2 ISO8859-5 ISO8859-9 ISO8859-4 ISO10646-1"
FOUNDRY "cmvnd"
FAMILY_NAME "uushiscaled"
WEIGHT_NAME "medium"
SLANT "R"
SETWIDTH_NAME "Normal"
ADD_STYLE_NAME ""
PIXEL_SIZE 22
POINT_SIZE 160
RESOLUTION_X 100
RESOLUTION_Y 100
SPACING "P"
AVERAGE_WIDTH 116
CHARSET_REGISTRY "ISO10646"
CHARSET_ENCODING "1"
FONT_ASCENT 18
FONT_DESCENT 4
_GBDFED_INFO "Edited with gbdfed 1.6."
ENDPROPERTIES
CHARS 1081
STARTCHAR control
ENCODING 0
SWIDTH 0 0
DWIDTH 0 0
BBX 0 0 0 0
BITMAP
ENDCHAR
STARTCHAR control
ENCODING 8
SWIDTH 0 0
DWIDTH 0 0
BBX 0 0 0 0
BITMAP
ENDCHAR
STARTCHAR control
ENCODING 9
SWIDTH 1280 0
DWIDTH 12 0
BBX 0 0 0 0
BITMAP
ENDCHAR
STARTCHAR control
ENCODING 10
SWIDTH 1280 0
DWIDTH 12 0
BBX 0 0 0 0
BITMAP
ENDCHAR
STARTCHAR control
ENCODING 13
SWIDTH 1280 0
DWIDTH 12 0
BBX 0 0 0 0
BITMAP
ENDCHAR
STARTCHAR control
ENCODING 29
SWIDTH 0 0
DWIDTH 0 0
BBX 0 0 0 0
BITMAP
ENDCHAR
STARTCHAR SPACE
ENCODING 32
SWIDTH 1280 0
DWIDTH 12 0
BBX 0 0 0 0
BITMAP
ENDCHAR
STARTCHAR EXCLAMATION
ENCODING 33
SWIDTH 1280 0
DWIDTH 12 0
BBX 2 14 4 0
BITMAP
C0
C0
C0
C0
C0
C0
C0
C0
C0
C0
00
00
C0
C0
ENDCHAR
STARTCHAR QUOTATION
ENCODING 34
SWIDTH 1280 0
DWIDTH 12 0
BBX 6 6 2 8
BITMAP
CC
CC
CC
CC
CC
CC
ENDCHAR
STARTCHAR NUMBER
ENCODING 35
SWIDTH 1280 0
DWIDTH 12 0
BBX 10 10 0 2
BITMAP
3300
3300
F3C0
F3C0
3300
3300
F3C0
F3C0
3300
3300
ENDCHAR
STARTCHAR DOLLAR
ENCODING 36
SWIDTH 1280 0
DWIDTH 12 0
BBX 10 18 0 -2
BITMAP
0C00
0C00
3FC0
3FC0
CC00
CC00
CC00
CC00
3F00
3F00
0CC0
0CC0
0CC0
0CC0
FF00
FF00
0C00
0C00
ENDCHAR
STARTCHAR PERCENT
ENCODING 37
SWIDTH 1280 0
DWIDTH 12 0
BBX 10 14 0 0
BITMAP
F000
F000
F0C0
F0C0
0300
0300
0C00
0C00
3000
3000
C3C0
C3C0
03C0
03C0
ENDCHAR
STARTCHAR AMPERSAND
ENCODING 38
SWIDTH 1066 0
DWIDTH 10 0
BBX 10 14 0 0
BITMAP
3000
3000
CC00
CC00
CC00
CC00
3000
3000
CCC0
CCC0
C300
C300
3CC0
3CC0
ENDCHAR
STARTCHAR APOSTROPHE
ENCODING 39
SWIDTH 1280 0
DWIDTH 12 0
BBX 2 6 4 10
BITMAP
C0
C0
C0
C0
C0
C0
ENDCHAR
STARTCHAR LEFT
ENCODING 40
SWIDTH 1280 0
DWIDTH 12 0
BBX 6 18 2 -2
BITMAP
0C
0C
30
30
C0
C0
C0
C0
C0
C0
C0
C0
C0
C0
30
30
0C
0C
ENDCHAR
STARTCHAR RIGHT
ENCODING 41
SWIDTH 1280 0
DWIDTH 12 0
BBX 6 18 4 -2
BITMAP
C0
C0
30
30
0C
0C
0C
0C
0C
0C
0C
0C
0C
0C
30
30
C0
C0
ENDCHAR
STARTCHAR ASTERISK
ENCODING 42
SWIDTH 1280 0
DWIDTH 12 0
BBX 10 10 0 2
BITMAP
0C00
0C00
CCC0
CCC0
3F00
3F00
CCC0
CCC0
0C00
0C00
ENDCHAR
STARTCHAR PLUS
ENCODING 43
SWIDTH 1280 0
DWIDTH 12 0
BBX 10 10 0 2
BITMAP
0C00
0C00
0C00
0C00
FFC0
FFC0
0C00
0C00
0C00
0C00
ENDCHAR
STARTCHAR COMMA
ENCODING 44
SWIDTH 640 0
DWIDTH 6 0
BBX 4 6 2 -2
BITMAP
30
30
30
30
C0
C0
ENDCHAR
STARTCHAR HYPHEN-MINUS
ENCODING 45
SWIDTH 1280 0
DWIDTH 12 0
BBX 10 2 0 6
BITMAP
FFC0
FFC0
ENDCHAR
STARTCHAR FULL
ENCODING 46
SWIDTH 852 0
DWIDTH 8 0
BBX 2 4 4 0
BITMAP
C0
C0
C0
C0
ENDCHAR
STARTCHAR SOLIDUS
ENCODING 47
SWIDTH 1280 0
DWIDTH 12 0
BBX 10 20 0 -4
BITMAP
00C0
00C0
00C0
00C0
0300
0300
0300
0300
0C00
0C00
0C00
0C00
3000
3000
3000
3000
C000
C000
C000
C000
ENDCHAR
STARTCHAR DIGIT
ENCODING 48
SWIDTH 1280 0
DWIDTH 12 0
BBX 10 14 0 0
BITMAP
3F00
3F00
C0C0
C0C0
C3C0
C3C0
CCC0
CCC0
F0C0
F0C0
C0C0
C0C0
3F00
3F00
ENDCHAR
STARTCHAR DIGIT
ENCODING 49
SWIDTH 1280 0
DWIDTH 12 0
BBX 6 14 2 0
BITMAP
30
30
F0
F0
30
30
30
30
30
30
30
30
FC
FC
ENDCHAR
STARTCHAR DIGIT
ENCODING 50
SWIDTH 1280 0
DWIDTH 12 0
BBX 10 14 0 0
BITMAP
FF00
FF00
00C0
00C0
00C0
00C0
3F00
3F00
C000
C000
C000
C000
FFC0
FFC0
ENDCHAR
STARTCHAR DIGIT
ENCODING 51
SWIDTH 1066 0
DWIDTH 10 0
BBX 10 14 0 0
BITMAP
FF00
FF00
00C0
00C0
00C0
00C0
3F00
3F00
00C0
00C0
00C0
00C0
FF00
FF00
ENDCHAR
STARTCHAR DIGIT
ENCODING 52
SWIDTH 1066 0
DWIDTH 10 0
BBX 10 14 0 0
BITMAP
0F00
0F00
3300
3300
C300
C300
C300
C300
FFC0
FFC0
0300
0300
0300
0300
ENDCHAR
STARTCHAR DIGIT
ENCODING 53
SWIDTH 1066 0
DWIDTH 10 0
BBX 10 14 0 0
BITMAP
FFC0
FFC0
C000
C000
C000
C000
FF00
FF00
00C0
00C0
00C0
00C0
FF00
FF00
ENDCHAR
STARTCHAR DIGIT
ENCODING 54
SWIDTH 1280 0
DWIDTH 12 0
BBX 10 14 0 0
BITMAP
3F00
3F00
C000
C000
C000
C000
FF00
FF00
C0C0
C0C0
C0C0
C0C0
3F00
3F00
ENDCHAR
STARTCHAR DIGIT
ENCODING 55
SWIDTH 1280 0
DWIDTH 12 0
BBX 10 14 0 0
BITMAP
FFC0
FFC0
00C0
00C0
00C0
00C0
0300
0300
0C00
0C00
0C00
0C00
0C00
0C00
ENDCHAR
STARTCHAR DIGIT
ENCODING 56
SWIDTH 1280 0
DWIDTH 12 0
BBX 10 14 0 0
BITMAP
3F00
3F00
C0C0
C0C0
C0C0
C0C0
3F00
3F00
C0C0
C0C0
C0C0
C0C0
3F00
3F00
ENDCHAR
STARTCHAR DIGIT
ENCODING 57
SWIDTH 1280 0
DWIDTH 12 0
BBX 10 14 0 0
BITMAP
3F00
3F00
C0C0
C0C0
C0C0
C0C0
C0C0
C0C0
3FC0
3FC0
00C0
00C0
3F00
3F00
ENDCHAR
STARTCHAR COLON
ENCODING 58
SWIDTH 852 0
DWIDTH 8 0
BBX 2 12 2 0
BITMAP
C0
C0
C0
C0
00
00
00
00
C0
C0
C0
C0
ENDCHAR
STARTCHAR SEMICOLON
ENCODING 59
SWIDTH 852 0
DWIDTH 8 0
BBX 4 14 0 -2
BITMAP
30
30
30
30
00
00
00
00
30
30
30
30
C0
C0
ENDCHAR
STARTCHAR LESS-THAN
ENCODING 60
SWIDTH 852 0
DWIDTH 8 0
BBX 6 10 2 0
BITMAP
0C
0C
30
30
C0
C0
30
30
0C
0C
ENDCHAR
STARTCHAR EQUALS
ENCODING 61
SWIDTH 1280 0
DWIDTH 12 0
BBX 10 6 0 4
BITMAP
FFC0
FFC0
0000
0000
FFC0
FFC0
ENDCHAR
STARTCHAR GREATER-THAN
ENCODING 62
SWIDTH 1066 0
DWIDTH 10 0
BBX 6 10 2 0
BITMAP
C0
C0
30
30
0C
0C
30
30
C0
C0
ENDCHAR
STARTCHAR QUESTION
ENCODING 63
SWIDTH 1280 0
DWIDTH 12 0
BBX 10 14 0 0
BITMAP
3F00
3F00
C0C0
C0C0
00C0
00C0
0300
0300
0C00
0C00
0000
0000
0C00
0C00
ENDCHAR
STARTCHAR COMMERCIAL
ENCODING 64
SWIDTH 1280 0
DWIDTH 12 0
BBX 10 14 0 0
BITMAP
3F00
3F00
C0C0
C0C0
CFC0
CFC0
CCC0
CCC0
CFC0
CFC0
C000
C000
3FC0
3FC0
ENDCHAR
STARTCHAR LATIN
ENCODING 65
SWIDTH 1280 0
DWIDTH 12 0
BBX 10 14 0 0
BITMAP
3F00
3F00
C0C0
C0C0
C0C0
C0C0
FFC0
FFC0
C0C0
C0C0
C0C0
C0C0
C0C0
C0C0
ENDCHAR
STARTCHAR LATIN
ENCODING 66
SWIDTH 1066 0
DWIDTH 10 0
BBX 10 14 0 0
BITMAP
FF00
FF00
C0C0
C0C0
C0C0
C0C0
FF00
FF00
C0C0
C0C0
C0C0
C0C0
FF00
FF00
ENDCHAR
STARTCHAR LATIN
ENCODING 67
SWIDTH 1280 0
DWIDTH 12 0
BBX 10 14 0 0
BITMAP
3FC0
3FC0
C000
C000
C000
C000
C000
C000
C000
C000
C000
C000
3FC0
3FC0
ENDCHAR
STARTCHAR LATIN
ENCODING 68
SWIDTH 1280 0
DWIDTH 12 0
BBX 10 14 0 0
BITMAP
FF00
FF00
C0C0
C0C0
C0C0
C0C0
C0C0
C0C0
C0C0
C0C0
C0C0
C0C0
FF00
FF00
ENDCHAR
STARTCHAR LATIN
ENCODING 69
SWIDTH 1280 0
DWIDTH 12 0
BBX 10 14 0 0
BITMAP
FFC0
FFC0
C000
C000
C000
C000
FC00
FC00
C000
C000
C000
C000
FFC0
FFC0
ENDCHAR
STARTCHAR LATIN
ENCODING 70
SWIDTH 1280 0
DWIDTH 12 0
BBX 10 14 0 0
BITMAP
FFC0
FFC0
C000
C000
C000
C000
FC00
FC00
C000
C000
C000
C000
C000
C000
ENDCHAR
STARTCHAR LATIN
ENCODING 71
SWIDTH 1280 0
DWIDTH 12 0
BBX 10 14 0 0
BITMAP
3FC0
3FC0
C000
C000
C000
C000
CFC0
CFC0
C0C0
C0C0
C0C0
C0C0
3FC0
3FC0
ENDCHAR
STARTCHAR LATIN
ENCODING 72
SWIDTH 1280 0
DWIDTH 12 0
BBX 10 14 0 0
BITMAP
C0C0
C0C0
C0C0
C0C0
C0C0
C0C0
FFC0
FFC0
C0C0
C0C0
C0C0
C0C0
C0C0
C0C0
ENDCHAR
STARTCHAR LATIN
ENCODING 73
SWIDTH 1280 0
DWIDTH 12 0
BBX 6 14 2 0
BITMAP
FC
FC
30
30
30
30
30
30
30
30
30
30
FC
FC
ENDCHAR
STARTCHAR LATIN
ENCODING 74
SWIDTH 852 0
DWIDTH 8 0
BBX 8 14 0 0
BITMAP
3F
3F
03
03
03
03
03
03
03
03
03
03
FC
FC
ENDCHAR
STARTCHAR LATIN
ENCODING 75
SWIDTH 852 0
DWIDTH 8 0
BBX 8 14 0 0
BITMAP
C3
C3
C3
C3
CC
CC
F0
F0
CC
CC
C3
C3
C3
C3
ENDCHAR
STARTCHAR LATIN
ENCODING 76
SWIDTH 1280 0
DWIDTH 12 0
BBX 10 14 0 0
BITMAP
C000
C000
C000
C000
C000
C000
C000
C000
C000
C000
C000
C000
FFC0
FFC0
ENDCHAR
STARTCHAR LATIN
ENCODING 77
SWIDTH 1280 0
DWIDTH 12 0
BBX 10 14 0 0
BITMAP
C0C0
C0C0
F3C0
F3C0
FFC0
FFC0
CCC0
CCC0
C0C0
C0C0
C0C0
C0C0
C0C0
C0C0
ENDCHAR
STARTCHAR LATIN
ENCODING 78
SWIDTH 1280 0
DWIDTH 12 0
BBX 10 14 0 0
BITMAP
F0C0
F0C0
F0C0
F0C0
CCC0
CCC0
CCC0
CCC0
CCC0
CCC0
C3C0
C3C0
C3C0
C3C0
ENDCHAR
STARTCHAR LATIN
ENCODING 79
SWIDTH 1280 0
DWIDTH 12 0
BBX 10 14 0 0
BITMAP
3F00
3F00
C0C0
C0C0
C0C0
C0C0
C0C0
C0C0
C0C0
C0C0
C0C0
C0C0
3F00
3F00
ENDCHAR
STARTCHAR LATIN
ENCODING 80
SWIDTH 1280 0
DWIDTH 12 0
BBX 10 14 0 0
BITMAP
FF00
FF00
C0C0
C0C0
C0C0
C0C0
FF00
FF00
C000
C000
C000
C000
C000
C000
ENDCHAR
STARTCHAR LATIN
ENCODING 81
SWIDTH 1280 0
DWIDTH 12 0
BBX 10 14 0 0
BITMAP
3F00
3F00
C0C0
C0C0
C0C0
C0C0
C0C0
C0C0
CCC0
CCC0
C300
C300
3CC0
3CC0
ENDCHAR
STARTCHAR LATIN
ENCODING 82
SWIDTH 1280 0
DWIDTH 12 0
BBX 10 14 0 0
BITMAP
FF00
FF00
C0C0
C0C0
C0C0
C0C0
FF00
FF00
C0C0
C0C0
C0C0
C0C0
C0C0
C0C0
ENDCHAR
STARTCHAR LATIN
ENCODING 83
SWIDTH 1280 0
DWIDTH 12 0
BBX 10 14 0 0
BITMAP
3FC0
3FC0
C000
C000
C000
C000
3F00
3F00
00C0
00C0
00C0
00C0
FF00
FF00
ENDCHAR
STARTCHAR LATIN
ENCODING 84
SWIDTH 1280 0
DWIDTH 12 0
BBX 10 14 0 0
BITMAP
FFC0
FFC0
0C00
0C00
0C00
0C00
0C00
0C00
0C00
0C00
0C00
0C00
0C00
0C00
ENDCHAR
STARTCHAR LATIN
ENCODING 85
SWIDTH 1280 0
DWIDTH 12 0
BBX 10 14 0 0
BITMAP
C0C0
C0C0
C0C0
C0C0
C0C0
C0C0
C0C0
C0C0
C0C0
C0C0
C0C0
C0C0
3F00
3F00
ENDCHAR
STARTCHAR LATIN
ENCODING 86
SWIDTH 1280 0
DWIDTH 12 0
BBX 10 14 0 0
BITMAP
C0C0
C0C0
C0C0
C0C0
C0C0
C0C0
3300
3300
3300
3300
0C00
0C00
0C00
0C00
ENDCHAR
STARTCHAR LATIN
ENCODING 87
SWIDTH 1066 0
DWIDTH 10 0
BBX 10 14 0 0
BITMAP
C0C0
C0C0
C0C0
C0C0
C0C0
C0C0
CCC0
CCC0
FFC0
FFC0
F3C0
F3C0
C0C0
C0C0
ENDCHAR
STARTCHAR LATIN
ENCODING 88
SWIDTH 1280 0
DWIDTH 12 0
BBX 10 14 0 0
BITMAP
C0C0
C0C0
C0C0
C0C0
3300
3300
0C00
0C00
3300
3300
C0C0
C0C0
C0C0
C0C0
ENDCHAR
STARTCHAR LATIN
ENCODING 89
SWIDTH 1280 0
DWIDTH 12 0
BBX 10 14 0 0
BITMAP
C0C0
C0C0
C0C0
C0C0
3300
3300
0C00
0C00
0C00
0C00
0C00
0C00
0C00
0C00
ENDCHAR
STARTCHAR LATIN
ENCODING 90
SWIDTH 1280 0
DWIDTH 12 0
BBX 10 14 0 0
BITMAP
FFC0
FFC0
00C0
00C0
0300
0300
0C00
0C00
3000
3000
C000
C000
FFC0
FFC0
ENDCHAR
STARTCHAR LEFT
ENCODING 91
SWIDTH 1066 0
DWIDTH 10 0
BBX 6 18 2 -2
BITMAP
FC
FC
C0
C0
C0
C0
C0
C0
C0
C0
C0
C0
C0
C0
C0
C0
FC
FC
ENDCHAR
STARTCHAR REVERSE
ENCODING 92
SWIDTH 1280 0
DWIDTH 12 0
BBX 10 20 0 -4
BITMAP
C000
C000
C000
C000
3000
3000
3000
3000
0C00
0C00
0C00
0C00
0300
0300
0300
0300
00C0
00C0
00C0
00C0
ENDCHAR
STARTCHAR RIGHT
ENCODING 93
SWIDTH 852 0
DWIDTH 8 0
BBX 6 18 2 -2
BITMAP
FC
FC
0C
0C
0C
0C
0C
0C
0C
0C
0C
0C
0C
0C
0C
0C
FC
FC
ENDCHAR
STARTCHAR CIRCUMFLEX
ENCODING 94
SWIDTH 1280 0
DWIDTH 12 0
BBX 10 6 2 10
BITMAP
0C00
0C00
3300
3300
C0C0
C0C0
ENDCHAR
STARTCHAR LOW
ENCODING 95
SWIDTH 1066 0
DWIDTH 10 0
BBX 10 2 0 -2
BITMAP
FFC0
FFC0
ENDCHAR
STARTCHAR GRAVE
ENCODING 96
SWIDTH 1280 0
DWIDTH 12 0
BBX 6 6 2 10
BITMAP
C0
C0
30
30
0C
0C
ENDCHAR
STARTCHAR LATIN
ENCODING 97
SWIDTH 1066 0
DWIDTH 10 0
BBX 10 10 0 0
BITMAP
3FC0
3FC0
C0C0
C0C0
C0C0
C0C0
C0C0
C0C0
3FC0
3FC0
ENDCHAR
STARTCHAR LATIN
ENCODING 98
SWIDTH 1280 0
DWIDTH 12 0
BBX 10 14 0 0
BITMAP
C000
C000
C000
C000
FF00
FF00
C0C0
C0C0
C0C0
C0C0
C0C0
C0C0
FF00
FF00
ENDCHAR
STARTCHAR LATIN
ENCODING 99
SWIDTH 1280 0
DWIDTH 12 0
BBX 10 10 0 0
BITMAP
3FC0
3FC0
C000
C000
C000
C000
C000
C000
3FC0
3FC0
ENDCHAR
STARTCHAR LATIN
ENCODING 100
SWIDTH 1280 0
DWIDTH 12 0
BBX 10 14 0 0
BITMAP
00C0
00C0
00C0
00C0
3FC0
3FC0
C0C0
C0C0
C0C0
C0C0
C0C0
C0C0
3FC0
3FC0
ENDCHAR
STARTCHAR LATIN
ENCODING 101
SWIDTH 1280 0
DWIDTH 12 0
BBX 10 10 0 0
BITMAP
3F00
3F00
C0C0
C0C0
FFC0
FFC0
C000
C000
3FC0
3FC0
ENDCHAR
STARTCHAR LATIN
ENCODING 102
SWIDTH 852 0
DWIDTH 8 0
BBX 8 14 0 0
BITMAP
3F
3F
C0
C0
FC
FC
C0
C0
C0
C0
C0
C0
C0
C0
ENDCHAR
STARTCHAR LATIN
ENCODING 103
SWIDTH 1280 0
DWIDTH 12 0
BBX 10 14 0 -4
BITMAP
3FC0
3FC0
C0C0
C0C0
C0C0
C0C0
C3C0
C3C0
3CC0
3CC0
00C0
00C0
3F00
3F00
ENDCHAR
STARTCHAR LATIN
ENCODING 104
SWIDTH 1280 0
DWIDTH 12 0
BBX 10 14 0 0
BITMAP
C000
C000
C000
C000
FF00
FF00
C0C0
C0C0
C0C0
C0C0
C0C0
C0C0
C0C0
C0C0
ENDCHAR
STARTCHAR LATIN
ENCODING 105
SWIDTH 640 0
DWIDTH 6 0
BBX 6 14 0 0
BITMAP
30
30
00
00
F0
F0
30
30
30
30
30
30
3C
3C
ENDCHAR
STARTCHAR LATIN
ENCODING 106
SWIDTH 640 0
DWIDTH 6 0
BBX 6 18 0 -4
BITMAP
0C
0C
00
00
3C
3C
0C
0C
0C
0C
0C
0C
0C
0C
0C
0C
F0
F0
ENDCHAR
STARTCHAR LATIN
ENCODING 107
SWIDTH 852 0
DWIDTH 8 0
BBX 8 14 0 0
BITMAP
C0
C0
C0
C0
C3
C3
CC
CC
FC
FC
C3
C3
C3
C3
ENDCHAR
STARTCHAR LATIN
ENCODING 108
SWIDTH 640 0
DWIDTH 6 0
BBX 6 14 0 0
BITMAP
F0
F0
30
30
30
30
30
30
30
30
30
30
3C
3C
ENDCHAR
STARTCHAR LATIN
ENCODING 109
SWIDTH 1280 0
DWIDTH 12 0
BBX 10 10 0 0
BITMAP
FF00
FF00
CCC0
CCC0
CCC0
CCC0
CCC0
CCC0
CCC0
CCC0
ENDCHAR
STARTCHAR LATIN
ENCODING 110
SWIDTH 1280 0
DWIDTH 12 0
BBX 10 10 0 0
BITMAP
FF00
FF00
C0C0
C0C0
C0C0
C0C0
C0C0
C0C0
C0C0
C0C0
ENDCHAR
STARTCHAR LATIN
ENCODING 111
SWIDTH 1280 0
DWIDTH 12 0
BBX 10 10 0 0
BITMAP
3F00
3F00
C0C0
C0C0
C0C0
C0C0
C0C0
C0C0
3F00
3F00
ENDCHAR
STARTCHAR LATIN
ENCODING 112
SWIDTH 1280 0
DWIDTH 12 0
BBX 10 14 0 -4
BITMAP
FF00
FF00
C0C0
C0C0
C0C0
C0C0
C0C0
C0C0
FF00
FF00
C000
C000
C000
C000
ENDCHAR
STARTCHAR LATIN
ENCODING 113
SWIDTH 1280 0
DWIDTH 12 0
BBX 10 14 0 -4
BITMAP
3FC0
3FC0
C0C0
C0C0
C0C0
C0C0
C0C0
C0C0
3FC0
3FC0
00C0
00C0
00C0
00C0
ENDCHAR
STARTCHAR LATIN
ENCODING 114
SWIDTH 1066 0
DWIDTH 10 0
BBX 10 10 0 0
BITMAP
3FC0
3FC0
C000
C000
C000
C000
C000
C000
C000
C000
ENDCHAR
STARTCHAR LATIN
ENCODING 115
SWIDTH 1280 0
DWIDTH 12 0
BBX 10 10 0 0
BITMAP
3FC0
3FC0
C000
C000
3F00
3F00
00C0
00C0
FF00
FF00
ENDCHAR
STARTCHAR LATIN
ENCODING 116
SWIDTH 852 0
DWIDTH 8 0
BBX 8 12 0 0
BITMAP
30
30
FF
FF
30
30
30
30
30
30
0F
0F
ENDCHAR
STARTCHAR LATIN
ENCODING 117
SWIDTH 1280 0
DWIDTH 12 0
BBX 10 10 0 0
BITMAP
C0C0
C0C0
C0C0
C0C0
C0C0
C0C0
C0C0
C0C0
3FC0
3FC0
ENDCHAR
STARTCHAR LATIN
ENCODING 118
SWIDTH 1280 0
DWIDTH 12 0
BBX 10 10 0 0
BITMAP
C0C0
C0C0
C0C0
C0C0
3300
3300
3300
3300
0C00
0C00
ENDCHAR
STARTCHAR LATIN
ENCODING 119
SWIDTH 1280 0
DWIDTH 12 0
BBX 10 10 0 0
BITMAP
C0C0
C0C0
C0C0
C0C0
C0C0
C0C0
FFC0
FFC0
C0C0
C0C0
ENDCHAR
STARTCHAR LATIN
ENCODING 120
SWIDTH 1280 0
DWIDTH 12 0
BBX 10 10 0 0
BITMAP
C0C0
C0C0
3300
3300
0C00
0C00
3300
3300
C0C0
C0C0
ENDCHAR
STARTCHAR LATIN
ENCODING 121
SWIDTH 1280 0
DWIDTH 12 0
BBX 10 14 0 -4
BITMAP
C0C0
C0C0
C0C0
C0C0
3300
3300
3300
3300
0C00
0C00
0C00
0C00
F000
F000
ENDCHAR
STARTCHAR LATIN
ENCODING 122
SWIDTH 1280 0
DWIDTH 12 0
BBX 10 10 0 0
BITMAP
FFC0
FFC0
0300
0300
0C00
0C00
3000
3000
FFC0
FFC0
ENDCHAR
STARTCHAR LEFT
ENCODING 123
SWIDTH 1280 0
DWIDTH 12 0
BBX 10 18 0 -2
BITMAP
03C0
03C0
0C00
0C00
0C00
0C00
0C00
0C00
F000
F000
0C00
0C00
0C00
0C00
0C00
0C00
03C0
03C0
ENDCHAR
STARTCHAR VERTICAL
ENCODING 124
SWIDTH 1280 0
DWIDTH 12 0
BBX 2 20 4 -2
BITMAP
C0
C0
C0
C0
C0
C0
C0
C0
C0
C0
C0
C0
C0
C0
C0
C0
C0
C0
C0
C0
ENDCHAR
STARTCHAR RIGHT
ENCODING 125
SWIDTH 1280 0
DWIDTH 12 0
BBX 10 18 0 -2
BITMAP
F000
F000
0C00
0C00
0C00
0C00
0C00
0C00
03C0
03C0
0C00
0C00
0C00
0C00
0C00
0C00
F000
F000
ENDCHAR
STARTCHAR TILDE
ENCODING 126
SWIDTH 1280 0
DWIDTH 12 0
BBX 10 8 0 2
BITMAP
3000
3000
CCC0
CCC0
CCC0
CCC0
0300
0300
ENDCHAR
STARTCHAR control
ENCODING 149
SWIDTH 1280 0
DWIDTH 12 0
BBX 10 10 0 2
BITMAP
3F00
3F00
FFC0
FFC0
FFC0
FFC0
FFC0
FFC0
3F00
3F00
ENDCHAR
STARTCHAR control
ENCODING 153
SWIDTH 1280 0
DWIDTH 12 0
BBX 12 6 0 8
BITMAP
FF30
FF30
33F0
33F0
33F0
33F0
ENDCHAR
STARTCHAR NO-BREAK
ENCODING 160
SWIDTH 1280 0
DWIDTH 12 0
BBX 0 0 0 0
BITMAP
ENDCHAR
STARTCHAR INVERTED
ENCODING 161
SWIDTH 1280 0
DWIDTH 12 0
BBX 2 14 6 0
BITMAP
C0
C0
00
00
C0
C0
C0
C0
C0
C0
C0
C0
C0
C0
ENDCHAR
STARTCHAR CENT
ENCODING 162
SWIDTH 1280 0
DWIDTH 12 0
BBX 10 14 0 -2
BITMAP
0C00
0C00
3F00
3F00
CCC0
CCC0
CC00
CC00
CCC0
CCC0
3F00
3F00
0C00
0C00
ENDCHAR
STARTCHAR POUND
ENCODING 163
SWIDTH 1280 0
DWIDTH 12 0
BBX 10 16 0 0
BITMAP
0F00
0F00
3000
3000
3000
3000
FC00
FC00
3000
3000
3000
3000
30C0
30C0
CF00
CF00
ENDCHAR
STARTCHAR CURRENCY
ENCODING 164
SWIDTH 1280 0
DWIDTH 12 0
BBX 10 10 0 2
BITMAP
C0C0
C0C0
3F00
3F00
3300
3300
3F00
3F00
C0C0
C0C0
ENDCHAR
STARTCHAR YEN
ENCODING 165
SWIDTH 1280 0
DWIDTH 12 0
BBX 10 16 0 -2
BITMAP
C0C0
C0C0
C0C0
C0C0
3300
3300
FFC0
FFC0
0C00
0C00
FFC0
FFC0
0C00
0C00
0C00
0C00
ENDCHAR
STARTCHAR BROKEN
ENCODING 166
SWIDTH 1280 0
DWIDTH 12 0
BBX 2 20 4 -4
BITMAP
C0
C0
C0
C0
C0
C0
C0
C0
00
00
00
00
C0
C0
C0
C0
C0
C0
C0
C0
ENDCHAR
STARTCHAR SECTION
ENCODING 167
SWIDTH 1280 0
DWIDTH 12 0
BBX 10 20 0 -2
BITMAP
3F00
3F00
C0C0
C0C0
30C0
30C0
CC00
CC00
C300
C300
30C0
30C0
0CC0
0CC0
C300
C300
C0C0
C0C0
3F00
3F00
ENDCHAR
STARTCHAR DIAERESIS
ENCODING 168
SWIDTH 1280 0
DWIDTH 12 0
BBX 6 2 2 12
BITMAP
FC
FC
ENDCHAR
STARTCHAR COPYRIGHT
ENCODING 169
SWIDTH 1492 0
DWIDTH 14 0
BBX 14 16 0 -2
BITMAP
0FC0
0FC0
3030
3030
C3CC
C3CC
CC0C
CC0C
CC0C
CC0C
C3CC
C3CC
3030
3030
0FC0
0FC0
ENDCHAR
STARTCHAR FEMININE
ENCODING 170
SWIDTH 1280 0
DWIDTH 12 0
BBX 8 12 2 2
BITMAP
3F
3F
C3
C3
CF
CF
33
33
00
00
FF
FF
ENDCHAR
STARTCHAR LEFT-POINTING
ENCODING 171
SWIDTH 1280 0
DWIDTH 12 0
BBX 10 8 0 2
BITMAP
30C0
30C0
C300
C300
C300
C300
30C0
30C0
ENDCHAR
STARTCHAR NOT
ENCODING 172
SWIDTH 1280 0
DWIDTH 12 0
BBX 10 6 0 2
BITMAP
FFC0
FFC0
00C0
00C0
00C0
00C0
ENDCHAR
STARTCHAR SOFT
ENCODING 173
SWIDTH 1066 0
DWIDTH 10 0
BBX 6 2 2 4
BITMAP
FC
FC
ENDCHAR
STARTCHAR REGISTERED
ENCODING 174
SWIDTH 1280 0
DWIDTH 12 0
BBX 14 16 0 -2
BITMAP
0FC0
0FC0
3030
3030
CF0C
CF0C
CCCC
CCCC
CF0C
CF0C
CCCC
CCCC
3030
3030
0FC0
0FC0
ENDCHAR
STARTCHAR MACRON
ENCODING 175
SWIDTH 1280 0
DWIDTH 12 0
BBX 8 2 2 14
BITMAP
FF
FF
ENDCHAR
STARTCHAR DEGREE
ENCODING 176
SWIDTH 1280 0
DWIDTH 12 0
BBX 8 8 2 8
BITMAP
3C
3C
C3
C3
C3
C3
3C
3C
ENDCHAR
STARTCHAR PLUS-MINUS
ENCODING 177
SWIDTH 1280 0
DWIDTH 12 0
BBX 10 14 0 0
BITMAP
0C00
0C00
0C00
0C00
FFC0
FFC0
0C00
0C00
0C00
0C00
0000
0000
FFC0
FFC0
ENDCHAR
STARTCHAR SUPERSCRIPT
ENCODING 178
SWIDTH 1066 0
DWIDTH 10 0
BBX 6 8 2 6
BITMAP
F0
F0
0C
0C
30
30
FC
FC
ENDCHAR
STARTCHAR SUPERSCRIPT
ENCODING 179
SWIDTH 1066 0
DWIDTH 10 0
BBX 6 10 4 4
BITMAP
F0
F0
0C
0C
3C
3C
0C
0C
F0
F0
ENDCHAR
STARTCHAR ACUTE
ENCODING 180
SWIDTH 1280 0
DWIDTH 12 0
BBX 6 6 4 10
BITMAP
0C
0C
30
30
C0
C0
ENDCHAR
STARTCHAR MICRO
ENCODING 181
SWIDTH 1280 0
DWIDTH 12 0
BBX 10 14 0 -4
BITMAP
C300
C300
C300
C300
C300
C300
C300
C300
FCC0
FCC0
C000
C000
C000
C000
ENDCHAR
STARTCHAR PILCROW
ENCODING 182
SWIDTH 1280 0
DWIDTH 12 0
BBX 12 16 0 0
BITMAP
3FF0
3FF0
FCC0
FCC0
FCC0
FCC0
FCC0
FCC0
3FC0
3FC0
0CC0
0CC0
0CC0
0CC0
0CF0
0CF0
ENDCHAR
STARTCHAR MIDDLE
ENCODING 183
SWIDTH 1280 0
DWIDTH 12 0
BBX 4 4 4 4
BITMAP
F0
F0
F0
F0
ENDCHAR
STARTCHAR CEDILLA
ENCODING 184
SWIDTH 1280 0
DWIDTH 12 0
BBX 4 6 4 -6
BITMAP
C0
C0
30
30
C0
C0
ENDCHAR
STARTCHAR SUPERSCRIPT
ENCODING 185
SWIDTH 1066 0
DWIDTH 10 0
BBX 6 8 2 6
BITMAP
F0
F0
30
30
30
30
FC
FC
ENDCHAR
STARTCHAR MASCULINE
ENCODING 186
SWIDTH 1280 0
DWIDTH 12 0
BBX 8 12 2 2
BITMAP
3C
3C
C3
C3
C3
C3
3C
3C
00
00
FF
FF
ENDCHAR
STARTCHAR RIGHT-POINTING
ENCODING 187
SWIDTH 1280 0
DWIDTH 12 0
BBX 10 8 0 2
BITMAP
C300
C300
30C0
30C0
30C0
30C0
C300
C300
ENDCHAR
STARTCHAR VULGAR
ENCODING 188
SWIDTH 1066 0
DWIDTH 10 0
BBX 10 14 0 0
BITMAP
F000
F000
30C0
30C0
3300
3300
0CC0
0CC0
33C0
33C0
CFC0
CFC0
00C0
00C0
ENDCHAR
STARTCHAR VULGAR
ENCODING 189
SWIDTH 1066 0
DWIDTH 10 0
BBX 10 14 0 0
BITMAP
F000
F000
30C0
30C0
3300
3300
0F00
0F00
30C0
30C0
C300
C300
0FC0
0FC0
ENDCHAR
STARTCHAR VULGAR
ENCODING 190
SWIDTH 1066 0
DWIDTH 10 0
BBX 10 16 0 0
BITMAP
C000
C000
3000
3000
F0C0
F0C0
3300
3300
CCC0
CCC0
33C0
33C0
CFC0
CFC0
00C0
00C0
ENDCHAR
STARTCHAR INVERTED
ENCODING 191
SWIDTH 1280 0
DWIDTH 12 0
BBX 10 14 0 0
BITMAP
0C00
0C00
0000
0000
0C00
0C00
3000
3000
C000
C000
C0C0
C0C0
3F00
3F00
ENDCHAR
STARTCHAR LATIN
ENCODING 192
SWIDTH 1280 0
DWIDTH 12 0
BBX 10 18 0 0
BITMAP
3000
3000
0C00
0C00
3F00
3F00
C0C0
C0C0
C0C0
C0C0
FFC0
FFC0
C0C0
C0C0
C0C0
C0C0
C0C0
C0C0
ENDCHAR
STARTCHAR LATIN
ENCODING 193
SWIDTH 1280 0
DWIDTH 12 0
BBX 10 18 0 0
BITMAP
0300
0300
0C00
0C00
3F00
3F00
C0C0
C0C0
C0C0
C0C0
FFC0
FFC0
C0C0
C0C0
C0C0
C0C0
C0C0
C0C0
ENDCHAR
STARTCHAR LATIN
ENCODING 194
SWIDTH 1280 0
DWIDTH 12 0
BBX 10 18 0 0
BITMAP
0C00
0C00
3300
3300
3F00
3F00
C0C0
C0C0
C0C0
C0C0
FFC0
FFC0
C0C0
C0C0
C0C0
C0C0
C0C0
C0C0
ENDCHAR
STARTCHAR LATIN
ENCODING 195
SWIDTH 1280 0
DWIDTH 12 0
BBX 10 18 0 0
BITMAP
3CC0
3CC0
CF00
CF00
3F00
3F00
C0C0
C0C0
C0C0
C0C0
FFC0
FFC0
C0C0
C0C0
C0C0
C0C0
C0C0
C0C0
ENDCHAR
STARTCHAR LATIN
ENCODING 196
SWIDTH 1280 0
DWIDTH 12 0
BBX 10 18 0 0
BITMAP
3300
3300
0000
0000
3F00
3F00
C0C0
C0C0
C0C0
C0C0
FFC0
FFC0
C0C0
C0C0
C0C0
C0C0
C0C0
C0C0
ENDCHAR
STARTCHAR LATIN
ENCODING 197
SWIDTH 1280 0
DWIDTH 12 0
BBX 10 18 0 0
BITMAP
0C00
0C00
3300
3300
0C00
0C00
3F00
3F00
C0C0
C0C0
C0C0
C0C0
FFC0
FFC0
C0C0
C0C0
C0C0
C0C0
ENDCHAR
STARTCHAR LATIN
ENCODING 198
SWIDTH 1280 0
DWIDTH 12 0
BBX 10 14 0 0
BITMAP
3FC0
3FC0
CC00
CC00
CC00
CC00
FF00
FF00
CC00
CC00
CC00
CC00
CFC0
CFC0
ENDCHAR
STARTCHAR LATIN
ENCODING 199
SWIDTH 1280 0
DWIDTH 12 0
BBX 10 18 0 -4
BITMAP
3F00
3F00
C0C0
C0C0
C000
C000
C000
C000
C000
C000
C0C0
C0C0
3F00
3F00
0C00
0C00
3000
3000
ENDCHAR
STARTCHAR LATIN
ENCODING 200
SWIDTH 1280 0
DWIDTH 12 0
BBX 10 18 0 0
BITMAP
3000
3000
0C00
0C00
FFC0
FFC0
C000
C000
C000
C000
FC00
FC00
C000
C000
C000
C000
FFC0
FFC0
ENDCHAR
STARTCHAR LATIN
ENCODING 201
SWIDTH 1280 0
DWIDTH 12 0
BBX 10 18 0 0
BITMAP
0300
0300
0C00
0C00
FFC0
FFC0
C000
C000
C000
C000
FC00
FC00
C000
C000
C000
C000
FFC0
FFC0
ENDCHAR
STARTCHAR LATIN
ENCODING 202
SWIDTH 1280 0
DWIDTH 12 0
BBX 10 18 0 0
BITMAP
0C00
0C00
3300
3300
FFC0
FFC0
C000
C000
C000
C000
FC00
FC00
C000
C000
C000
C000
FFC0
FFC0
ENDCHAR
STARTCHAR LATIN
ENCODING 203
SWIDTH 1280 0
DWIDTH 12 0
BBX 10 18 0 0
BITMAP
3300
3300
0000
0000
FFC0
FFC0
C000
C000
C000
C000
FC00
FC00
C000
C000
C000
C000
FFC0
FFC0
ENDCHAR
STARTCHAR LATIN
ENCODING 204
SWIDTH 1280 0
DWIDTH 12 0
BBX 6 18 2 0
BITMAP
30
30
0C
0C
FC
FC
30
30
30
30
30
30
30
30
30
30
FC
FC
ENDCHAR
STARTCHAR LATIN
ENCODING 205
SWIDTH 1280 0
DWIDTH 12 0
BBX 6 18 2 0
BITMAP
30
30
C0
C0
FC
FC
30
30
30
30
30
30
30
30
30
30
FC
FC
ENDCHAR
STARTCHAR LATIN
ENCODING 206
SWIDTH 1280 0
DWIDTH 12 0
BBX 6 18 2 0
BITMAP
30
30
CC
CC
FC
FC
30
30
30
30
30
30
30
30
30
30
FC
FC
ENDCHAR
STARTCHAR LATIN
ENCODING 207
SWIDTH 1280 0
DWIDTH 12 0
BBX 6 18 2 0
BITMAP
CC
CC
00
00
FC
FC
30
30
30
30
30
30
30
30
30
30
FC
FC
ENDCHAR
STARTCHAR LATIN
ENCODING 208
SWIDTH 1280 0
DWIDTH 12 0
BBX 12 14 -2 0
BITMAP
3FC0
3FC0
3030
3030
3030
3030
FF30
FF30
3030
3030
3030
3030
3FC0
3FC0
ENDCHAR
STARTCHAR LATIN
ENCODING 209
SWIDTH 1280 0
DWIDTH 12 0
BBX 10 18 0 0
BITMAP
3CC0
3CC0
CF00
CF00
C0C0
C0C0
F0C0
F0C0
CCC0
CCC0
C3C0
C3C0
C0C0
C0C0
C0C0
C0C0
C0C0
C0C0
ENDCHAR
STARTCHAR LATIN
ENCODING 210
SWIDTH 1280 0
DWIDTH 12 0
BBX 10 18 0 0
BITMAP
3000
3000
0C00
0C00
3F00
3F00
C0C0
C0C0
C0C0
C0C0
C0C0
C0C0
C0C0
C0C0
C0C0
C0C0
3F00
3F00
ENDCHAR
STARTCHAR LATIN
ENCODING 211
SWIDTH 1280 0
DWIDTH 12 0
BBX 10 18 0 0
BITMAP
0300
0300
0C00
0C00
3F00
3F00
C0C0
C0C0
C0C0
C0C0
C0C0
C0C0
C0C0
C0C0
C0C0
C0C0
3F00
3F00
ENDCHAR
STARTCHAR LATIN
ENCODING 212
SWIDTH 1280 0
DWIDTH 12 0
BBX 10 18 0 0
BITMAP
0C00
0C00
3300
3300
3F00
3F00
C0C0
C0C0
C0C0
C0C0
C0C0
C0C0
C0C0
C0C0
C0C0
C0C0
3F00
3F00
ENDCHAR
STARTCHAR LATIN
ENCODING 213
SWIDTH 1280 0
DWIDTH 12 0
BBX 10 18 0 0
BITMAP
3CC0
3CC0
CF00
CF00
3F00
3F00
C0C0
C0C0
C0C0
C0C0
C0C0
C0C0
C0C0
C0C0
C0C0
C0C0
3F00
3F00
ENDCHAR
STARTCHAR LATIN
ENCODING 214
SWIDTH 1280 0
DWIDTH 12 0
BBX 10 18 0 0
BITMAP
3300
3300
0000
0000
3F00
3F00
C0C0
C0C0
C0C0
C0C0
C0C0
C0C0
C0C0
C0C0
C0C0
C0C0
3F00
3F00
ENDCHAR
STARTCHAR MULTIPLICATION
ENCODING 215
SWIDTH 1280 0
DWIDTH 12 0
BBX 10 10 0 2
BITMAP
C0C0
C0C0
3300
3300
0C00
0C00
3300
3300
C0C0
C0C0
ENDCHAR
STARTCHAR LATIN
ENCODING 216
SWIDTH 1280 0
DWIDTH 12 0
BBX 14 14 -2 0
BITMAP
0FCC
0FCC
3030
3030
30F0
30F0
3330
3330
3C30
3C30
3030
3030
CFC0
CFC0
ENDCHAR
STARTCHAR LATIN
ENCODING 217
SWIDTH 1280 0
DWIDTH 12 0
BBX 10 18 0 0
BITMAP
3000
3000
0C00
0C00
C0C0
C0C0
C0C0
C0C0
C0C0
C0C0
C0C0
C0C0
C0C0
C0C0
C0C0
C0C0
3FC0
3FC0
ENDCHAR
STARTCHAR LATIN
ENCODING 218
SWIDTH 1280 0
DWIDTH 12 0
BBX 10 18 0 0
BITMAP
0300
0300
0C00
0C00
C0C0
C0C0
C0C0
C0C0
C0C0
C0C0
C0C0
C0C0
C0C0
C0C0
C0C0
C0C0
3FC0
3FC0
ENDCHAR
STARTCHAR LATIN
ENCODING 219
SWIDTH 1280 0
DWIDTH 12 0
BBX 10 18 0 0
BITMAP
0C00
0C00
3300
3300
0000
0000
C0C0
C0C0
C0C0
C0C0
C0C0
C0C0
C0C0
C0C0
C0C0
C0C0
3FC0
3FC0
ENDCHAR
STARTCHAR LATIN
ENCODING 220
SWIDTH 1280 0
DWIDTH 12 0
BBX 10 18 0 0
BITMAP
3300
3300
0000
0000
C0C0
C0C0
C0C0
C0C0
C0C0
C0C0
C0C0
C0C0
C0C0
C0C0
C0C0
C0C0
3FC0
3FC0
ENDCHAR
STARTCHAR LATIN
ENCODING 221
SWIDTH 1280 0
DWIDTH 12 0
BBX 10 18 0 0
BITMAP
0300
0300
0C00
0C00
C0C0
C0C0
C0C0
C0C0
C0C0
C0C0
3300
3300
0C00
0C00
0C00
0C00
0C00
0C00
ENDCHAR
STARTCHAR LATIN
ENCODING 222
SWIDTH 1280 0
DWIDTH 12 0
BBX 12 18 -2 -4
BITMAP
FC00
FC00
3000
3000
3FC0
3FC0
3030
3030
3030
3030
3030
3030
3FC0
3FC0
3000
3000
FC00
FC00
ENDCHAR
STARTCHAR LATIN
ENCODING 223
SWIDTH 1280 0
DWIDTH 12 0
BBX 10 16 0 -2
BITMAP
3F00
3F00
C0C0
C0C0
C300
C300
C300
C300
C0C0
C0C0
C0C0
C0C0
CF00
CF00
C000
C000
ENDCHAR
STARTCHAR LATIN
ENCODING 224
SWIDTH 1280 0
DWIDTH 12 0
BBX 10 16 0 0
BITMAP
0C00
0C00
0300
0300
0000
0000
3FC0
3FC0
C0C0
C0C0
C0C0
C0C0
C0C0
C0C0
3FC0
3FC0
ENDCHAR
STARTCHAR LATIN
ENCODING 225
SWIDTH 1280 0
DWIDTH 12 0
BBX 10 16 0 0
BITMAP
0300
0300
0C00
0C00
0000
0000
3FC0
3FC0
C0C0
C0C0
C0C0
C0C0
C0C0
C0C0
3FC0
3FC0
ENDCHAR
STARTCHAR LATIN
ENCODING 226
SWIDTH 1280 0
DWIDTH 12 0
BBX 10 16 0 0
BITMAP
0C00
0C00
3300
3300
0000
0000
3FC0
3FC0
C0C0
C0C0
C0C0
C0C0
C0C0
C0C0
3FC0
3FC0
ENDCHAR
STARTCHAR LATIN
ENCODING 227
SWIDTH 1280 0
DWIDTH 12 0
BBX 10 16 0 0
BITMAP
3CC0
3CC0
CF00
CF00
0000
0000
3FC0
3FC0
C0C0
C0C0
C0C0
C0C0
C0C0
C0C0
3FC0
3FC0
ENDCHAR
STARTCHAR LATIN
ENCODING 228
SWIDTH 1280 0
DWIDTH 12 0
BBX 10 14 0 0
BITMAP
3300
3300
0000
0000
3FC0
3FC0
C0C0
C0C0
C0C0
C0C0
C0C0
C0C0
3FC0
3FC0
ENDCHAR
STARTCHAR LATIN
ENCODING 229
SWIDTH 1280 0
DWIDTH 12 0
BBX 10 18 0 0
BITMAP
0C00
0C00
3300
3300
0C00
0C00
0000
0000
3FC0
3FC0
C0C0
C0C0
C0C0
C0C0
C0C0
C0C0
3FC0
3FC0
ENDCHAR
STARTCHAR LATIN
ENCODING 230
SWIDTH 1280 0
DWIDTH 12 0
BBX 10 10 0 0
BITMAP
3F00
3F00
CCC0
CCC0
CFC0
CFC0
CC00
CC00
3FC0
3FC0
ENDCHAR
STARTCHAR LATIN
ENCODING 231
SWIDTH 1280 0
DWIDTH 12 0
BBX 10 14 0 -4
BITMAP
3FC0
3FC0
C000
C000
C000
C000
C000
C000
3FC0
3FC0
0C00
0C00
3000
3000
ENDCHAR
STARTCHAR LATIN
ENCODING 232
SWIDTH 1280 0
DWIDTH 12 0
BBX 10 16 0 0
BITMAP
3000
3000
0C00
0C00
0000
0000
3F00
3F00
C0C0
C0C0
FFC0
FFC0
C000
C000
3FC0
3FC0
ENDCHAR
STARTCHAR LATIN
ENCODING 233
SWIDTH 1280 0
DWIDTH 12 0
BBX 10 16 0 0
BITMAP
0300
0300
0C00
0C00
0000
0000
3F00
3F00
C0C0
C0C0
FFC0
FFC0
C000
C000
3FC0
3FC0
ENDCHAR
STARTCHAR LATIN
ENCODING 234
SWIDTH 1280 0
DWIDTH 12 0
BBX 10 16 0 0
BITMAP
0C00
0C00
3300
3300
0000
0000
3F00
3F00
C0C0
C0C0
FFC0
FFC0
C000
C000
3FC0
3FC0
ENDCHAR
STARTCHAR LATIN
ENCODING 235
SWIDTH 1280 0
DWIDTH 12 0
BBX 10 14 0 0
BITMAP
3300
3300
0000
0000
3F00
3F00
C0C0
C0C0
FFC0
FFC0
C000
C000
3FC0
3FC0
ENDCHAR
STARTCHAR LATIN
ENCODING 236
SWIDTH 640 0
DWIDTH 6 0
BBX 6 16 2 0
BITMAP
C0
C0
30
30
00
00
F0
F0
30
30
30
30
30
30
3C
3C
ENDCHAR
STARTCHAR LATIN
ENCODING 237
SWIDTH 1280 0
DWIDTH 12 0
BBX 6 16 2 0
BITMAP
0C
0C
30
30
00
00
F0
F0
30
30
30
30
30
30
3C
3C
ENDCHAR
STARTCHAR LATIN
ENCODING 238
SWIDTH 1280 0
DWIDTH 12 0
BBX 6 16 2 0
BITMAP
30
30
CC
CC
00
00
F0
F0
30
30
30
30
30
30
3C
3C
ENDCHAR
STARTCHAR LATIN
ENCODING 239
SWIDTH 1280 0
DWIDTH 12 0
BBX 6 14 2 0
BITMAP
CC
CC
00
00
F0
F0
30
30
30
30
30
30
3C
3C
ENDCHAR
STARTCHAR LATIN
ENCODING 240
SWIDTH 1280 0
DWIDTH 12 0
BBX 10 18 0 0
BITMAP
3300
3300
0C00
0C00
3300
3300
0300
0300
3FC0
3FC0
C0C0
C0C0
C0C0
C0C0
C0C0
C0C0
3F00
3F00
ENDCHAR
STARTCHAR LATIN
ENCODING 241
SWIDTH 1280 0
DWIDTH 12 0
BBX 10 16 0 0
BITMAP
3CC0
3CC0
CF00
CF00
0000
0000
FF00
FF00
C0C0
C0C0
C0C0
C0C0
C0C0
C0C0
C0C0
C0C0
ENDCHAR
STARTCHAR LATIN
ENCODING 242
SWIDTH 1280 0
DWIDTH 12 0
BBX 10 16 0 0
BITMAP
3000
3000
0C00
0C00
0000
0000
3F00
3F00
C0C0
C0C0
C0C0
C0C0
C0C0
C0C0
3F00
3F00
ENDCHAR
STARTCHAR LATIN
ENCODING 243
SWIDTH 1280 0
DWIDTH 12 0
BBX 10 16 0 0
BITMAP
0300
0300
0C00
0C00
0000
0000
3F00
3F00
C0C0
C0C0
C0C0
C0C0
C0C0
C0C0
3F00
3F00
ENDCHAR
STARTCHAR LATIN
ENCODING 244
SWIDTH 1280 0
DWIDTH 12 0
BBX 10 16 0 0
BITMAP
0C00
0C00
3300
3300
0000
0000
3F00
3F00
C0C0
C0C0
C0C0
C0C0
C0C0
C0C0
3F00
3F00
ENDCHAR
STARTCHAR LATIN
ENCODING 245
SWIDTH 1280 0
DWIDTH 12 0
BBX 10 16 0 0
BITMAP
3CC0
3CC0
CF00
CF00
0000
0000
3F00
3F00
C0C0
C0C0
C0C0
C0C0
C0C0
C0C0
3F00
3F00
ENDCHAR
STARTCHAR LATIN
ENCODING 246
SWIDTH 1280 0
DWIDTH 12 0
BBX 10 14 0 0
BITMAP
3300
3300
0000
0000
3F00
3F00
C0C0
C0C0
C0C0
C0C0
C0C0
C0C0
3F00
3F00
ENDCHAR
STARTCHAR DIVISION
ENCODING 247
SWIDTH 1280 0
DWIDTH 12 0
BBX 10 10 0 2
BITMAP
0C00
0C00
0000
0000
FFC0
FFC0
0000
0000
0C00
0C00
ENDCHAR
STARTCHAR LATIN
ENCODING 248
SWIDTH 1280 0
DWIDTH 12 0
BBX 10 10 0 0
BITMAP
3FC0
3FC0
C3C0
C3C0
CCC0
CCC0
F0C0
F0C0
FF00
FF00
ENDCHAR
STARTCHAR LATIN
ENCODING 249
SWIDTH 1280 0
DWIDTH 12 0
BBX 10 16 0 0
BITMAP
3000
3000
0C00
0C00
0000
0000
C0C0
C0C0
C0C0
C0C0
C0C0
C0C0
C0C0
C0C0
3FC0
3FC0
ENDCHAR
STARTCHAR LATIN
ENCODING 250
SWIDTH 1280 0
DWIDTH 12 0
BBX 10 16 0 0
BITMAP
0300
0300
0C00
0C00
0000
0000
C0C0
C0C0
C0C0
C0C0
C0C0
C0C0
C0C0
C0C0
3FC0
3FC0
ENDCHAR
STARTCHAR LATIN
ENCODING 251
SWIDTH 1280 0
DWIDTH 12 0
BBX 10 16 0 0
BITMAP
0C00
0C00
3300
3300
0000
0000
C0C0
C0C0
C0C0
C0C0
C0C0
C0C0
C0C0
C0C0
3FC0
3FC0
ENDCHAR
STARTCHAR LATIN
ENCODING 252
SWIDTH 1280 0
DWIDTH 12 0
BBX 10 14 0 0
BITMAP
3300
3300
0000
0000
C0C0
C0C0
C0C0
C0C0
C0C0
C0C0
C0C0
C0C0
3FC0
3FC0
ENDCHAR
STARTCHAR LATIN
ENCODING 253
SWIDTH 1280 0
DWIDTH 12 0
BBX 10 20 0 -4
BITMAP
0300
0300
0C00
0C00
0000
0000
C0C0
C0C0
C0C0
C0C0
3300
3300
3300
3300
0C00
0C00
0C00
0C00
F000
F000
ENDCHAR
STARTCHAR LATIN
ENCODING 254
SWIDTH 1280 0
DWIDTH 12 0
BBX 10 18 0 -4
BITMAP
C000
C000
C000
C000
FF00
FF00
C0C0
C0C0
C0C0
C0C0
C0C0
C0C0
FF00
FF00
C000
C000
C000
C000
ENDCHAR
STARTCHAR LATIN
ENCODING 255
SWIDTH 1280 0
DWIDTH 12 0
BBX 10 18 0 -4
BITMAP
3300
3300
0000
0000
C0C0
C0C0
C0C0
C0C0
3300
3300
3300
3300
0C00
0C00
0C00
0C00
F000
F000
ENDCHAR
STARTCHAR LATIN
ENCODING 256
SWIDTH 1280 0
DWIDTH 12 0
BBX 10 18 0 0
BITMAP
FFC0
FFC0
0000
0000
3F00
3F00
C0C0
C0C0
C0C0
C0C0
FFC0
FFC0
C0C0
C0C0
C0C0
C0C0
C0C0
C0C0
ENDCHAR
STARTCHAR LATIN
ENCODING 257
SWIDTH 1280 0
DWIDTH 12 0
BBX 10 14 0 0
BITMAP
FFC0
FFC0
0000
0000
3FC0
3FC0
C0C0
C0C0
C0C0
C0C0
C0C0
C0C0
3FC0
3FC0
ENDCHAR
STARTCHAR LATIN
ENCODING 258
SWIDTH 1280 0
DWIDTH 12 0
BBX 10 20 0 0
BITMAP
C0C0
C0C0
3F00
3F00
0000
0000
3F00
3F00
C0C0
C0C0
C0C0
C0C0
FFC0
FFC0
C0C0
C0C0
C0C0
C0C0
C0C0
C0C0
ENDCHAR
STARTCHAR LATIN
ENCODING 259
SWIDTH 1280 0
DWIDTH 12 0
BBX 10 16 0 0
BITMAP
C0C0
C0C0
3F00
3F00
0000
0000
3FC0
3FC0
C0C0
C0C0
C0C0
C0C0
C0C0
C0C0
3FC0
3FC0
ENDCHAR
STARTCHAR LATIN
ENCODING 260
SWIDTH 1280 0
DWIDTH 12 0
BBX 12 16 0 -2
BITMAP
3F00
3F00
C0C0
C0C0
C0C0
C0C0
FFC0
FFC0
C0C0
C0C0
C0C0
C0C0
C0C0
C0C0
0030
0030
ENDCHAR
STARTCHAR LATIN
ENCODING 261
SWIDTH 1280 0
DWIDTH 12 0
BBX 12 12 0 -2
BITMAP
3FC0
3FC0
C0C0
C0C0
C0C0
C0C0
C0C0
C0C0
3FC0
3FC0
0030
0030
ENDCHAR
STARTCHAR LATIN
ENCODING 262
SWIDTH 1066 0
DWIDTH 10 0
BBX 10 18 0 0
BITMAP
0300
0300
0C00
0C00
3FC0
3FC0
C000
C000
C000
C000
C000
C000
C000
C000
C000
C000
3FC0
3FC0
ENDCHAR
STARTCHAR LATIN
ENCODING 263
SWIDTH 1280 0
DWIDTH 12 0
BBX 10 16 0 0
BITMAP
0300
0300
0C00
0C00
0000
0000
3FC0
3FC0
C000
C000
C000
C000
C000
C000
3FC0
3FC0
ENDCHAR
STARTCHAR LATIN
ENCODING 264
SWIDTH 1280 0
DWIDTH 12 0
BBX 10 18 0 0
BITMAP
0C00
0C00
3300
3300
3FC0
3FC0
C000
C000
C000
C000
C000
C000
C000
C000
C000
C000
3FC0
3FC0
ENDCHAR
STARTCHAR LATIN
ENCODING 265
SWIDTH 1280 0
DWIDTH 12 0
BBX 10 16 0 0
BITMAP
0C00
0C00
3300
3300
0000
0000
3FC0
3FC0
C000
C000
C000
C000
C000
C000
3FC0
3FC0
ENDCHAR
STARTCHAR LATIN
ENCODING 266
SWIDTH 1280 0
DWIDTH 12 0
BBX 10 18 0 0
BITMAP
0C00
0C00
0000
0000
3FC0
3FC0
C000
C000
C000
C000
C000
C000
C000
C000
C000
C000
3FC0
3FC0
ENDCHAR
STARTCHAR LATIN
ENCODING 267
SWIDTH 1280 0
DWIDTH 12 0
BBX 10 14 0 0
BITMAP
0C00
0C00
0000
0000
3FC0
3FC0
C000
C000
C000
C000
C000
C000
3FC0
3FC0
ENDCHAR
STARTCHAR LATIN
ENCODING 268
SWIDTH 1280 0
DWIDTH 12 0
BBX 10 18 0 0
BITMAP
3300
3300
0C00
0C00
3FC0
3FC0
C000
C000
C000
C000
C000
C000
C000
C000
C000
C000
3FC0
3FC0
ENDCHAR
STARTCHAR LATIN
ENCODING 269
SWIDTH 1280 0
DWIDTH 12 0
BBX 10 16 0 0
BITMAP
3300
3300
0C00
0C00
0000
0000
3FC0
3FC0
C000
C000
C000
C000
C000
C000
3FC0
3FC0
ENDCHAR
STARTCHAR LATIN
ENCODING 270
SWIDTH 1280 0
DWIDTH 12 0
BBX 10 18 0 0
BITMAP
3300
3300
0C00
0C00
FF00
FF00
C0C0
C0C0
C0C0
C0C0
C0C0
C0C0
C0C0
C0C0
C0C0
C0C0
FF00
FF00
ENDCHAR
STARTCHAR LATIN
ENCODING 271
SWIDTH 1280 0
DWIDTH 12 0
BBX 12 16 0 0
BITMAP
0030
0030
0330
0330
03C0
03C0
3F00
3F00
C300
C300
C300
C300
C300
C300
3F00
3F00
ENDCHAR
STARTCHAR LATIN
ENCODING 272
SWIDTH 1280 0
DWIDTH 12 0
BBX 12 14 -2 0
BITMAP
3FC0
3FC0
3030
3030
3030
3030
FF30
FF30
3030
3030
3030
3030
3FC0
3FC0
ENDCHAR
STARTCHAR LATIN
ENCODING 273
SWIDTH 1280 0
DWIDTH 12 0
BBX 12 14 0 0
BITMAP
03F0
03F0
00C0
00C0
3FC0
3FC0
C0C0
C0C0
C0C0
C0C0
C0C0
C0C0
3FC0
3FC0
ENDCHAR
STARTCHAR LATIN
ENCODING 274
SWIDTH 1280 0
DWIDTH 12 0
BBX 10 18 0 0
BITMAP
3F00
3F00
0000
0000
FFC0
FFC0
C000
C000
C000
C000
FC00
FC00
C000
C000
C000
C000
FFC0
FFC0
ENDCHAR
STARTCHAR LATIN
ENCODING 275
SWIDTH 1280 0
DWIDTH 12 0
BBX 10 14 0 0
BITMAP
FFC0
FFC0
0000
0000
3F00
3F00
C0C0
C0C0
FFC0
FFC0
C000
C000
3FC0
3FC0
ENDCHAR
STARTCHAR LATIN
ENCODING 276
SWIDTH 1280 0
DWIDTH 12 0
BBX 10 20 0 0
BITMAP
C0C0
C0C0
3F00
3F00
0000
0000
FFC0
FFC0
C000
C000
C000
C000
FC00
FC00
C000
C000
C000
C000
FFC0
FFC0
ENDCHAR
STARTCHAR LATIN
ENCODING 277
SWIDTH 1280 0
DWIDTH 12 0
BBX 10 16 0 0
BITMAP
C0C0
C0C0
3F00
3F00
0000
0000
3F00
3F00
C0C0
C0C0
FFC0
FFC0
C000
C000
3FC0
3FC0
ENDCHAR
STARTCHAR LATIN
ENCODING 278
SWIDTH 1280 0
DWIDTH 12 0
BBX 10 18 0 0
BITMAP
0C00
0C00
0000
0000
FFC0
FFC0
C000
C000
C000
C000
FC00
FC00
C000
C000
C000
C000
FFC0
FFC0
ENDCHAR
STARTCHAR LATIN
ENCODING 279
SWIDTH 1280 0
DWIDTH 12 0
BBX 10 14 0 0
BITMAP
0C00
0C00
0000
0000
3F00
3F00
C0C0
C0C0
FFC0
FFC0
C000
C000
3FC0
3FC0
ENDCHAR
STARTCHAR LATIN
ENCODING 280
SWIDTH 1280 0
DWIDTH 12 0
BBX 12 16 0 -2
BITMAP
FFC0
FFC0
C000
C000
C000
C000
FC00
FC00
C000
C000
C000
C000
FFC0
FFC0
0030
0030
ENDCHAR
STARTCHAR LATIN
ENCODING 281
SWIDTH 1280 0
DWIDTH 12 0
BBX 10 14 0 -4
BITMAP
3F00
3F00
C0C0
C0C0
FFC0
FFC0
C000
C000
3FC0
3FC0
0300
0300
00C0
00C0
ENDCHAR
STARTCHAR LATIN
ENCODING 282
SWIDTH 1280 0
DWIDTH 12 0
BBX 10 18 0 0
BITMAP
3300
3300
0C00
0C00
FFC0
FFC0
C000
C000
C000
C000
FC00
FC00
C000
C000
C000
C000
FFC0
FFC0
ENDCHAR
STARTCHAR LATIN
ENCODING 283
SWIDTH 1280 0
DWIDTH 12 0
BBX 10 16 0 0
BITMAP
3300
3300
0C00
0C00
0000
0000
3F00
3F00
C0C0
C0C0
FFC0
FFC0
C000
C000
3FC0
3FC0
ENDCHAR
STARTCHAR LATIN
ENCODING 284
SWIDTH 1280 0
DWIDTH 12 0
BBX 10 20 0 0
BITMAP
0C00
0C00
3300
3300
0000
0000
3FC0
3FC0
C000
C000
C000
C000
CFC0
CFC0
C0C0
C0C0
C0C0
C0C0
3FC0
3FC0
ENDCHAR
STARTCHAR LATIN
ENCODING 285
SWIDTH 1280 0
DWIDTH 12 0
BBX 10 20 0 -4
BITMAP
0C00
0C00
3300
3300
0000
0000
3FC0
3FC0
C0C0
C0C0
C0C0
C0C0
C0C0
C0C0
3FC0
3FC0
00C0
00C0
3F00
3F00
ENDCHAR
STARTCHAR LATIN
ENCODING 286
SWIDTH 1066 0
DWIDTH 10 0
BBX 10 20 0 0
BITMAP
C0C0
C0C0
3F00
3F00
0000
0000
3FC0
3FC0
C000
C000
C000
C000
CFC0
CFC0
C0C0
C0C0
C0C0
C0C0
3FC0
3FC0
ENDCHAR
STARTCHAR LATIN
ENCODING 287
SWIDTH 1280 0
DWIDTH 12 0
BBX 10 20 0 -4
BITMAP
C0C0
C0C0
3F00
3F00
0000
0000
3FC0
3FC0
C0C0
C0C0
C0C0
C0C0
C0C0
C0C0
3FC0
3FC0
00C0
00C0
3F00
3F00
ENDCHAR
STARTCHAR LATIN
ENCODING 288
SWIDTH 1280 0
DWIDTH 12 0
BBX 10 18 0 0
BITMAP
0C00
0C00
0000
0000
3FC0
3FC0
C000
C000
C000
C000
CFC0
CFC0
C0C0
C0C0
C0C0
C0C0
3FC0
3FC0
ENDCHAR
STARTCHAR LATIN
ENCODING 289
SWIDTH 1280 0
DWIDTH 12 0
BBX 10 18 0 -4
BITMAP
0C00
0C00
0000
0000
3FC0
3FC0
C0C0
C0C0
C0C0
C0C0
C0C0
C0C0
3FC0
3FC0
00C0
00C0
3F00
3F00
ENDCHAR
STARTCHAR LATIN
ENCODING 290
SWIDTH 1280 0
DWIDTH 12 0
BBX 10 18 0 -4
BITMAP
3FC0
3FC0
C000
C000
C000
C000
CFC0
CFC0
C0C0
C0C0
C0C0
C0C0
3FC0
3FC0
0C00
0C00
3000
3000
ENDCHAR
STARTCHAR LATIN
ENCODING 291
SWIDTH 1280 0
DWIDTH 12 0
BBX 10 20 0 -4
BITMAP
0300
0300
0C00
0C00
0000
0000
3FC0
3FC0
C0C0
C0C0
C0C0
C0C0
C0C0
C0C0
3FC0
3FC0
00C0
00C0
3F00
3F00
ENDCHAR
STARTCHAR LATIN
ENCODING 292
SWIDTH 1280 0
DWIDTH 12 0
BBX 10 18 0 0
BITMAP
0C00
0C00
3300
3300
0000
0000
C0C0
C0C0
C0C0
C0C0
FFC0
FFC0
C0C0
C0C0
C0C0
C0C0
C0C0
C0C0
ENDCHAR
STARTCHAR LATIN
ENCODING 293
SWIDTH 1280 0
DWIDTH 12 0
BBX 10 18 0 0
BITMAP
0C00
0C00
3300
3300
C000
C000
C000
C000
FF00
FF00
C0C0
C0C0
C0C0
C0C0
C0C0
C0C0
C0C0
C0C0
ENDCHAR
STARTCHAR LATIN
ENCODING 294
SWIDTH 1280 0
DWIDTH 12 0
BBX 14 14 -2 0
BITMAP
3030
3030
FFFC
FFFC
3030
3030
3FF0
3FF0
3030
3030
3030
3030
3030
3030
ENDCHAR
STARTCHAR LATIN
ENCODING 295
SWIDTH 1280 0
DWIDTH 12 0
BBX 12 14 -2 0
BITMAP
FF00
FF00
3000
3000
3FC0
3FC0
3030
3030
3030
3030
3030
3030
3030
3030
ENDCHAR
STARTCHAR LATIN
ENCODING 296
SWIDTH 1280 0
DWIDTH 12 0
BBX 10 20 0 0
BITMAP
3CC0
3CC0
CF00
CF00
0000
0000
3F00
3F00
0C00
0C00
0C00
0C00
0C00
0C00
0C00
0C00
0C00
0C00
3F00
3F00
ENDCHAR
STARTCHAR LATIN
ENCODING 297
SWIDTH 852 0
DWIDTH 8 0
BBX 8 16 2 0
BITMAP
33
33
CC
CC
00
00
F0
F0
30
30
30
30
30
30
3C
3C
ENDCHAR
STARTCHAR LATIN
ENCODING 298
SWIDTH 1280 0
DWIDTH 12 0
BBX 6 18 2 0
BITMAP
FC
FC
00
00
FC
FC
30
30
30
30
30
30
30
30
30
30
FC
FC
ENDCHAR
STARTCHAR LATIN
ENCODING 299
SWIDTH 1280 0
DWIDTH 12 0
BBX 6 14 2 0
BITMAP
FC
FC
00
00
F0
F0
30
30
30
30
30
30
3C
3C
ENDCHAR
STARTCHAR LATIN
ENCODING 300
SWIDTH 1280 0
DWIDTH 12 0
BBX 10 20 0 0
BITMAP
C0C0
C0C0
3F00
3F00
0000
0000
3F00
3F00
0C00
0C00
0C00
0C00
0C00
0C00
0C00
0C00
0C00
0C00
3F00
3F00
ENDCHAR
STARTCHAR LATIN
ENCODING 301
SWIDTH 640 0
DWIDTH 6 0
BBX 8 16 0 0
BITMAP
C3
C3
3C
3C
00
00
3C
3C
0C
0C
0C
0C
0C
0C
0F
0F
ENDCHAR
STARTCHAR LATIN
ENCODING 302
SWIDTH 1280 0
DWIDTH 12 0
BBX 6 18 2 -4
BITMAP
FC
FC
30
30
30
30
30
30
30
30
30
30
FC
FC
C0
C0
30
30
ENDCHAR
STARTCHAR LATIN
ENCODING 303
SWIDTH 640 0
DWIDTH 6 0
BBX 6 18 2 -4
BITMAP
30
30
00
00
F0
F0
30
30
30
30
30
30
3C
3C
C0
C0
30
30
ENDCHAR
STARTCHAR LATIN
ENCODING 304
SWIDTH 1280 0
DWIDTH 12 0
BBX 6 18 2 0
BITMAP
30
30
00
00
FC
FC
30
30
30
30
30
30
30
30
30
30
FC
FC
ENDCHAR
STARTCHAR LATIN
ENCODING 305
SWIDTH 640 0
DWIDTH 6 0
BBX 6 10 2 0
BITMAP
F0
F0
30
30
30
30
30
30
3C
3C
ENDCHAR
STARTCHAR LATIN
ENCODING 306
SWIDTH 1280 0
DWIDTH 12 0
BBX 12 14 0 0
BITMAP
FFF0
FFF0
3030
3030
3030
3030
3030
3030
3030
3030
3330
3330
FCC0
FCC0
ENDCHAR
STARTCHAR LATIN
ENCODING 307
SWIDTH 1280 0
DWIDTH 12 0
BBX 10 18 2 -4
BITMAP
30C0
30C0
0000
0000
F0C0
F0C0
30C0
30C0
30C0
30C0
30C0
30C0
30C0
30C0
00C0
00C0
0F00
0F00
ENDCHAR
STARTCHAR LATIN
ENCODING 308
SWIDTH 852 0
DWIDTH 8 0
BBX 8 18 0 0
BITMAP
0C
0C
33
33
3F
3F
03
03
03
03
03
03
03
03
03
03
FC
FC
ENDCHAR
STARTCHAR LATIN
ENCODING 309
SWIDTH 1066 0
DWIDTH 10 0
BBX 8 20 0 -4
BITMAP
0C
0C
33
33
00
00
0C
0C
0C
0C
0C
0C
0C
0C
0C
0C
0C
0C
F0
F0
ENDCHAR
STARTCHAR LATIN
ENCODING 310
SWIDTH 852 0
DWIDTH 8 0
BBX 8 18 0 -4
BITMAP
C3
C3
C3
C3
CC
CC
F0
F0
CC
CC
C3
C3
C3
C3
0C
0C
30
30
ENDCHAR
STARTCHAR LATIN
ENCODING 311
SWIDTH 852 0
DWIDTH 8 0
BBX 8 18 0 -4
BITMAP
C0
C0
C0
C0
C3
C3
CC
CC
FC
FC
C3
C3
C3
C3
0C
0C
30
30
ENDCHAR
STARTCHAR LATIN
ENCODING 312
SWIDTH 1280 0
DWIDTH 12 0
BBX 8 10 0 0
BITMAP
C3
C3
CC
CC
F0
F0
CC
CC
C3
C3
ENDCHAR
STARTCHAR LATIN
ENCODING 313
SWIDTH 1280 0
DWIDTH 12 0
BBX 10 18 0 0
BITMAP
0300
0300
0C00
0C00
C000
C000
C000
C000
C000
C000
C000
C000
C000
C000
C000
C000
FFC0
FFC0
ENDCHAR
STARTCHAR LATIN
ENCODING 314
SWIDTH 852 0
DWIDTH 8 0
BBX 6 18 4 0
BITMAP
0C
0C
30
30
C0
C0
C0
C0
C0
C0
C0
C0
C0
C0
C0
C0
F0
F0
ENDCHAR
STARTCHAR LATIN
ENCODING 315
SWIDTH 1280 0
DWIDTH 12 0
BBX 10 18 0 -4
BITMAP
C000
C000
C000
C000
C000
C000
C000
C000
C000
C000
C000
C000
FFC0
FFC0
0C00
0C00
3000
3000
ENDCHAR
STARTCHAR LATIN
ENCODING 316
SWIDTH 640 0
DWIDTH 6 0
BBX 4 18 4 -4
BITMAP
C0
C0
C0
C0
C0
C0
C0
C0
C0
C0
C0
C0
F0
F0
30
30
C0
C0
ENDCHAR
STARTCHAR LATIN
ENCODING 317
SWIDTH 1280 0
DWIDTH 12 0
BBX 10 16 0 0
BITMAP
0F00
0F00
C300
C300
C000
C000
C000
C000
C000
C000
C000
C000
C000
C000
FFC0
FFC0
ENDCHAR
STARTCHAR LATIN
ENCODING 318
SWIDTH 852 0
DWIDTH 8 0
BBX 6 18 4 0
BITMAP
3C
3C
0C
0C
C0
C0
C0
C0
C0
C0
C0
C0
C0
C0
C0
C0
30
30
ENDCHAR
STARTCHAR LATIN
ENCODING 319
SWIDTH 1280 0
DWIDTH 12 0
BBX 10 14 0 0
BITMAP
C000
C000
C000
C000
C000
C000
CC00
CC00
C000
C000
C000
C000
FFC0
FFC0
ENDCHAR
STARTCHAR LATIN
ENCODING 320
SWIDTH 852 0
DWIDTH 8 0
BBX 6 14 4 0
BITMAP
C0
C0
C0
C0
C0
C0
CC
CC
C0
C0
C0
C0
F0
F0
ENDCHAR
STARTCHAR LATIN
ENCODING 321
SWIDTH 1280 0
DWIDTH 12 0
BBX 10 14 0 0
BITMAP
C000
C000
C000
C000
CC00
CC00
F000
F000
C000
C000
C000
C000
FFC0
FFC0
ENDCHAR
STARTCHAR LATIN
ENCODING 322
SWIDTH 1280 0
DWIDTH 12 0
BBX 6 14 2 0
BITMAP
30
30
30
30
3C
3C
30
30
F0
F0
30
30
3C
3C
ENDCHAR
STARTCHAR LATIN
ENCODING 323
SWIDTH 1280 0
DWIDTH 12 0
BBX 10 18 0 0
BITMAP
0300
0300
0C00
0C00
C0C0
C0C0
F0C0
F0C0
F0C0
F0C0
CCC0
CCC0
C3C0
C3C0
C3C0
C3C0
C0C0
C0C0
ENDCHAR
STARTCHAR LATIN
ENCODING 324
SWIDTH 1280 0
DWIDTH 12 0
BBX 10 16 0 0
BITMAP
0300
0300
0C00
0C00
0000
0000
FF00
FF00
C0C0
C0C0
C0C0
C0C0
C0C0
C0C0
C0C0
C0C0
ENDCHAR
STARTCHAR LATIN
ENCODING 325
SWIDTH 1280 0
DWIDTH 12 0
BBX 10 18 0 -4
BITMAP
C0C0
C0C0
F0C0
F0C0
F0C0
F0C0
CCC0
CCC0
C3C0
C3C0
C3C0
C3C0
CCC0
CCC0
0C00
0C00
3000
3000
ENDCHAR
STARTCHAR LATIN
ENCODING 326
SWIDTH 1280 0
DWIDTH 12 0
BBX 10 14 0 -4
BITMAP
FF00
FF00
C0C0
C0C0
C0C0
C0C0
C0C0
C0C0
CCC0
CCC0
0C00
0C00
3000
3000
ENDCHAR
STARTCHAR LATIN
ENCODING 327
SWIDTH 1280 0
DWIDTH 12 0
BBX 10 18 0 0
BITMAP
3300
3300
0C00
0C00
C0C0
C0C0
F0C0
F0C0
F0C0
F0C0
CCC0
CCC0
C3C0
C3C0
C3C0
C3C0
C0C0
C0C0
ENDCHAR
STARTCHAR LATIN
ENCODING 328
SWIDTH 1280 0
DWIDTH 12 0
BBX 10 16 0 0
BITMAP
3300
3300
0C00
0C00
0000
0000
FF00
FF00
C0C0
C0C0
C0C0
C0C0
C0C0
C0C0
C0C0
C0C0
ENDCHAR
STARTCHAR LATIN
ENCODING 329
SWIDTH 1280 0
DWIDTH 12 0
BBX 10 16 0 0
BITMAP
C000
C000
C000
C000
0000
0000
FF00
FF00
C0C0
C0C0
C0C0
C0C0
C0C0
C0C0
C0C0
C0C0
ENDCHAR
STARTCHAR LATIN
ENCODING 330
SWIDTH 1280 0
DWIDTH 12 0
BBX 10 18 0 -4
BITMAP
C0C0
C0C0
F0C0
F0C0
F0C0
F0C0
CCC0
CCC0
C3C0
C3C0
C3C0
C3C0
C0C0
C0C0
00C0
00C0
0F00
0F00
ENDCHAR
STARTCHAR LATIN
ENCODING 331
SWIDTH 1280 0
DWIDTH 12 0
BBX 10 14 0 -4
BITMAP
FF00
FF00
C0C0
C0C0
C0C0
C0C0
C0C0
C0C0
C0C0
C0C0
00C0
00C0
0F00
0F00
ENDCHAR
STARTCHAR LATIN
ENCODING 332
SWIDTH 1280 0
DWIDTH 12 0
BBX 10 18 0 0
BITMAP
FFC0
FFC0
0000
0000
3F00
3F00
C0C0
C0C0
C0C0
C0C0
C0C0
C0C0
C0C0
C0C0
C0C0
C0C0
3F00
3F00
ENDCHAR
STARTCHAR LATIN
ENCODING 333
SWIDTH 1280 0
DWIDTH 12 0
BBX 10 14 0 0
BITMAP
FFC0
FFC0
0000
0000
3F00
3F00
C0C0
C0C0
C0C0
C0C0
C0C0
C0C0
3F00
3F00
ENDCHAR
STARTCHAR LATIN
ENCODING 334
SWIDTH 1280 0
DWIDTH 12 0
BBX 10 20 0 0
BITMAP
C0C0
C0C0
3F00
3F00
0000
0000
3F00
3F00
C0C0
C0C0
C0C0
C0C0
C0C0
C0C0
C0C0
C0C0
C0C0
C0C0
3F00
3F00
ENDCHAR
STARTCHAR LATIN
ENCODING 335
SWIDTH 1280 0
DWIDTH 12 0
BBX 10 16 0 0
BITMAP
C0C0
C0C0
3F00
3F00
0000
0000
3F00
3F00
C0C0
C0C0
C0C0
C0C0
C0C0
C0C0
3F00
3F00
ENDCHAR
STARTCHAR LATIN
ENCODING 336
SWIDTH 1280 0
DWIDTH 12 0
BBX 10 18 0 0
BITMAP
0CC0
0CC0
3300
3300
3F00
3F00
C0C0
C0C0
C0C0
C0C0
C0C0
C0C0
C0C0
C0C0
C0C0
C0C0
3F00
3F00
ENDCHAR
STARTCHAR LATIN
ENCODING 337
SWIDTH 1280 0
DWIDTH 12 0
BBX 10 16 0 0
BITMAP
0CC0
0CC0
3300
3300
0000
0000
3F00
3F00
C0C0
C0C0
C0C0
C0C0
C0C0
C0C0
3F00
3F00
ENDCHAR
STARTCHAR LATIN
ENCODING 338
SWIDTH 1280 0
DWIDTH 12 0
BBX 10 14 0 0
BITMAP
3FC0
3FC0
CC00
CC00
CC00
CC00
CF00
CF00
CC00
CC00
CC00
CC00
3FC0
3FC0
ENDCHAR
STARTCHAR LATIN
ENCODING 339
SWIDTH 1280 0
DWIDTH 12 0
BBX 10 10 0 0
BITMAP
3F00
3F00
CCC0
CCC0
CFC0
CFC0
CC00
CC00
33C0
33C0
ENDCHAR
STARTCHAR LATIN
ENCODING 340
SWIDTH 1280 0
DWIDTH 12 0
BBX 10 18 0 0
BITMAP
0300
0300
0C00
0C00
FF00
FF00
C0C0
C0C0
C0C0
C0C0
FF00
FF00
C0C0
C0C0
C0C0
C0C0
C0C0
C0C0
ENDCHAR
STARTCHAR LATIN
ENCODING 341
SWIDTH 1066 0
DWIDTH 10 0
BBX 10 16 0 0
BITMAP
0300
0300
0C00
0C00
0000
0000
3FC0
3FC0
C000
C000
C000
C000
C000
C000
C000
C000
ENDCHAR
STARTCHAR LATIN
ENCODING 342
SWIDTH 1280 0
DWIDTH 12 0
BBX 10 18 0 -4
BITMAP
FF00
FF00
C0C0
C0C0
C0C0
C0C0
FF00
FF00
C0C0
C0C0
C0C0
C0C0
CCC0
CCC0
0C00
0C00
3000
3000
ENDCHAR
STARTCHAR LATIN
ENCODING 343
SWIDTH 1066 0
DWIDTH 10 0
BBX 10 14 0 -4
BITMAP
3FC0
3FC0
C000
C000
C000
C000
C000
C000
CC00
CC00
0C00
0C00
3000
3000
ENDCHAR
STARTCHAR LATIN
ENCODING 344
SWIDTH 1280 0
DWIDTH 12 0
BBX 10 18 0 0
BITMAP
3300
3300
0C00
0C00
FF00
FF00
C0C0
C0C0
C0C0
C0C0
FF00
FF00
C0C0
C0C0
C0C0
C0C0
C0C0
C0C0
ENDCHAR
STARTCHAR LATIN
ENCODING 345
SWIDTH 1066 0
DWIDTH 10 0
BBX 10 16 0 0
BITMAP
3300
3300
0C00
0C00
0000
0000
3FC0
3FC0
C000
C000
C000
C000
C000
C000
C000
C000
ENDCHAR
STARTCHAR LATIN
ENCODING 346
SWIDTH 1280 0
DWIDTH 12 0
BBX 10 18 0 0
BITMAP
0300
0300
0C00
0C00
3FC0
3FC0
C000
C000
C000
C000
3F00
3F00
00C0
00C0
00C0
00C0
FF00
FF00
ENDCHAR
STARTCHAR LATIN
ENCODING 347
SWIDTH 1280 0
DWIDTH 12 0
BBX 10 16 0 0
BITMAP
0300
0300
0C00
0C00
0000
0000
3FC0
3FC0
C000
C000
3F00
3F00
00C0
00C0
FF00
FF00
ENDCHAR
STARTCHAR LATIN
ENCODING 348
SWIDTH 1280 0
DWIDTH 12 0
BBX 10 18 0 0
BITMAP
0C00
0C00
3300
3300
3FC0
3FC0
C000
C000
C000
C000
3F00
3F00
00C0
00C0
00C0
00C0
FF00
FF00
ENDCHAR
STARTCHAR LATIN
ENCODING 349
SWIDTH 1280 0
DWIDTH 12 0
BBX 10 16 0 0
BITMAP
0C00
0C00
3300
3300
0000
0000
3FC0
3FC0
C000
C000
3F00
3F00
00C0
00C0
FF00
FF00
ENDCHAR
STARTCHAR LATIN
ENCODING 350
SWIDTH 1280 0
DWIDTH 12 0
BBX 10 18 0 -4
BITMAP
3FC0
3FC0
C000
C000
C000
C000
3F00
3F00
00C0
00C0
00C0
00C0
FF00
FF00
0C00
0C00
0C00
0C00
ENDCHAR
STARTCHAR LATIN
ENCODING 351
SWIDTH 1280 0
DWIDTH 12 0
BBX 10 14 0 -4
BITMAP
3FC0
3FC0
C000
C000
3F00
3F00
00C0
00C0
FF00
FF00
0C00
0C00
0C00
0C00
ENDCHAR
STARTCHAR LATIN
ENCODING 352
SWIDTH 1280 0
DWIDTH 12 0
BBX 10 18 0 0
BITMAP
3300
3300
0C00
0C00
3FC0
3FC0
C000
C000
C000
C000
3F00
3F00
00C0
00C0
00C0
00C0
FF00
FF00
ENDCHAR
STARTCHAR LATIN
ENCODING 353
SWIDTH 1280 0
DWIDTH 12 0
BBX 10 16 0 0
BITMAP
3300
3300
0C00
0C00
0000
0000
3FC0
3FC0
C000
C000
3F00
3F00
00C0
00C0
FF00
FF00
ENDCHAR
STARTCHAR LATIN
ENCODING 354
SWIDTH 1280 0
DWIDTH 12 0
BBX 10 18 0 -4
BITMAP
FFC0
FFC0
0C00
0C00
0C00
0C00
0C00
0C00
0C00
0C00
0C00
0C00
0C00
0C00
0C00
0C00
3000
3000
ENDCHAR
STARTCHAR LATIN
ENCODING 355
SWIDTH 1280 0
DWIDTH 12 0
BBX 8 16 2 -4
BITMAP
30
30
FF
FF
30
30
30
30
30
30
0F
0F
0C
0C
0C
0C
ENDCHAR
STARTCHAR LATIN
ENCODING 356
SWIDTH 1280 0
DWIDTH 12 0
BBX 10 18 0 0
BITMAP
3300
3300
0C00
0C00
FFC0
FFC0
0C00
0C00
0C00
0C00
0C00
0C00
0C00
0C00
0C00
0C00
0C00
0C00
ENDCHAR
STARTCHAR LATIN
ENCODING 357
SWIDTH 1280 0
DWIDTH 12 0
BBX 10 18 0 0
BITMAP
03C0
03C0
00C0
00C0
0000
0000
3000
3000
FF00
FF00
3000
3000
3000
3000
3000
3000
0F00
0F00
ENDCHAR
STARTCHAR LATIN
ENCODING 358
SWIDTH 1280 0
DWIDTH 12 0
BBX 10 14 0 0
BITMAP
FFC0
FFC0
0C00
0C00
0C00
0C00
FFC0
FFC0
0C00
0C00
0C00
0C00
0C00
0C00
ENDCHAR
STARTCHAR LATIN
ENCODING 359
SWIDTH 1280 0
DWIDTH 12 0
BBX 8 12 0 0
BITMAP
30
30
FF
FF
30
30
FC
FC
30
30
0F
0F
ENDCHAR
STARTCHAR LATIN
ENCODING 360
SWIDTH 1280 0
DWIDTH 12 0
BBX 10 20 0 0
BITMAP
3CC0
3CC0
CF00
CF00
0000
0000
C0C0
C0C0
C0C0
C0C0
C0C0
C0C0
C0C0
C0C0
C0C0
C0C0
C0C0
C0C0
3FC0
3FC0
ENDCHAR
STARTCHAR LATIN
ENCODING 361
SWIDTH 1280 0
DWIDTH 12 0
BBX 10 16 0 0
BITMAP
3CC0
3CC0
CF00
CF00
0000
0000
C0C0
C0C0
C0C0
C0C0
C0C0
C0C0
C0C0
C0C0
3FC0
3FC0
ENDCHAR
STARTCHAR LATIN
ENCODING 362
SWIDTH 1280 0
DWIDTH 12 0
BBX 10 18 0 0
BITMAP
FFC0
FFC0
0000
0000
C0C0
C0C0
C0C0
C0C0
C0C0
C0C0
C0C0
C0C0
C0C0
C0C0
C0C0
C0C0
3FC0
3FC0
ENDCHAR
STARTCHAR LATIN
ENCODING 363
SWIDTH 1280 0
DWIDTH 12 0
BBX 10 14 0 0
BITMAP
FFC0
FFC0
0000
0000
C0C0
C0C0
C0C0
C0C0
C0C0
C0C0
C0C0
C0C0
3FC0
3FC0
ENDCHAR
STARTCHAR LATIN
ENCODING 364
SWIDTH 1280 0
DWIDTH 12 0
BBX 10 20 0 0
BITMAP
C0C0
C0C0
3F00
3F00
0000
0000
C0C0
C0C0
C0C0
C0C0
C0C0
C0C0
C0C0
C0C0
C0C0
C0C0
C0C0
C0C0
3FC0
3FC0
ENDCHAR
STARTCHAR LATIN
ENCODING 365
SWIDTH 1280 0
DWIDTH 12 0
BBX 10 16 0 0
BITMAP
C0C0
C0C0
3F00
3F00
0000
0000
C0C0
C0C0
C0C0
C0C0
C0C0
C0C0
C0C0
C0C0
3FC0
3FC0
ENDCHAR
STARTCHAR LATIN
ENCODING 366
SWIDTH 1280 0
DWIDTH 12 0
BBX 10 18 0 0
BITMAP
0C00
0C00
3300
3300
CCC0
CCC0
C0C0
C0C0
C0C0
C0C0
C0C0
C0C0
C0C0
C0C0
C0C0
C0C0
3FC0
3FC0
ENDCHAR
STARTCHAR LATIN
ENCODING 367
SWIDTH 1280 0
DWIDTH 12 0
BBX 10 16 0 0
BITMAP
0C00
0C00
3300
3300
0C00
0C00
C0C0
C0C0
C0C0
C0C0
C0C0
C0C0
C0C0
C0C0
3FC0
3FC0
ENDCHAR
STARTCHAR LATIN
ENCODING 368
SWIDTH 1280 0
DWIDTH 12 0
BBX 10 18 0 0
BITMAP
0CC0
0CC0
3300
3300
0000
0000
C0C0
C0C0
C0C0
C0C0
C0C0
C0C0
C0C0
C0C0
C0C0
C0C0
3FC0
3FC0
ENDCHAR
STARTCHAR LATIN
ENCODING 369
SWIDTH 1280 0
DWIDTH 12 0
BBX 10 16 0 0
BITMAP
0CC0
0CC0
3300
3300
0000
0000
C0C0
C0C0
C0C0
C0C0
C0C0
C0C0
C0C0
C0C0
3FC0
3FC0
ENDCHAR
STARTCHAR LATIN
ENCODING 370
SWIDTH 1280 0
DWIDTH 12 0
BBX 10 18 0 -4
BITMAP
C0C0
C0C0
C0C0
C0C0
C0C0
C0C0
C0C0
C0C0
C0C0
C0C0
C0C0
C0C0
3FC0
3FC0
0C00
0C00
0300
0300
ENDCHAR
STARTCHAR LATIN
ENCODING 371
SWIDTH 1280 0
DWIDTH 12 0
BBX 10 14 0 -4
BITMAP
C0C0
C0C0
C0C0
C0C0
C0C0
C0C0
C0C0
C0C0
3FC0
3FC0
0C00
0C00
0300
0300
ENDCHAR
STARTCHAR LATIN
ENCODING 372
SWIDTH 1280 0
DWIDTH 12 0
BBX 10 18 0 0
BITMAP
0C00
0C00
3300
3300
0000
0000
C0C0
C0C0
C0C0
C0C0
CCC0
CCC0
CCC0
CCC0
F3C0
F3C0
C0C0
C0C0
ENDCHAR
STARTCHAR LATIN
ENCODING 373
SWIDTH 1280 0
DWIDTH 12 0
BBX 10 16 0 0
BITMAP
0C00
0C00
3300
3300
0000
0000
C0C0
C0C0
C0C0
C0C0
C0C0
C0C0
FFC0
FFC0
C0C0
C0C0
ENDCHAR
STARTCHAR LATIN
ENCODING 374
SWIDTH 1280 0
DWIDTH 12 0
BBX 10 18 0 0
BITMAP
0C00
0C00
3300
3300
0000
0000
C0C0
C0C0
C0C0
C0C0
3300
3300
0C00
0C00
0C00
0C00
0C00
0C00
ENDCHAR
STARTCHAR LATIN
ENCODING 375
SWIDTH 1280 0
DWIDTH 12 0
BBX 10 20 0 -4
BITMAP
0C00
0C00
3300
3300
0000
0000
C0C0
C0C0
C0C0
C0C0
3300
3300
3300
3300
0C00
0C00
0C00
0C00
F000
F000
ENDCHAR
STARTCHAR LATIN
ENCODING 376
SWIDTH 1280 0
DWIDTH 12 0
BBX 10 18 0 0
BITMAP
3300
3300
0000
0000
C0C0
C0C0
C0C0
C0C0
C0C0
C0C0
3300
3300
0C00
0C00
0C00
0C00
0C00
0C00
ENDCHAR
STARTCHAR LATIN
ENCODING 377
SWIDTH 1280 0
DWIDTH 12 0
BBX 10 18 0 0
BITMAP
0300
0300
0C00
0C00
FFC0
FFC0
00C0
00C0
0300
0300
0C00
0C00
3000
3000
C000
C000
FFC0
FFC0
ENDCHAR
STARTCHAR LATIN
ENCODING 378
SWIDTH 1280 0
DWIDTH 12 0
BBX 10 16 0 0
BITMAP
0300
0300
0C00
0C00
0000
0000
FFC0
FFC0
0300
0300
0C00
0C00
3000
3000
FFC0
FFC0
ENDCHAR
STARTCHAR LATIN
ENCODING 379
SWIDTH 1280 0
DWIDTH 12 0
BBX 10 18 0 0
BITMAP
0C00
0C00
0000
0000
FFC0
FFC0
00C0
00C0
0300
0300
0C00
0C00
3000
3000
C000
C000
FFC0
FFC0
ENDCHAR
STARTCHAR LATIN
ENCODING 380
SWIDTH 1280 0
DWIDTH 12 0
BBX 10 14 0 0
BITMAP
0C00
0C00
0000
0000
FFC0
FFC0
0300
0300
0C00
0C00
3000
3000
FFC0
FFC0
ENDCHAR
STARTCHAR LATIN
ENCODING 381
SWIDTH 1280 0
DWIDTH 12 0
BBX 10 18 0 0
BITMAP
3300
3300
0C00
0C00
FFC0
FFC0
00C0
00C0
0300
0300
0C00
0C00
3000
3000
C000
C000
FFC0
FFC0
ENDCHAR
STARTCHAR LATIN
ENCODING 382
SWIDTH 1280 0
DWIDTH 12 0
BBX 10 16 0 0
BITMAP
3300
3300
0C00
0C00
0000
0000
FFC0
FFC0
0300
0300
0C00
0C00
3000
3000
FFC0
FFC0
ENDCHAR
STARTCHAR LATIN
ENCODING 383
SWIDTH 1280 0
DWIDTH 12 0
BBX 8 14 2 0
BITMAP
0F
0F
30
30
F0
F0
30
30
30
30
30
30
30
30
ENDCHAR
STARTCHAR LATIN
ENCODING 384
SWIDTH 1280 0
DWIDTH 12 0
BBX 12 14 -2 0
BITMAP
FF00
FF00
3000
3000
3FC0
3FC0
3030
3030
3030
3030
3030
3030
3FC0
3FC0
ENDCHAR
STARTCHAR LATIN
ENCODING 385
SWIDTH 1280 0
DWIDTH 12 0
BBX 12 14 -2 0
BITMAP
FFC0
FFC0
3030
3030
3030
3030
3FC0
3FC0
3030
3030
3030
3030
3FC0
3FC0
ENDCHAR
STARTCHAR LATIN
ENCODING 386
SWIDTH 1280 0
DWIDTH 12 0
BBX 12 16 0 0
BITMAP
FFC0
FFC0
C0C0
C0C0
C000
C000
FFC0
FFC0
C030
C030
C030
C030
C030
C030
FFC0
FFC0
ENDCHAR
STARTCHAR LATIN
ENCODING 387
SWIDTH 1280 0
DWIDTH 12 0
BBX 10 16 0 0
BITMAP
FF00
FF00
C300
C300
C000
C000
FF00
FF00
C0C0
C0C0
C0C0
C0C0
C0C0
C0C0
FF00
FF00
ENDCHAR
STARTCHAR LATIN
ENCODING 388
SWIDTH 1280 0
DWIDTH 12 0
BBX 16 16 -4 0
BITMAP
3C00
3C00
FC00
FC00
3C00
3C00
0FFC
0FFC
0C03
0C03
0C03
0C03
0C03
0C03
0FFC
0FFC
ENDCHAR
STARTCHAR LATIN
ENCODING 389
SWIDTH 1280 0
DWIDTH 12 0
BBX 14 16 -4 0
BITMAP
3C00
3C00
FC00
FC00
3C00
3C00
0FF0
0FF0
0C0C
0C0C
0C0C
0C0C
0C0C
0C0C
0FF0
0FF0
ENDCHAR
STARTCHAR LATIN
ENCODING 390
SWIDTH 1280 0
DWIDTH 12 0
BBX 10 14 0 0
BITMAP
FF00
FF00
00C0
00C0
00C0
00C0
00C0
00C0
00C0
00C0
00C0
00C0
FF00
FF00
ENDCHAR
STARTCHAR LATIN
ENCODING 391
SWIDTH 1280 0
DWIDTH 12 0
BBX 12 16 0 0
BITMAP
0030
0030
3FC0
3FC0
C000
C000
C000
C000
C000
C000
C000
C000
C000
C000
3FC0
3FC0
ENDCHAR
STARTCHAR LATIN
ENCODING 392
SWIDTH 1280 0
DWIDTH 12 0
BBX 12 18 0 0
BITMAP
00F0
00F0
00F0
00F0
0030
0030
00C0
00C0
3FC0
3FC0
C000
C000
C000
C000
C000
C000
3FC0
3FC0
ENDCHAR
STARTCHAR LATIN
ENCODING 393
SWIDTH 1280 0
DWIDTH 12 0
BBX 12 14 -2 0
BITMAP
3FC0
3FC0
3030
3030
3030
3030
FF30
FF30
3030
3030
3030
3030
3FC0
3FC0
ENDCHAR
STARTCHAR LATIN
ENCODING 394
SWIDTH 1280 0
DWIDTH 12 0
BBX 14 14 -4 0
BITMAP
3FF0
3FF0
CC0C
CC0C
0C0C
0C0C
0C0C
0C0C
0C0C
0C0C
0C0C
0C0C
0FF0
0FF0
ENDCHAR
STARTCHAR LATIN
ENCODING 395
SWIDTH 1280 0
DWIDTH 12 0
BBX 12 16 0 0
BITMAP
3FF0
3FF0
3030
3030
0030
0030
3FF0
3FF0
C030
C030
C030
C030
C030
C030
3FF0
3FF0
ENDCHAR
STARTCHAR LATIN
ENCODING 396
SWIDTH 1280 0
DWIDTH 12 0
BBX 10 16 0 0
BITMAP
3FC0
3FC0
30C0
30C0
00C0
00C0
3FC0
3FC0
C0C0
C0C0
C0C0
C0C0
C0C0
C0C0
3FC0
3FC0
ENDCHAR
STARTCHAR LATIN
ENCODING 398
SWIDTH 1280 0
DWIDTH 12 0
BBX 12 14 -2 0
BITMAP
3FF0
3FF0
3030
3030
C030
C030
0FF0
0FF0
0030
0030
0030
0030
3FF0
3FF0
ENDCHAR
STARTCHAR LATIN
ENCODING 399
SWIDTH 1280 0
DWIDTH 12 0
BBX 10 12 0 0
BITMAP
3F00
3F00
00C0
00C0
FFC0
FFC0
C0C0
C0C0
C0C0
C0C0
3F00
3F00
ENDCHAR
STARTCHAR LATIN
ENCODING 400
SWIDTH 1280 0
DWIDTH 12 0
BBX 10 14 0 0
BITMAP
3F00
3F00
C0C0
C0C0
C000
C000
3F00
3F00
C000
C000
C0C0
C0C0
3F00
3F00
ENDCHAR
STARTCHAR LATIN
ENCODING 402
SWIDTH 1280 0
DWIDTH 12 0
BBX 10 20 0 -2
BITMAP
03C0
03C0
0C00
0C00
0C00
0C00
0C00
0C00
3F00
3F00
0C00
0C00
0C00
0C00
0C00
0C00
0C00
0C00
F000
F000
ENDCHAR
STARTCHAR LATIN
ENCODING 403
SWIDTH 1280 0
DWIDTH 12 0
BBX 14 14 0 0
BITMAP
3F3C
3F3C
C0CC
C0CC
C000
C000
CFC0
CFC0
C0C0
C0C0
C0C0
C0C0
3FC0
3FC0
ENDCHAR
STARTCHAR LATIN
ENCODING 407
SWIDTH 1280 0
DWIDTH 12 0
BBX 6 14 2 0
BITMAP
FC
FC
30
30
30
30
FC
FC
30
30
30
30
FC
FC
ENDCHAR
STARTCHAR LATIN
ENCODING 410
SWIDTH 1280 0
DWIDTH 12 0
BBX 6 14 2 0
BITMAP
F0
F0
30
30
30
30
FC
FC
30
30
30
30
3C
3C
ENDCHAR
STARTCHAR LATIN
ENCODING 414
SWIDTH 1280 0
DWIDTH 12 0
BBX 10 16 0 -6
BITMAP
CF00
CF00
F0C0
F0C0
C0C0
C0C0
C0C0
C0C0
C0C0
C0C0
00C0
00C0
00C0
00C0
0300
0300
ENDCHAR
STARTCHAR LATIN
ENCODING 415
SWIDTH 1280 0
DWIDTH 12 0
BBX 10 10 0 2
BITMAP
3F00
3F00
C0C0
C0C0
FFC0
FFC0
C0C0
C0C0
3F00
3F00
ENDCHAR
STARTCHAR LATIN
ENCODING 416
SWIDTH 1280 0
DWIDTH 12 0
BBX 12 20 0 0
BITMAP
00F0
00F0
00F0
00F0
0030
0030
3FC0
3FC0
C0C0
C0C0
C0C0
C0C0
C0C0
C0C0
C0C0
C0C0
C0C0
C0C0
3F00
3F00
ENDCHAR
STARTCHAR LATIN
ENCODING 417
SWIDTH 1280 0
DWIDTH 12 0
BBX 12 18 0 0
BITMAP
00F0
00F0
00F0
00F0
0030
0030
00C0
00C0
3F00
3F00
C0C0
C0C0
C0C0
C0C0
C0C0
C0C0
3F00
3F00
ENDCHAR
STARTCHAR LATIN
ENCODING 418
SWIDTH 1280 0
DWIDTH 12 0
BBX 14 14 0 0
BITMAP
3F30
3F30
C0CC
C0CC
C0CC
C0CC
C0CC
C0CC
C0CC
C0CC
C0CC
C0CC
3F0C
3F0C
ENDCHAR
STARTCHAR LATIN
ENCODING 419
SWIDTH 1280 0
DWIDTH 12 0
BBX 14 10 0 0
BITMAP
3F30
3F30
C0CC
C0CC
C0CC
C0CC
C0CC
C0CC
3F0C
3F0C
ENDCHAR
STARTCHAR LATIN
ENCODING 420
SWIDTH 1280 0
DWIDTH 12 0
BBX 14 14 -4 0
BITMAP
FFF0
FFF0
CC0C
CC0C
0C0C
0C0C
0FF0
0FF0
0C00
0C00
0C00
0C00
0C00
0C00
ENDCHAR
STARTCHAR LATIN
ENCODING 421
SWIDTH 1280 0
DWIDTH 12 0
BBX 14 18 0 -4
BITMAP
003C
003C
00CC
00CC
FF00
FF00
C0C0
C0C0
C0C0
C0C0
C0C0
C0C0
FF00
FF00
C000
C000
C000
C000
ENDCHAR
STARTCHAR LATIN
ENCODING 423
SWIDTH 1280 0
DWIDTH 12 0
BBX 10 14 0 0
BITMAP
FF00
FF00
00C0
00C0
00C0
00C0
3F00
3F00
C000
C000
C000
C000
3FC0
3FC0
ENDCHAR
STARTCHAR LATIN
ENCODING 424
SWIDTH 1280 0
DWIDTH 12 0
BBX 10 10 0 0
BITMAP
FF00
FF00
00C0
00C0
3F00
3F00
C000
C000
3FC0
3FC0
ENDCHAR
STARTCHAR LATIN
ENCODING 425
SWIDTH 1280 0
DWIDTH 12 0
BBX 10 14 0 0
BITMAP
FFC0
FFC0
C0C0
C0C0
3000
3000
0C00
0C00
3000
3000
C0C0
C0C0
FFC0
FFC0
ENDCHAR
STARTCHAR LATIN
ENCODING 427
SWIDTH 1280 0
DWIDTH 12 0
BBX 10 18 2 -4
BITMAP
3000
3000
3000
3000
FF00
FF00
3000
3000
3000
3000
3000
3000
0F00
0F00
00C0
00C0
0300
0300
ENDCHAR
STARTCHAR LATIN
ENCODING 428
SWIDTH 1280 0
DWIDTH 12 0
BBX 10 14 0 0
BITMAP
FFC0
FFC0
0CC0
0CC0
0C00
0C00
0C00
0C00
0C00
0C00
0C00
0C00
0C00
0C00
ENDCHAR
STARTCHAR LATIN
ENCODING 430
SWIDTH 1280 0
DWIDTH 12 0
BBX 10 14 0 0
BITMAP
FFC0
FFC0
CCC0
CCC0
0C00
0C00
0C00
0C00
0C00
0C00
0C00
0C00
0C00
0C00
ENDCHAR
STARTCHAR LATIN
ENCODING 471
SWIDTH 1280 0
DWIDTH 12 0
BBX 10 18 0 0
BITMAP
3300
3300
0000
0000
C0C0
C0C0
C0C0
C0C0
C0C0
C0C0
C0C0
C0C0
C0C0
C0C0
C0C0
C0C0
3FC0
3FC0
ENDCHAR
STARTCHAR LATIN
ENCODING 473
SWIDTH 1280 0
DWIDTH 12 0
BBX 10 24 0 0
BITMAP
3300
3300
0C00
0C00
0000
0000
3300
3300
0000
0000
C0C0
C0C0
C0C0
C0C0
C0C0
C0C0
C0C0
C0C0
C0C0
C0C0
C0C0
C0C0
3FC0
3FC0
ENDCHAR
STARTCHAR LATIN
ENCODING 475
SWIDTH 1280 0
DWIDTH 12 0
BBX 10 24 0 0
BITMAP
0C00
0C00
0300
0300
0000
0000
3300
3300
0000
0000
C0C0
C0C0
C0C0
C0C0
C0C0
C0C0
C0C0
C0C0
C0C0
C0C0
C0C0
C0C0
3FC0
3FC0
ENDCHAR
STARTCHAR LATIN
ENCODING 478
SWIDTH 1280 0
DWIDTH 12 0
BBX 10 22 0 0
BITMAP
3F00
3F00
0000
0000
3300
3300
0000
0000
3F00
3F00
C0C0
C0C0
C0C0
C0C0
FFC0
FFC0
C0C0
C0C0
C0C0
C0C0
C0C0
C0C0
ENDCHAR
STARTCHAR LATIN
ENCODING 480
SWIDTH 1280 0
DWIDTH 12 0
BBX 10 22 0 0
BITMAP
3F00
3F00
0000
0000
3000
3000
0000
0000
3F00
3F00
C0C0
C0C0
C0C0
C0C0
FFC0
FFC0
C0C0
C0C0
C0C0
C0C0
C0C0
C0C0
ENDCHAR
STARTCHAR LATIN
ENCODING 592
SWIDTH 1066 0
DWIDTH 10 0
BBX 10 10 0 0
BITMAP
CF00
CF00
F0C0
F0C0
C0C0
C0C0
C0C0
C0C0
FF00
FF00
ENDCHAR
STARTCHAR LATIN
ENCODING 593
SWIDTH 1066 0
DWIDTH 10 0
BBX 10 10 0 0
BITMAP
3CC0
3CC0
C3C0
C3C0
C0C0
C0C0
C3C0
C3C0
3CC0
3CC0
ENDCHAR
STARTCHAR LATIN
ENCODING 594
SWIDTH 1066 0
DWIDTH 10 0
BBX 10 10 0 0
BITMAP
CF00
CF00
F0C0
F0C0
C0C0
C0C0
F0C0
F0C0
CF00
CF00
ENDCHAR
STARTCHAR LATIN
ENCODING 595
SWIDTH 1066 0
DWIDTH 10 0
BBX 10 16 0 0
BITMAP
3C00
3C00
C000
C000
C000
C000
FF00
FF00
C0C0
C0C0
C0C0
C0C0
C0C0
C0C0
FF00
FF00
ENDCHAR
STARTCHAR LATIN
ENCODING 596
SWIDTH 1066 0
DWIDTH 10 0
BBX 10 10 0 0
BITMAP
3F00
3F00
C0C0
C0C0
00C0
00C0
C0C0
C0C0
3F00
3F00
ENDCHAR
STARTCHAR LATIN
ENCODING 597
SWIDTH 1066 0
DWIDTH 10 0
BBX 10 10 0 0
BITMAP
3F00
3F00
C0C0
C0C0
C300
C300
CCC0
CCC0
3F00
3F00
ENDCHAR
STARTCHAR LATIN
ENCODING 598
SWIDTH 1280 0
DWIDTH 12 0
BBX 12 18 0 -4
BITMAP
00C0
00C0
00C0
00C0
3FC0
3FC0
C0C0
C0C0
C0C0
C0C0
C0C0
C0C0
3FC0
3FC0
00C0
00C0
0030
0030
ENDCHAR
STARTCHAR LATIN
ENCODING 599
SWIDTH 1280 0
DWIDTH 12 0
BBX 12 16 0 0
BITMAP
0030
0030
00C0
00C0
00C0
00C0
3FC0
3FC0
C0C0
C0C0
C0C0
C0C0
C0C0
C0C0
3FC0
3FC0
ENDCHAR
STARTCHAR LATIN
ENCODING 600
SWIDTH 1066 0
DWIDTH 10 0
BBX 10 10 0 0
BITMAP
3F00
3F00
C0C0
C0C0
FFC0
FFC0
00C0
00C0
3F00
3F00
ENDCHAR
STARTCHAR LATIN
ENCODING 601
SWIDTH 1066 0
DWIDTH 10 0
BBX 10 10 0 0
BITMAP
3F00
3F00
00C0
00C0
FFC0
FFC0
C0C0
C0C0
3F00
3F00
ENDCHAR
STARTCHAR LATIN
ENCODING 602
SWIDTH 1280 0
DWIDTH 12 0
BBX 12 10 0 0
BITMAP
3F30
3F30
00C0
00C0
FFC0
FFC0
C0C0
C0C0
3F00
3F00
ENDCHAR
STARTCHAR LATIN
ENCODING 603
SWIDTH 1066 0
DWIDTH 10 0
BBX 10 14 0 0
BITMAP
3FC0
3FC0
C000
C000
C000
C000
3C00
3C00
C000
C000
C000
C000
3FC0
3FC0
ENDCHAR
STARTCHAR LATIN
ENCODING 604
SWIDTH 1066 0
DWIDTH 10 0
BBX 10 14 0 0
BITMAP
FF00
FF00
00C0
00C0
00C0
00C0
0F00
0F00
00C0
00C0
00C0
00C0
FF00
FF00
ENDCHAR
STARTCHAR LATIN
ENCODING 605
SWIDTH 1280 0
DWIDTH 12 0
BBX 12 14 0 0
BITMAP
FF30
FF30
00C0
00C0
00C0
00C0
0F00
0F00
00C0
00C0
00C0
00C0
FF00
FF00
ENDCHAR
STARTCHAR LATIN
ENCODING 606
SWIDTH 1066 0
DWIDTH 10 0
BBX 10 14 0 0
BITMAP
3F00
3F00
C0C0
C0C0
C0C0
C0C0
CF00
CF00
C0C0
C0C0
C0C0
C0C0
3F00
3F00
ENDCHAR
STARTCHAR LATIN
ENCODING 607
SWIDTH 852 0
DWIDTH 8 0
BBX 8 14 0 -4
BITMAP
3C
3C
0C
0C
0C
0C
3F
3F
0C
0C
0C
0C
F0
F0
ENDCHAR
STARTCHAR LATIN
ENCODING 608
SWIDTH 1280 0
DWIDTH 12 0
BBX 12 16 0 -4
BITMAP
0030
0030
3FC0
3FC0
C0C0
C0C0
C0C0
C0C0
C0C0
C0C0
3FC0
3FC0
00C0
00C0
3F00
3F00
ENDCHAR
STARTCHAR LATIN
ENCODING 609
SWIDTH 1280 0
DWIDTH 12 0
BBX 10 14 0 -4
BITMAP
3FC0
3FC0
C0C0
C0C0
C0C0
C0C0
C0C0
C0C0
3FC0
3FC0
00C0
00C0
3F00
3F00
ENDCHAR
STARTCHAR LATIN
ENCODING 610
SWIDTH 1066 0
DWIDTH 10 0
BBX 10 10 0 0
BITMAP
3FC0
3FC0
C000
C000
C3C0
C3C0
C0C0
C0C0
3FC0
3FC0
ENDCHAR
STARTCHAR LATIN
ENCODING 611
SWIDTH 1066 0
DWIDTH 10 0
BBX 10 14 0 -4
BITMAP
C0C0
C0C0
C0C0
C0C0
3300
3300
3300
3300
0C00
0C00
3300
3300
0C00
0C00
ENDCHAR
STARTCHAR LATIN
ENCODING 612
SWIDTH 1066 0
DWIDTH 10 0
BBX 10 12 0 -2
BITMAP
C0C0
C0C0
3300
3300
3300
3300
0C00
0C00
3300
3300
0C00
0C00
ENDCHAR
STARTCHAR LATIN
ENCODING 613
SWIDTH 1066 0
DWIDTH 10 0
BBX 10 14 0 0
BITMAP
C0C0
C0C0
C0C0
C0C0
C0C0
C0C0
C0C0
C0C0
3FC0
3FC0
00C0
00C0
00C0
00C0
ENDCHAR
STARTCHAR LATIN
ENCODING 614
SWIDTH 1066 0
DWIDTH 10 0
BBX 10 16 0 0
BITMAP
3C00
3C00
C000
C000
C000
C000
FF00
FF00
C0C0
C0C0
C0C0
C0C0
C0C0
C0C0
C0C0
C0C0
ENDCHAR
STARTCHAR LATIN
ENCODING 615
SWIDTH 1066 0
DWIDTH 10 0
BBX 10 20 0 -4
BITMAP
3C00
3C00
C000
C000
C000
C000
FF00
FF00
C0C0
C0C0
C0C0
C0C0
C0C0
C0C0
C0C0
C0C0
00C0
00C0
0300
0300
ENDCHAR
STARTCHAR LATIN
ENCODING 616
SWIDTH 852 0
DWIDTH 8 0
BBX 6 14 2 0
BITMAP
30
30
00
00
30
30
30
30
FC
FC
30
30
30
30
ENDCHAR
STARTCHAR LATIN
ENCODING 617
SWIDTH 852 0
DWIDTH 8 0
BBX 4 10 4 0
BITMAP
C0
C0
C0
C0
C0
C0
C0
C0
30
30
ENDCHAR
STARTCHAR LATIN
ENCODING 618
SWIDTH 852 0
DWIDTH 8 0
BBX 6 10 2 0
BITMAP
FC
FC
30
30
30
30
30
30
FC
FC
ENDCHAR
STARTCHAR LATIN
ENCODING 619
SWIDTH 1066 0
DWIDTH 10 0
BBX 10 14 0 0
BITMAP
0C00
0C00
0C00
0C00
0C00
0C00
3CC0
3CC0
CF00
CF00
0C00
0C00
0C00
0C00
ENDCHAR
STARTCHAR LATIN
ENCODING 620
SWIDTH 852 0
DWIDTH 8 0
BBX 8 14 0 0
BITMAP
0C
0C
0C
0C
3C
3C
CC
CC
3F
3F
0C
0C
0C
0C
ENDCHAR
STARTCHAR LATIN
ENCODING 621
SWIDTH 852 0
DWIDTH 8 0
BBX 4 14 4 0
BITMAP
C0
C0
C0
C0
C0
C0
C0
C0
C0
C0
C0
C0
30
30
ENDCHAR
STARTCHAR LATIN
ENCODING 622
SWIDTH 1066 0
DWIDTH 10 0
BBX 10 16 0 -2
BITMAP
C000
C000
FFC0
FFC0
C0C0
C0C0
C300
C300
CF00
CF00
C0C0
C0C0
30C0
30C0
0F00
0F00
ENDCHAR
STARTCHAR LATIN
ENCODING 623
SWIDTH 1066 0
DWIDTH 10 0
BBX 10 10 0 0
BITMAP
CCC0
CCC0
CCC0
CCC0
CCC0
CCC0
CCC0
CCC0
3FC0
3FC0
ENDCHAR
STARTCHAR LATIN
ENCODING 624
SWIDTH 1066 0
DWIDTH 10 0
BBX 10 14 0 -4
BITMAP
CCC0
CCC0
CCC0
CCC0
CCC0
CCC0
CCC0
CCC0
33C0
33C0
00C0
00C0
00C0
00C0
ENDCHAR
STARTCHAR LATIN
ENCODING 625
SWIDTH 1066 0
DWIDTH 10 0
BBX 10 14 0 -4
BITMAP
F300
F300
CCC0
CCC0
CCC0
CCC0
CCC0
CCC0
CCC0
CCC0
00C0
00C0
0300
0300
ENDCHAR
STARTCHAR LATIN
ENCODING 626
SWIDTH 1066 0
DWIDTH 10 0
BBX 10 14 0 -4
BITMAP
3300
3300
3CC0
3CC0
30C0
30C0
30C0
30C0
30C0
30C0
3000
3000
C000
C000
ENDCHAR
STARTCHAR LATIN
ENCODING 627
SWIDTH 1066 0
DWIDTH 10 0
BBX 10 14 0 -4
BITMAP
CC00
CC00
F300
F300
C300
C300
C300
C300
C300
C300
0300
0300
00C0
00C0
ENDCHAR
STARTCHAR LATIN
ENCODING 628
SWIDTH 1066 0
DWIDTH 10 0
BBX 10 10 0 0
BITMAP
F0C0
F0C0
F0C0
F0C0
CCC0
CCC0
C3C0
C3C0
C3C0
C3C0
ENDCHAR
STARTCHAR LATIN
ENCODING 629
SWIDTH 1066 0
DWIDTH 10 0
BBX 10 10 0 0
BITMAP
3F00
3F00
C0C0
C0C0
FFC0
FFC0
C0C0
C0C0
3F00
3F00
ENDCHAR
STARTCHAR LATIN
ENCODING 630
SWIDTH 1066 0
DWIDTH 10 0
BBX 10 10 0 0
BITMAP
3FC0
3FC0
CC00
CC00
CFC0
CFC0
CC00
CC00
3FC0
3FC0
ENDCHAR
STARTCHAR LATIN
ENCODING 631
SWIDTH 1066 0
DWIDTH 10 0
BBX 10 10 0 0
BITMAP
3F00
3F00
C0C0
C0C0
CCC0
CCC0
CCC0
CCC0
F3C0
F3C0
ENDCHAR
STARTCHAR LATIN
ENCODING 632
SWIDTH 1066 0
DWIDTH 10 0
BBX 10 18 0 -4
BITMAP
0C00
0C00
0C00
0C00
3F00
3F00
CCC0
CCC0
CCC0
CCC0
CCC0
CCC0
3F00
3F00
0C00
0C00
0C00
0C00
ENDCHAR
STARTCHAR LATIN
ENCODING 633
SWIDTH 1280 0
DWIDTH 12 0
BBX 10 10 0 0
BITMAP
00C0
00C0
00C0
00C0
00C0
00C0
C3C0
C3C0
3CC0
3CC0
ENDCHAR
STARTCHAR LATIN
ENCODING 634
SWIDTH 1280 0
DWIDTH 12 0
BBX 10 14 0 0
BITMAP
00C0
00C0
00C0
00C0
00C0
00C0
00C0
00C0
00C0
00C0
C3C0
C3C0
3CC0
3CC0
ENDCHAR
STARTCHAR LATIN
ENCODING 635
SWIDTH 1280 0
DWIDTH 12 0
BBX 12 12 0 -2
BITMAP
00C0
00C0
00C0
00C0
00C0
00C0
C3C0
C3C0
3CC0
3CC0
0030
0030
ENDCHAR
STARTCHAR LATIN
ENCODING 636
SWIDTH 1280 0
DWIDTH 12 0
BBX 10 14 0 0
BITMAP
CF00
CF00
F0C0
F0C0
C000
C000
C000
C000
C000
C000
C000
C000
C000
C000
ENDCHAR
STARTCHAR LATIN
ENCODING 637
SWIDTH 1280 0
DWIDTH 12 0
BBX 10 16 0 -2
BITMAP
CF00
CF00
F0C0
F0C0
C000
C000
C000
C000
C000
C000
C000
C000
C000
C000
3000
3000
ENDCHAR
STARTCHAR LATIN
ENCODING 638
SWIDTH 852 0
DWIDTH 8 0
BBX 8 10 0 0
BITMAP
3C
3C
C3
C3
C0
C0
C0
C0
C0
C0
ENDCHAR
STARTCHAR LATIN
ENCODING 639
SWIDTH 852 0
DWIDTH 8 0
BBX 8 10 0 0
BITMAP
3C
3C
C3
C3
03
03
03
03
03
03
ENDCHAR
STARTCHAR LATIN
ENCODING 640
SWIDTH 1066 0
DWIDTH 10 0
BBX 10 10 0 0
BITMAP
FF00
FF00
C0C0
C0C0
FF00
FF00
C300
C300
C0C0
C0C0
ENDCHAR
STARTCHAR LATIN
ENCODING 641
SWIDTH 1066 0
DWIDTH 10 0
BBX 10 10 0 0
BITMAP
C0C0
C0C0
C300
C300
FF00
FF00
C0C0
C0C0
FF00
FF00
ENDCHAR
STARTCHAR LATIN
ENCODING 642
SWIDTH 1066 0
DWIDTH 10 0
BBX 10 14 0 -4
BITMAP
3FC0
3FC0
C000
C000
3F00
3F00
00C0
00C0
FF00
FF00
C000
C000
3000
3000
ENDCHAR
STARTCHAR LATIN
ENCODING 643
SWIDTH 1066 0
DWIDTH 10 0
BBX 10 18 0 -2
BITMAP
03C0
03C0
0C00
0C00
0C00
0C00
0C00
0C00
0C00
0C00
0C00
0C00
0C00
0C00
0C00
0C00
F000
F000
ENDCHAR
STARTCHAR LATIN
ENCODING 644
SWIDTH 1066 0
DWIDTH 10 0
BBX 10 18 0 -2
BITMAP
03C0
03C0
0C00
0C00
0C00
0C00
0C00
0C00
0C00
0C00
3F00
3F00
0C00
0C00
0C00
0C00
F000
F000
ENDCHAR
STARTCHAR LATIN
ENCODING 645
SWIDTH 1066 0
DWIDTH 10 0
BBX 10 14 0 -2
BITMAP
F000
F000
0C00
0C00
0C00
0C00
0C00
0C00
0C00
0C00
0C00
0C00
03C0
03C0
ENDCHAR
STARTCHAR LATIN
ENCODING 646
SWIDTH 1066 0
DWIDTH 10 0
BBX 10 18 0 -2
BITMAP
03C0
03C0
0C00
0C00
0C00
0C00
0C00
0C00
0C00
0C00
0C00
0C00
3C00
3C00
CF00
CF00
30C0
30C0
ENDCHAR
STARTCHAR LATIN
ENCODING 647
SWIDTH 852 0
DWIDTH 8 0
BBX 8 14 0 0
BITMAP
F0
F0
0C
0C
0C
0C
0C
0C
FF
FF
0C
0C
0C
0C
ENDCHAR
STARTCHAR LATIN
ENCODING 648
SWIDTH 852 0
DWIDTH 8 0
BBX 8 16 0 -2
BITMAP
30
30
30
30
FF
FF
30
30
30
30
30
30
30
30
0F
0F
ENDCHAR
STARTCHAR LATIN
ENCODING 649
SWIDTH 1066 0
DWIDTH 10 0
BBX 10 10 0 0
BITMAP
C0C0
C0C0
FFC0
FFC0
C0C0
C0C0
C3C0
C3C0
3CC0
3CC0
ENDCHAR
STARTCHAR LATIN
ENCODING 650
SWIDTH 1066 0
DWIDTH 10 0
BBX 10 10 0 0
BITMAP
C0C0
C0C0
3300
3300
C0C0
C0C0
C0C0
C0C0
3F00
3F00
ENDCHAR
STARTCHAR LATIN
ENCODING 651
SWIDTH 1066 0
DWIDTH 10 0
BBX 10 10 0 0
BITMAP
CF00
CF00
C0C0
C0C0
C0C0
C0C0
C0C0
C0C0
3F00
3F00
ENDCHAR
STARTCHAR LATIN
ENCODING 652
SWIDTH 1066 0
DWIDTH 10 0
BBX 10 10 0 0
BITMAP
0C00
0C00
3300
3300
3300
3300
C0C0
C0C0
C0C0
C0C0
ENDCHAR
STARTCHAR LATIN
ENCODING 653
SWIDTH 1066 0
DWIDTH 10 0
BBX 10 10 0 0
BITMAP
3300
3300
CCC0
CCC0
CCC0
CCC0
CCC0
CCC0
C0C0
C0C0
ENDCHAR
STARTCHAR LATIN
ENCODING 654
SWIDTH 1066 0
DWIDTH 10 0
BBX 10 14 0 -4
BITMAP
3F00
3F00
C000
C000
FF00
FF00
C0C0
C0C0
C0C0
C0C0
C0C0
C0C0
C0C0
C0C0
ENDCHAR
STARTCHAR LATIN
ENCODING 655
SWIDTH 1066 0
DWIDTH 10 0
BBX 10 10 0 0
BITMAP
C0C0
C0C0
3300
3300
0C00
0C00
0C00
0C00
0C00
0C00
ENDCHAR
STARTCHAR LATIN
ENCODING 656
SWIDTH 1066 0
DWIDTH 10 0
BBX 10 14 0 -4
BITMAP
FFC0
FFC0
0300
0300
0C00
0C00
3000
3000
FFC0
FFC0
00C0
00C0
0300
0300
ENDCHAR
STARTCHAR LATIN
ENCODING 657
SWIDTH 1066 0
DWIDTH 10 0
BBX 10 12 0 -2
BITMAP
FFC0
FFC0
0300
0300
0F00
0F00
3CC0
3CC0
FFC0
FFC0
0C00
0C00
ENDCHAR
STARTCHAR LATIN
ENCODING 658
SWIDTH 1066 0
DWIDTH 10 0
BBX 10 14 0 -4
BITMAP
FFC0
FFC0
0300
0300
0C00
0C00
0300
0300
00C0
00C0
C0C0
C0C0
3F00
3F00
ENDCHAR
STARTCHAR LATIN
ENCODING 659
SWIDTH 1066 0
DWIDTH 10 0
BBX 10 14 0 -4
BITMAP
FFC0
FFC0
0300
0300
0C00
0C00
0300
0300
3CC0
3CC0
C3C0
C3C0
3FC0
3FC0
ENDCHAR
STARTCHAR LATIN
ENCODING 660
SWIDTH 1066 0
DWIDTH 10 0
BBX 10 14 0 2
BITMAP
3F00
3F00
C0C0
C0C0
00C0
00C0
0300
0300
0C00
0C00
0C00
0C00
0C00
0C00
ENDCHAR
STARTCHAR LATIN
ENCODING 661
SWIDTH 1066 0
DWIDTH 10 0
BBX 10 14 0 2
BITMAP
3F00
3F00
C0C0
C0C0
C000
C000
3000
3000
0C00
0C00
0C00
0C00
0C00
0C00
ENDCHAR
STARTCHAR LATIN
ENCODING 662
SWIDTH 1066 0
DWIDTH 10 0
BBX 10 14 0 2
BITMAP
0C00
0C00
0C00
0C00
0C00
0C00
0300
0300
00C0
00C0
C0C0
C0C0
3F00
3F00
ENDCHAR
STARTCHAR LATIN
ENCODING 663
SWIDTH 1066 0
DWIDTH 10 0
BBX 10 14 0 -4
BITMAP
3F00
3F00
C0C0
C0C0
C000
C000
C000
C000
C000
C000
C0C0
C0C0
3F00
3F00
ENDCHAR
STARTCHAR LATIN
ENCODING 664
SWIDTH 1066 0
DWIDTH 10 0
BBX 10 10 0 0
BITMAP
3F00
3F00
C0C0
C0C0
CCC0
CCC0
C0C0
C0C0
3F00
3F00
ENDCHAR
STARTCHAR LATIN
ENCODING 665
SWIDTH 1066 0
DWIDTH 10 0
BBX 10 10 0 0
BITMAP
FF00
FF00
C0C0
C0C0
FF00
FF00
C0C0
C0C0
FF00
FF00
ENDCHAR
STARTCHAR LATIN
ENCODING 666
SWIDTH 1066 0
DWIDTH 10 0
BBX 10 10 0 0
BITMAP
3F00
3F00
C0C0
C0C0
3CC0
3CC0
C0C0
C0C0
3F00
3F00
ENDCHAR
STARTCHAR LATIN
ENCODING 667
SWIDTH 1280 0
DWIDTH 12 0
BBX 12 14 0 0
BITMAP
0030
0030
00C0
00C0
3FC0
3FC0
C000
C000
C3C0
C3C0
C0C0
C0C0
3FC0
3FC0
ENDCHAR
STARTCHAR LATIN
ENCODING 668
SWIDTH 1066 0
DWIDTH 10 0
BBX 10 10 0 0
BITMAP
C0C0
C0C0
C0C0
C0C0
FFC0
FFC0
C0C0
C0C0
C0C0
C0C0
ENDCHAR
STARTCHAR LATIN
ENCODING 669
SWIDTH 852 0
DWIDTH 8 0
BBX 8 18 0 -4
BITMAP
0C
0C
00
00
3C
3C
0C
0C
0C
0C
0C
0C
3F
3F
CC
CC
F0
F0
ENDCHAR
STARTCHAR LATIN
ENCODING 670
SWIDTH 1280 0
DWIDTH 12 0
BBX 10 14 0 0
BITMAP
C0C0
C0C0
30C0
30C0
0FC0
0FC0
0CC0
0CC0
30C0
30C0
00C0
00C0
00C0
00C0
ENDCHAR
STARTCHAR LATIN
ENCODING 671
SWIDTH 852 0
DWIDTH 8 0
BBX 8 10 0 0
BITMAP
C0
C0
C0
C0
C0
C0
C0
C0
FF
FF
ENDCHAR
STARTCHAR LATIN
ENCODING 672
SWIDTH 1280 0
DWIDTH 12 0
BBX 12 18 0 -4
BITMAP
0030
0030
00C0
00C0
3FC0
3FC0
C0C0
C0C0
C0C0
C0C0
C0C0
C0C0
3FC0
3FC0
00C0
00C0
00C0
00C0
ENDCHAR
STARTCHAR LATIN
ENCODING 673
SWIDTH 1066 0
DWIDTH 10 0
BBX 10 14 0 2
BITMAP
3F00
3F00
C0C0
C0C0
00C0
00C0
0300
0300
0C00
0C00
3F00
3F00
0C00
0C00
ENDCHAR
STARTCHAR LATIN
ENCODING 674
SWIDTH 1066 0
DWIDTH 10 0
BBX 10 14 0 2
BITMAP
3F00
3F00
C0C0
C0C0
C000
C000
3000
3000
0C00
0C00
3F00
3F00
0C00
0C00
ENDCHAR
STARTCHAR LATIN
ENCODING 675
SWIDTH 1280 0
DWIDTH 12 0
BBX 12 14 0 0
BITMAP
0C00
0C00
0C00
0C00
3FF0
3FF0
CC30
CC30
CCC0
CCC0
CF00
CF00
3FF0
3FF0
ENDCHAR
STARTCHAR LATIN
ENCODING 676
SWIDTH 1280 0
DWIDTH 12 0
BBX 12 16 0 -2
BITMAP
0C00
0C00
0C00
0C00
3FF0
3FF0
CC30
CC30
CCC0
CCC0
CC30
CC30
3F30
3F30
00C0
00C0
ENDCHAR
STARTCHAR LATIN
ENCODING 677
SWIDTH 1280 0
DWIDTH 12 0
BBX 12 16 0 -2
BITMAP
0C00
0C00
0C00
0C00
3FF0
3FF0
CC30
CC30
CCC0
CCC0
CF30
CF30
3FF0
3FF0
0300
0300
ENDCHAR
STARTCHAR LATIN
ENCODING 678
SWIDTH 1280 0
DWIDTH 12 0
BBX 12 14 0 0
BITMAP
3000
3000
3000
3000
FFF0
FFF0
3C00
3C00
33C0
33C0
3030
3030
0FC0
0FC0
ENDCHAR
STARTCHAR LATIN
ENCODING 679
SWIDTH 1066 0
DWIDTH 10 0
BBX 10 18 0 -4
BITMAP
30C0
30C0
3300
3300
FF00
FF00
3300
3300
3300
3300
3300
3300
0F00
0F00
0300
0300
0C00
0C00
ENDCHAR
STARTCHAR LATIN
ENCODING 680
SWIDTH 1280 0
DWIDTH 12 0
BBX 12 16 0 -2
BITMAP
3000
3000
3000
3000
FCF0
FCF0
3300
3300
33C0
33C0
3330
3330
0FF0
0FF0
0300
0300
ENDCHAR
STARTCHAR LATIN
ENCODING 681
SWIDTH 1280 0
DWIDTH 12 0
BBX 12 18 0 -4
BITMAP
0C00
0C00
3000
3000
3000
3000
FFC0
FFC0
3330
3330
3330
3330
3330
3330
00C0
00C0
0300
0300
ENDCHAR
STARTCHAR LATIN
ENCODING 682
SWIDTH 1066 0
DWIDTH 10 0
BBX 10 14 0 0
BITMAP
C000
C000
C000
C000
CFC0
CFC0
F000
F000
CF00
CF00
C0C0
C0C0
FF00
FF00
ENDCHAR
STARTCHAR LATIN
ENCODING 683
SWIDTH 1066 0
DWIDTH 10 0
BBX 10 14 0 0
BITMAP
C000
C000
C000
C000
FFC0
FFC0
C300
C300
CC00
CC00
F000
F000
FFC0
FFC0
ENDCHAR
STARTCHAR LATIN
ENCODING 684
SWIDTH 1066 0
DWIDTH 10 0
BBX 10 12 0 0
BITMAP
CCC0
CCC0
CCC0
CCC0
3300
3300
CCC0
CCC0
CCC0
CCC0
3300
3300
ENDCHAR
STARTCHAR LATIN
ENCODING 685
SWIDTH 1066 0
DWIDTH 10 0
BBX 10 10 0 0
BITMAP
FFC0
FFC0
C0C0
C0C0
0000
0000
FFC0
FFC0
C0C0
C0C0
ENDCHAR
STARTCHAR LATIN
ENCODING 686
SWIDTH 1066 0
DWIDTH 10 0
BBX 10 14 0 -4
BITMAP
C0C0
C0C0
30C0
30C0
30C0
30C0
30C0
30C0
0FC0
0FC0
00C0
00C0
00C0
00C0
ENDCHAR
STARTCHAR LATIN
ENCODING 687
SWIDTH 1280 0
DWIDTH 12 0
BBX 12 14 0 -4
BITMAP
C0C0
C0C0
30C0
30C0
30C0
30C0
30C0
30C0
0FC0
0FC0
00C0
00C0
0030
0030
ENDCHAR
STARTCHAR MODIFIER
ENCODING 706
SWIDTH 1280 0
DWIDTH 12 0
BBX 12 10 0 2
BITMAP
00F0
00F0
0F00
0F00
F000
F000
0F00
0F00
00F0
00F0
ENDCHAR
STARTCHAR MODIFIER
ENCODING 707
SWIDTH 1280 0
DWIDTH 12 0
BBX 12 10 0 2
BITMAP
F000
F000
0F00
0F00
00F0
00F0
0F00
0F00
F000
F000
ENDCHAR
STARTCHAR MODIFIER
ENCODING 708
SWIDTH 1280 0
DWIDTH 12 0
BBX 10 12 0 2
BITMAP
C0C0
C0C0
C0C0
C0C0
3300
3300
3300
3300
0C00
0C00
0C00
0C00
ENDCHAR
STARTCHAR MODIFIER
ENCODING 709
SWIDTH 1280 0
DWIDTH 12 0
BBX 10 12 0 2
BITMAP
0C00
0C00
0C00
0C00
3300
3300
3300
3300
C0C0
C0C0
C0C0
C0C0
ENDCHAR
STARTCHAR MODIFIER
ENCODING 710
SWIDTH 1280 0
DWIDTH 12 0
BBX 10 6 0 10
BITMAP
0C00
0C00
3300
3300
C0C0
C0C0
ENDCHAR
STARTCHAR CARON
ENCODING 711
SWIDTH 1280 0
DWIDTH 12 0
BBX 10 6 0 12
BITMAP
C0C0
C0C0
3300
3300
0C00
0C00
ENDCHAR
STARTCHAR MODIFIER
ENCODING 712
SWIDTH 1280 0
DWIDTH 12 0
BBX 2 4 4 10
BITMAP
C0
C0
C0
C0
ENDCHAR
STARTCHAR MODIFIER
ENCODING 713
SWIDTH 1280 0
DWIDTH 12 0
BBX 4 2 2 12
BITMAP
F0
F0
ENDCHAR
STARTCHAR MODIFIER
ENCODING 714
SWIDTH 1280 0
DWIDTH 12 0
BBX 4 4 4 10
BITMAP
30
30
C0
C0
ENDCHAR
STARTCHAR MODIFIER
ENCODING 715
SWIDTH 1280 0
DWIDTH 12 0
BBX 4 4 4 10
BITMAP
C0
C0
30
30
ENDCHAR
STARTCHAR BREVE
ENCODING 728
SWIDTH 1280 0
DWIDTH 12 0
BBX 10 4 2 12
BITMAP
C0C0
C0C0
3F00
3F00
ENDCHAR
STARTCHAR DOT
ENCODING 729
SWIDTH 1280 0
DWIDTH 12 0
BBX 4 4 4 14
BITMAP
F0
F0
F0
F0
ENDCHAR
STARTCHAR RING
ENCODING 730
SWIDTH 1280 0
DWIDTH 12 0
BBX 6 6 2 10
BITMAP
30
30
CC
CC
30
30
ENDCHAR
STARTCHAR OGONEK
ENCODING 731
SWIDTH 1280 0
DWIDTH 12 0
BBX 4 6 4 -4
BITMAP
30
30
C0
C0
30
30
ENDCHAR
STARTCHAR SMALL
ENCODING 732
SWIDTH 1280 0
DWIDTH 12 0
BBX 10 4 0 12
BITMAP
3CC0
3CC0
CF00
CF00
ENDCHAR
STARTCHAR DOUBLE
ENCODING 733
SWIDTH 1280 0
DWIDTH 12 0
BBX 8 6 2 12
BITMAP
33
33
33
33
CC
CC
ENDCHAR
STARTCHAR MODIFIER
ENCODING 750
SWIDTH 1280 0
DWIDTH 12 0
BBX 10 8 0 6
BITMAP
F3C0
F3C0
F3C0
F3C0
30C0
30C0
C300
C300
ENDCHAR
STARTCHAR COMBINING
ENCODING 835
SWIDTH 1280 0
DWIDTH 12 0
BBX 4 8 2 6
BITMAP
F0
F0
F0
F0
30
30
C0
C0
ENDCHAR
STARTCHAR COMBINING
ENCODING 860
SWIDTH 1066 0
DWIDTH 10 0
BBX 10 4 0 -2
BITMAP
C0C0
C0C0
3F00
3F00
ENDCHAR
STARTCHAR COMBINING
ENCODING 865
SWIDTH 1066 0
DWIDTH 10 0
BBX 10 4 0 14
BITMAP
3F00
3F00
C0C0
C0C0
ENDCHAR
STARTCHAR GREEK
ENCODING 880
SWIDTH 852 0
DWIDTH 8 0
BBX 8 14 0 0
BITMAP
C0
C0
C0
C0
C0
C0
FF
FF
C0
C0
C0
C0
C0
C0
ENDCHAR
STARTCHAR GREEK
ENCODING 881
SWIDTH 1066 0
DWIDTH 10 0
BBX 10 12 0 0
BITMAP
C000
C000
3000
3000
3000
3000
3FC0
3FC0
3000
3000
3000
3000
ENDCHAR
STARTCHAR GREEK
ENCODING 882
SWIDTH 1066 0
DWIDTH 10 0
BBX 10 14 0 0
BITMAP
FFC0
FFC0
CCC0
CCC0
CCC0
CCC0
0C00
0C00
0C00
0C00
0C00
0C00
0C00
0C00
ENDCHAR
STARTCHAR GREEK
ENCODING 883
SWIDTH 1066 0
DWIDTH 10 0
BBX 10 10 0 0
BITMAP
FFC0
FFC0
CCC0
CCC0
0C00
0C00
0C00
0C00
0C00
0C00
ENDCHAR
STARTCHAR GREEK
ENCODING 884
SWIDTH 852 0
DWIDTH 8 0
BBX 6 4 2 12
BITMAP
3C
3C
F0
F0
ENDCHAR
STARTCHAR GREEK
ENCODING 885
SWIDTH 852 0
DWIDTH 8 0
BBX 8 6 0 -2
BITMAP
0F
0F
3C
3C
F0
F0
ENDCHAR
STARTCHAR GREEK
ENCODING 886
SWIDTH 1066 0
DWIDTH 10 0
BBX 10 12 0 0
BITMAP
C3C0
C3C0
C3C0
C3C0
CCC0
CCC0
CCC0
CCC0
F0C0
F0C0
F0C0
F0C0
ENDCHAR
STARTCHAR GREEK
ENCODING 887
SWIDTH 1280 0
DWIDTH 12 0
BBX 12 12 0 -2
BITMAP
C0C0
C0C0
C3C0
C3C0
CCC0
CCC0
F0C0
F0C0
C0C0
C0C0
0030
0030
ENDCHAR
STARTCHAR GREEK
ENCODING 890
SWIDTH 1066 0
DWIDTH 10 0
BBX 4 4 2 -4
BITMAP
C0
C0
F0
F0
ENDCHAR
STARTCHAR GREEK
ENCODING 891
SWIDTH 1066 0
DWIDTH 10 0
BBX 10 10 0 0
BITMAP
3F00
3F00
C0C0
C0C0
00C0
00C0
C0C0
C0C0
3F00
3F00
ENDCHAR
STARTCHAR GREEK
ENCODING 892
SWIDTH 1066 0
DWIDTH 10 0
BBX 10 10 0 0
BITMAP
3F00
3F00
C0C0
C0C0
CC00
CC00
C0C0
C0C0
3F00
3F00
ENDCHAR
STARTCHAR GREEK
ENCODING 893
SWIDTH 1066 0
DWIDTH 10 0
BBX 10 10 0 0
BITMAP
3F00
3F00
C0C0
C0C0
0CC0
0CC0
C0C0
C0C0
3F00
3F00
ENDCHAR
STARTCHAR GREEK
ENCODING 894
SWIDTH 640 0
DWIDTH 6 0
BBX 4 16 2 -4
BITMAP
F0
F0
F0
F0
00
00
00
00
F0
F0
F0
F0
30
30
C0
C0
ENDCHAR
STARTCHAR uni037F
ENCODING 895
SWIDTH 1280 0
DWIDTH 12 0
BBX 12 6 0 2
BITMAP
FFF0
FFF0
FFF0
FFF0
FFF0
FFF0
ENDCHAR
STARTCHAR uni0380
ENCODING 896
SWIDTH 1280 0
DWIDTH 12 0
BBX 12 6 0 2
BITMAP
CCC0
CCC0
3330
3330
CCC0
CCC0
ENDCHAR
STARTCHAR uni0381
ENCODING 897
SWIDTH 1280 0
DWIDTH 12 0
BBX 10 6 0 2
BITMAP
CCC0
CCC0
0000
0000
CCC0
CCC0
ENDCHAR
STARTCHAR GREEK
ENCODING 900
SWIDTH 852 0
DWIDTH 8 0
BBX 4 6 4 10
BITMAP
30
30
F0
F0
C0
C0
ENDCHAR
STARTCHAR GREEK
ENCODING 901
SWIDTH 1280 0
DWIDTH 12 0
BBX 12 6 0 10
BITMAP
0300
0300
CF30
CF30
0C00
0C00
ENDCHAR
STARTCHAR GREEK
ENCODING 902
SWIDTH 1066 0
DWIDTH 10 0
BBX 10 18 0 0
BITMAP
3000
3000
C000
C000
3F00
3F00
C0C0
C0C0
C0C0
C0C0
FFC0
FFC0
C0C0
C0C0
C0C0
C0C0
C0C0
C0C0
ENDCHAR
STARTCHAR GREEK
ENCODING 903
SWIDTH 852 0
DWIDTH 8 0
BBX 4 4 4 6
BITMAP
F0
F0
F0
F0
ENDCHAR
STARTCHAR GREEK
ENCODING 904
SWIDTH 1066 0
DWIDTH 10 0
BBX 10 18 0 0
BITMAP
0C00
0C00
3000
3000
FFC0
FFC0
C000
C000
C000
C000
FF00
FF00
C000
C000
C000
C000
FFC0
FFC0
ENDCHAR
STARTCHAR GREEK
ENCODING 905
SWIDTH 1066 0
DWIDTH 10 0
BBX 10 16 0 0
BITMAP
0C00
0C00
30C0
30C0
F0C0
F0C0
30C0
30C0
3FC0
3FC0
30C0
30C0
30C0
30C0
30C0
30C0
ENDCHAR
STARTCHAR GREEK
ENCODING 906
SWIDTH 852 0
DWIDTH 8 0
BBX 8 16 0 0
BITMAP
30
30
FF
FF
0C
0C
0C
0C
0C
0C
0C
0C
0C
0C
3F
3F
ENDCHAR
STARTCHAR GREEK
ENCODING 908
SWIDTH 1066 0
DWIDTH 10 0
BBX 10 16 0 0
BITMAP
3000
3000
CF00
CF00
30C0
30C0
30C0
30C0
30C0
30C0
30C0
30C0
30C0
30C0
0F00
0F00
ENDCHAR
STARTCHAR GREEK
ENCODING 910
SWIDTH 1066 0
DWIDTH 10 0
BBX 10 14 0 0
BITMAP
3000
3000
CCC0
CCC0
0CC0
0CC0
0CC0
0CC0
0300
0300
0300
0300
0300
0300
ENDCHAR
STARTCHAR GREEK
ENCODING 911
SWIDTH 1066 0
DWIDTH 10 0
BBX 10 16 0 0
BITMAP
3000
3000
FF00
FF00
C0C0
C0C0
C0C0
C0C0
C0C0
C0C0
C0C0
C0C0
3300
3300
F3C0
F3C0
ENDCHAR
STARTCHAR GREEK
ENCODING 912
SWIDTH 1280 0
DWIDTH 12 0
BBX 12 18 0 0
BITMAP
0300
0300
CF30
CF30
0C00
0C00
0000
0000
0C00
0C00
0C00
0C00
0C00
0C00
0C00
0C00
0C00
0C00
ENDCHAR
STARTCHAR GREEK
ENCODING 913
SWIDTH 1280 0
DWIDTH 12 0
BBX 10 14 0 0
BITMAP
3F00
3F00
C0C0
C0C0
C0C0
C0C0
FFC0
FFC0
C0C0
C0C0
C0C0
C0C0
C0C0
C0C0
ENDCHAR
STARTCHAR GREEK
ENCODING 914
SWIDTH 1280 0
DWIDTH 12 0
BBX 10 14 0 0
BITMAP
FF00
FF00
C0C0
C0C0
C0C0
C0C0
FF00
FF00
C0C0
C0C0
C0C0
C0C0
FF00
FF00
ENDCHAR
STARTCHAR GREEK
ENCODING 915
SWIDTH 1280 0
DWIDTH 12 0
BBX 10 14 0 0
BITMAP
FFC0
FFC0
C000
C000
C000
C000
C000
C000
C000
C000
C000
C000
C000
C000
ENDCHAR
STARTCHAR GREEK
ENCODING 916
SWIDTH 1066 0
DWIDTH 10 0
BBX 10 14 0 0
BITMAP
0C00
0C00
0C00
0C00
3300
3300
3300
3300
3300
3300
C0C0
C0C0
FFC0
FFC0
ENDCHAR
STARTCHAR GREEK
ENCODING 917
SWIDTH 1280 0
DWIDTH 12 0
BBX 10 14 0 0
BITMAP
FFC0
FFC0
C000
C000
C000
C000
FF00
FF00
C000
C000
C000
C000
FFC0
FFC0
ENDCHAR
STARTCHAR GREEK
ENCODING 918
SWIDTH 1280 0
DWIDTH 12 0
BBX 10 14 0 0
BITMAP
FFC0
FFC0
00C0
00C0
0300
0300
0C00
0C00
3000
3000
C000
C000
FFC0
FFC0
ENDCHAR
STARTCHAR GREEK
ENCODING 919
SWIDTH 1280 0
DWIDTH 12 0
BBX 10 14 0 0
BITMAP
C0C0
C0C0
C0C0
C0C0
C0C0
C0C0
FFC0
FFC0
C0C0
C0C0
C0C0
C0C0
C0C0
C0C0
ENDCHAR
STARTCHAR GREEK
ENCODING 920
SWIDTH 1280 0
DWIDTH 12 0
BBX 10 14 0 0
BITMAP
3F00
3F00
C0C0
C0C0
C0C0
C0C0
FFC0
FFC0
C0C0
C0C0
C0C0
C0C0
3F00
3F00
ENDCHAR
STARTCHAR GREEK
ENCODING 921
SWIDTH 852 0
DWIDTH 8 0
BBX 6 14 2 0
BITMAP
FC
FC
30
30
30
30
30
30
30
30
30
30
FC
FC
ENDCHAR
STARTCHAR GREEK
ENCODING 922
SWIDTH 1280 0
DWIDTH 12 0
BBX 10 14 0 0
BITMAP
C0C0
C0C0
C300
C300
CC00
CC00
F000
F000
CC00
CC00
C300
C300
C0C0
C0C0
ENDCHAR
STARTCHAR GREEK
ENCODING 923
SWIDTH 1066 0
DWIDTH 10 0
BBX 10 14 0 0
BITMAP
0C00
0C00
0C00
0C00
3300
3300
3300
3300
3300
3300
C0C0
C0C0
C0C0
C0C0
ENDCHAR
STARTCHAR GREEK
ENCODING 924
SWIDTH 1280 0
DWIDTH 12 0
BBX 10 14 0 0
BITMAP
C0C0
C0C0
F3C0
F3C0
CCC0
CCC0
C0C0
C0C0
C0C0
C0C0
C0C0
C0C0
C0C0
C0C0
ENDCHAR
STARTCHAR GREEK
ENCODING 925
SWIDTH 1066 0
DWIDTH 10 0
BBX 10 12 0 0
BITMAP
F0C0
F0C0
F0C0
F0C0
CCC0
CCC0
CCC0
CCC0
C3C0
C3C0
C3C0
C3C0
ENDCHAR
STARTCHAR GREEK
ENCODING 926
SWIDTH 1280 0
DWIDTH 12 0
BBX 12 14 0 0
BITMAP
FFF0
FFF0
0000
0000
0000
0000
3FC0
3FC0
0000
0000
0000
0000
FFF0
FFF0
ENDCHAR
STARTCHAR GREEK
ENCODING 927
SWIDTH 1066 0
DWIDTH 10 0
BBX 10 14 0 0
BITMAP
3F00
3F00
C0C0
C0C0
C0C0
C0C0
C0C0
C0C0
C0C0
C0C0
C0C0
C0C0
3F00
3F00
ENDCHAR
STARTCHAR GREEK
ENCODING 928
SWIDTH 1066 0
DWIDTH 10 0
BBX 10 14 0 0
BITMAP
FFC0
FFC0
C0C0
C0C0
C0C0
C0C0
C0C0
C0C0
C0C0
C0C0
C0C0
C0C0
C0C0
C0C0
ENDCHAR
STARTCHAR GREEK
ENCODING 929
SWIDTH 1066 0
DWIDTH 10 0
BBX 10 14 0 0
BITMAP
FF00
FF00
C0C0
C0C0
C0C0
C0C0
FF00
FF00
C000
C000
C000
C000
C000
C000
ENDCHAR
STARTCHAR GREEK
ENCODING 931
SWIDTH 1066 0
DWIDTH 10 0
BBX 10 14 0 0
BITMAP
FFC0
FFC0
C000
C000
3000
3000
0C00
0C00
3000
3000
C000
C000
FFC0
FFC0
ENDCHAR
STARTCHAR GREEK
ENCODING 932
SWIDTH 1066 0
DWIDTH 10 0
BBX 10 14 0 0
BITMAP
FFC0
FFC0
0C00
0C00
0C00
0C00
0C00
0C00
0C00
0C00
0C00
0C00
0C00
0C00
ENDCHAR
STARTCHAR GREEK
ENCODING 933
SWIDTH 1066 0
DWIDTH 10 0
BBX 10 14 0 0
BITMAP
C0C0
C0C0
C0C0
C0C0
C0C0
C0C0
3300
3300
0C00
0C00
0C00
0C00
0C00
0C00
ENDCHAR
STARTCHAR GREEK
ENCODING 934
SWIDTH 1066 0
DWIDTH 10 0
BBX 10 14 0 0
BITMAP
0C00
0C00
3F00
3F00
CCC0
CCC0
CCC0
CCC0
CCC0
CCC0
3F00
3F00
0C00
0C00
ENDCHAR
STARTCHAR GREEK
ENCODING 935
SWIDTH 1066 0
DWIDTH 10 0
BBX 10 14 0 0
BITMAP
C0C0
C0C0
C0C0
C0C0
3300
3300
0C00
0C00
3300
3300
C0C0
C0C0
C0C0
C0C0
ENDCHAR
STARTCHAR GREEK
ENCODING 936
SWIDTH 1066 0
DWIDTH 10 0
BBX 10 14 0 0
BITMAP
CCC0
CCC0
CCC0
CCC0
CCC0
CCC0
3F00
3F00
0C00
0C00
0C00
0C00
0C00
0C00
ENDCHAR
STARTCHAR GREEK
ENCODING 937
SWIDTH 1280 0
DWIDTH 12 0
BBX 10 14 0 0
BITMAP
3F00
3F00
C0C0
C0C0
C0C0
C0C0
C0C0
C0C0
C0C0
C0C0
3300
3300
F3C0
F3C0
ENDCHAR
STARTCHAR GREEK
ENCODING 938
SWIDTH 852 0
DWIDTH 8 0
BBX 6 18 2 0
BITMAP
CC
CC
00
00
30
30
30
30
30
30
30
30
30
30
30
30
30
30
ENDCHAR
STARTCHAR GREEK
ENCODING 939
SWIDTH 1066 0
DWIDTH 10 0
BBX 10 18 0 0
BITMAP
3300
3300
0000
0000
C0C0
C0C0
C0C0
C0C0
C0C0
C0C0
3300
3300
0C00
0C00
0C00
0C00
0C00
0C00
ENDCHAR
STARTCHAR GREEK
ENCODING 940
SWIDTH 1066 0
DWIDTH 10 0
BBX 10 16 0 0
BITMAP
0300
0300
0C00
0C00
0000
0000
3FC0
3FC0
C0C0
C0C0
C0C0
C0C0
C0C0
C0C0
3FC0
3FC0
ENDCHAR
STARTCHAR GREEK
ENCODING 941
SWIDTH 852 0
DWIDTH 8 0
BBX 8 16 0 0
BITMAP
0C
0C
30
30
00
00
3F
3F
C0
C0
FC
FC
C0
C0
3F
3F
ENDCHAR
STARTCHAR GREEK
ENCODING 942
SWIDTH 1066 0
DWIDTH 10 0
BBX 10 20 0 -4
BITMAP
0C00
0C00
3000
3000
0000
0000
CF00
CF00
F0C0
F0C0
C0C0
C0C0
C0C0
C0C0
C0C0
C0C0
00C0
00C0
00C0
00C0
ENDCHAR
STARTCHAR GREEK
ENCODING 943
SWIDTH 852 0
DWIDTH 8 0
BBX 4 16 4 0
BITMAP
30
30
C0
C0
00
00
C0
C0
C0
C0
C0
C0
C0
C0
C0
C0
ENDCHAR
STARTCHAR GREEK
ENCODING 944
SWIDTH 1280 0
DWIDTH 12 0
BBX 12 16 0 0
BITMAP
0300
0300
CF30
CF30
0C00
0C00
C0C0
C0C0
C0C0
C0C0
C0C0
C0C0
C3C0
C3C0
3CC0
3CC0
ENDCHAR
STARTCHAR GREEK
ENCODING 945
SWIDTH 1066 0
DWIDTH 10 0
BBX 10 10 0 0
BITMAP
3FC0
3FC0
C0C0
C0C0
C0C0
C0C0
C0C0
C0C0
3FC0
3FC0
ENDCHAR
STARTCHAR GREEK
ENCODING 946
SWIDTH 852 0
DWIDTH 8 0
BBX 8 18 0 -4
BITMAP
3C
3C
C3
C3
C3
C3
CC
CC
C3
C3
F3
F3
CC
CC
C0
C0
C0
C0
ENDCHAR
STARTCHAR GREEK
ENCODING 947
SWIDTH 1066 0
DWIDTH 10 0
BBX 10 14 0 -4
BITMAP
C0C0
C0C0
C0C0
C0C0
3300
3300
3300
3300
0C00
0C00
0C00
0C00
0C00
0C00
ENDCHAR
STARTCHAR GREEK
ENCODING 948
SWIDTH 1066 0
DWIDTH 10 0
BBX 10 16 0 0
BITMAP
FFC0
FFC0
3000
3000
0C00
0C00
3F00
3F00
C0C0
C0C0
C0C0
C0C0
C0C0
C0C0
3F00
3F00
ENDCHAR
STARTCHAR GREEK
ENCODING 949
SWIDTH 852 0
DWIDTH 8 0
BBX 8 10 0 0
BITMAP
3F
3F
C0
C0
FC
FC
C0
C0
3F
3F
ENDCHAR
STARTCHAR GREEK
ENCODING 950
SWIDTH 852 0
DWIDTH 8 0
BBX 8 18 0 -4
BITMAP
FF
FF
0C
0C
30
30
C0
C0
C0
C0
C0
C0
3C
3C
03
03
0C
0C
ENDCHAR
STARTCHAR GREEK
ENCODING 951
SWIDTH 1066 0
DWIDTH 10 0
BBX 10 14 0 -4
BITMAP
CF00
CF00
F0C0
F0C0
C0C0
C0C0
C0C0
C0C0
C0C0
C0C0
00C0
00C0
00C0
00C0
ENDCHAR
STARTCHAR GREEK
ENCODING 952
SWIDTH 852 0
DWIDTH 8 0
BBX 8 14 0 0
BITMAP
3C
3C
C3
C3
C3
C3
FF
FF
C3
C3
C3
C3
3C
3C
ENDCHAR
STARTCHAR GREEK
ENCODING 953
SWIDTH 640 0
DWIDTH 6 0
BBX 2 10 4 0
BITMAP
C0
C0
C0
C0
C0
C0
C0
C0
C0
C0
ENDCHAR
STARTCHAR GREEK
ENCODING 954
SWIDTH 1066 0
DWIDTH 10 0
BBX 10 10 0 0
BITMAP
C0C0
C0C0
C300
C300
FC00
FC00
C300
C300
C0C0
C0C0
ENDCHAR
STARTCHAR GREEK
ENCODING 955
SWIDTH 1066 0
DWIDTH 10 0
BBX 10 16 0 0
BITMAP
3000
3000
3000
3000
0C00
0C00
0C00
0C00
3300
3300
3300
3300
C0C0
C0C0
C0C0
C0C0
ENDCHAR
STARTCHAR GREEK
ENCODING 956
SWIDTH 1066 0
DWIDTH 10 0
BBX 10 14 0 -4
BITMAP
C300
C300
C300
C300
C300
C300
C300
C300
FCC0
FCC0
C000
C000
C000
C000
ENDCHAR
STARTCHAR GREEK
ENCODING 957
SWIDTH 1066 0
DWIDTH 10 0
BBX 10 10 0 0
BITMAP
C0C0
C0C0
C0C0
C0C0
3300
3300
3300
3300
0C00
0C00
ENDCHAR
STARTCHAR GREEK
ENCODING 958
SWIDTH 852 0
DWIDTH 8 0
BBX 8 18 0 -4
BITMAP
3C
3C
C3
C3
C0
C0
3C
3C
C0
C0
C0
C0
3C
3C
03
03
0C
0C
ENDCHAR
STARTCHAR GREEK
ENCODING 959
SWIDTH 1066 0
DWIDTH 10 0
BBX 10 10 0 0
BITMAP
3F00
3F00
C0C0
C0C0
C0C0
C0C0
C0C0
C0C0
3F00
3F00
ENDCHAR
STARTCHAR GREEK
ENCODING 960
SWIDTH 1280 0
DWIDTH 12 0
BBX 10 10 0 0
BITMAP
FFC0
FFC0
3300
3300
3300
3300
3300
3300
3300
3300
ENDCHAR
STARTCHAR GREEK
ENCODING 961
SWIDTH 1066 0
DWIDTH 10 0
BBX 10 14 0 -4
BITMAP
3F00
3F00
C0C0
C0C0
C0C0
C0C0
C0C0
C0C0
FF00
FF00
C000
C000
C000
C000
ENDCHAR
STARTCHAR GREEK
ENCODING 962
SWIDTH 1066 0
DWIDTH 10 0
BBX 10 14 0 -4
BITMAP
3FC0
3FC0
C000
C000
C000
C000
C000
C000
3FC0
3FC0
00C0
00C0
0F00
0F00
ENDCHAR
STARTCHAR GREEK
ENCODING 963
SWIDTH 1280 0
DWIDTH 12 0
BBX 12 10 0 0
BITMAP
3FF0
3FF0
C0C0
C0C0
C0C0
C0C0
C0C0
C0C0
3F00
3F00
ENDCHAR
STARTCHAR GREEK
ENCODING 964
SWIDTH 1066 0
DWIDTH 10 0
BBX 10 10 0 0
BITMAP
3FC0
3FC0
CC00
CC00
0C00
0C00
0C00
0C00
0300
0300
ENDCHAR
STARTCHAR GREEK
ENCODING 965
SWIDTH 1066 0
DWIDTH 10 0
BBX 10 10 0 0
BITMAP
C0C0
C0C0
C0C0
C0C0
C0C0
C0C0
C0C0
C0C0
3FC0
3FC0
ENDCHAR
STARTCHAR GREEK
ENCODING 966
SWIDTH 1066 0
DWIDTH 10 0
BBX 10 14 0 -4
BITMAP
CF00
CF00
CCC0
CCC0
CCC0
CCC0
CCC0
CCC0
3F00
3F00
0C00
0C00
0C00
0C00
ENDCHAR
STARTCHAR GREEK
ENCODING 967
SWIDTH 1066 0
DWIDTH 10 0
BBX 10 14 0 -4
BITMAP
C0C0
C0C0
C0C0
C0C0
3300
3300
0C00
0C00
3300
3300
C0C0
C0C0
C0C0
C0C0
ENDCHAR
STARTCHAR GREEK
ENCODING 968
SWIDTH 1066 0
DWIDTH 10 0
BBX 10 14 0 -4
BITMAP
CCC0
CCC0
CCC0
CCC0
CCC0
CCC0
3F00
3F00
0C00
0C00
0C00
0C00
0C00
0C00
ENDCHAR
STARTCHAR GREEK
ENCODING 969
SWIDTH 1066 0
DWIDTH 10 0
BBX 10 10 0 0
BITMAP
3300
3300
C0C0
C0C0
CCC0
CCC0
CCC0
CCC0
3300
3300
ENDCHAR
STARTCHAR GREEK
ENCODING 970
SWIDTH 852 0
DWIDTH 8 0
BBX 6 14 2 0
BITMAP
CC
CC
00
00
F0
F0
30
30
30
30
30
30
30
30
ENDCHAR
STARTCHAR GREEK
ENCODING 971
SWIDTH 1066 0
DWIDTH 10 0
BBX 10 14 0 0
BITMAP
3300
3300
0000
0000
C0C0
C0C0
C0C0
C0C0
C0C0
C0C0
C0C0
C0C0
3FC0
3FC0
ENDCHAR
STARTCHAR GREEK
ENCODING 972
SWIDTH 1066 0
DWIDTH 10 0
BBX 10 16 0 0
BITMAP
0C00
0C00
3000
3000
0000
0000
3F00
3F00
C0C0
C0C0
C0C0
C0C0
C0C0
C0C0
3F00
3F00
ENDCHAR
STARTCHAR GREEK
ENCODING 973
SWIDTH 1066 0
DWIDTH 10 0
BBX 10 16 0 0
BITMAP
0C00
0C00
3000
3000
0000
0000
C0C0
C0C0
C0C0
C0C0
C0C0
C0C0
C0C0
C0C0
3FC0
3FC0
ENDCHAR
STARTCHAR GREEK
ENCODING 974
SWIDTH 1066 0
DWIDTH 10 0
BBX 10 16 0 0
BITMAP
0C00
0C00
3000
3000
0000
0000
3300
3300
C0C0
C0C0
CCC0
CCC0
F3C0
F3C0
C0C0
C0C0
ENDCHAR
STARTCHAR GREEK
ENCODING 975
SWIDTH 1280 0
DWIDTH 12 0
BBX 10 16 0 -2
BITMAP
C0C0
C0C0
C300
C300
CC00
CC00
F000
F000
CC00
CC00
C300
C300
C0C0
C0C0
0300
0300
ENDCHAR
STARTCHAR GREEK
ENCODING 976
SWIDTH 852 0
DWIDTH 8 0
BBX 8 14 0 0
BITMAP
3C
3C
C3
C3
CC
CC
FC
FC
C3
C3
C3
C3
3C
3C
ENDCHAR
STARTCHAR GREEK
ENCODING 977
SWIDTH 1280 0
DWIDTH 12 0
BBX 12 14 0 0
BITMAP
0F00
0F00
30C0
30C0
30C0
30C0
0FF0
0FF0
F0C0
F0C0
30C0
30C0
0F00
0F00
ENDCHAR
STARTCHAR GREEK
ENCODING 978
SWIDTH 1280 0
DWIDTH 12 0
BBX 12 14 0 0
BITMAP
C0C0
C0C0
C0F0
C0F0
C0C0
C0C0
3300
3300
0C00
0C00
0C00
0C00
0C00
0C00
ENDCHAR
STARTCHAR GREEK
ENCODING 979
SWIDTH 1280 0
DWIDTH 12 0
BBX 12 16 0 0
BITMAP
3000
3000
C0C0
C0C0
C0F0
C0F0
C0C0
C0C0
3300
3300
0C00
0C00
0C00
0C00
0C00
0C00
ENDCHAR
STARTCHAR GREEK
ENCODING 980
SWIDTH 1280 0
DWIDTH 12 0
BBX 12 18 0 0
BITMAP
3300
3300
0000
0000
C0C0
C0C0
C0F0
C0F0
C0C0
C0C0
3300
3300
0C00
0C00
0C00
0C00
0C00
0C00
ENDCHAR
STARTCHAR GREEK
ENCODING 981
SWIDTH 1066 0
DWIDTH 10 0
BBX 10 18 0 -4
BITMAP
0C00
0C00
0C00
0C00
3F00
3F00
CCC0
CCC0
CCC0
CCC0
CCC0
CCC0
3F00
3F00
0C00
0C00
0C00
0C00
ENDCHAR
STARTCHAR GREEK
ENCODING 982
SWIDTH 1066 0
DWIDTH 10 0
BBX 10 10 0 0
BITMAP
FFC0
FFC0
C0C0
C0C0
CCC0
CCC0
F3C0
F3C0
C0C0
C0C0
ENDCHAR
STARTCHAR GREEK
ENCODING 983
SWIDTH 1280 0
DWIDTH 12 0
BBX 12 14 0 -4
BITMAP
C0C0
C0C0
3300
3300
3F00
3F00
3300
3300
C0F0
C0F0
0030
0030
00C0
00C0
ENDCHAR
STARTCHAR GREEK
ENCODING 984
SWIDTH 1066 0
DWIDTH 10 0
BBX 10 18 0 -4
BITMAP
3F00
3F00
C0C0
C0C0
C0C0
C0C0
C0C0
C0C0
C0C0
C0C0
C0C0
C0C0
3F00
3F00
0C00
0C00
0C00
0C00
ENDCHAR
STARTCHAR GREEK
ENCODING 985
SWIDTH 1066 0
DWIDTH 10 0
BBX 10 14 0 -4
BITMAP
3F00
3F00
C0C0
C0C0
C0C0
C0C0
C0C0
C0C0
3F00
3F00
0C00
0C00
0C00
0C00
ENDCHAR
STARTCHAR GREEK
ENCODING 986
SWIDTH 1066 0
DWIDTH 10 0
BBX 10 18 0 -4
BITMAP
3F00
3F00
C0C0
C0C0
C000
C000
C000
C000
C000
C000
C000
C000
3F00
3F00
00C0
00C0
0F00
0F00
ENDCHAR
STARTCHAR GREEK
ENCODING 987
SWIDTH 1066 0
DWIDTH 10 0
BBX 10 14 0 -4
BITMAP
3F00
3F00
C0C0
C0C0
C000
C000
C000
C000
3F00
3F00
00C0
00C0
0F00
0F00
ENDCHAR
STARTCHAR GREEK
ENCODING 988
SWIDTH 1280 0
DWIDTH 12 0
BBX 10 14 0 0
BITMAP
FFC0
FFC0
C000
C000
C000
C000
FF00
FF00
C300
C300
C000
C000
C000
C000
ENDCHAR
STARTCHAR GREEK
ENCODING 989
SWIDTH 852 0
DWIDTH 8 0
BBX 8 14 0 -4
BITMAP
FF
FF
C0
C0
FC
FC
CC
CC
C0
C0
C0
C0
C0
C0
ENDCHAR
STARTCHAR GREEK
ENCODING 990
SWIDTH 1280 0
DWIDTH 12 0
BBX 12 16 0 -4
BITMAP
C000
C000
3000
3000
30C0
30C0
33C0
33C0
3CC0
3CC0
30C0
30C0
00C0
00C0
0030
0030
ENDCHAR
STARTCHAR GREEK
ENCODING 991
SWIDTH 852 0
DWIDTH 8 0
BBX 8 14 0 -2
BITMAP
0C
0C
30
30
C0
C0
FF
FF
03
03
0C
0C
30
30
ENDCHAR
STARTCHAR GREEK
ENCODING 992
SWIDTH 852 0
DWIDTH 8 0
BBX 8 18 0 -4
BITMAP
C0
C0
30
30
0C
0C
3C
3C
C3
C3
0F
0F
33
33
03
03
03
03
ENDCHAR
STARTCHAR GREEK
ENCODING 993
SWIDTH 852 0
DWIDTH 8 0
BBX 8 18 0 -4
BITMAP
C0
C0
30
30
0C
0C
3C
3C
C3
C3
0F
0F
33
33
03
03
03
03
ENDCHAR
STARTCHAR COPTIC
ENCODING 994
SWIDTH 1066 0
DWIDTH 10 0
BBX 10 18 0 -4
BITMAP
CCC0
CCC0
CCC0
CCC0
CCC0
CCC0
CCC0
CCC0
CCC0
CCC0
CCC0
CCC0
33C0
33C0
00C0
00C0
FF00
FF00
ENDCHAR
STARTCHAR COPTIC
ENCODING 995
SWIDTH 1066 0
DWIDTH 10 0
BBX 10 14 0 -4
BITMAP
CCC0
CCC0
CCC0
CCC0
CCC0
CCC0
CCC0
CCC0
33C0
33C0
00C0
00C0
FF00
FF00
ENDCHAR
STARTCHAR COPTIC
ENCODING 996
SWIDTH 1066 0
DWIDTH 10 0
BBX 10 14 0 0
BITMAP
3CC0
3CC0
C0C0
C0C0
C0C0
C0C0
3FC0
3FC0
00C0
00C0
00C0
00C0
00C0
00C0
ENDCHAR
STARTCHAR COPTIC
ENCODING 997
SWIDTH 852 0
DWIDTH 8 0
BBX 8 12 0 0
BITMAP
33
33
C3
C3
C3
C3
3F
3F
03
03
03
03
ENDCHAR
STARTCHAR COPTIC
ENCODING 998
SWIDTH 1066 0
DWIDTH 10 0
BBX 10 18 0 -4
BITMAP
C000
C000
C000
C000
C000
C000
FF00
FF00
C0C0
C0C0
C0C0
C0C0
C0C0
C0C0
00C0
00C0
FF00
FF00
ENDCHAR
STARTCHAR COPTIC
ENCODING 999
SWIDTH 1066 0
DWIDTH 10 0
BBX 10 14 0 -2
BITMAP
0300
0300
3F00
3F00
CCC0
CCC0
30C0
30C0
00C0
00C0
3F00
3F00
C000
C000
ENDCHAR
STARTCHAR COPTIC
ENCODING 1000
SWIDTH 1066 0
DWIDTH 10 0
BBX 10 14 0 0
BITMAP
3F00
3F00
C0C0
C0C0
00C0
00C0
3F00
3F00
C000
C000
C0C0
C0C0
3F00
3F00
ENDCHAR
STARTCHAR COPTIC
ENCODING 1001
SWIDTH 1066 0
DWIDTH 10 0
BBX 10 14 0 0
BITMAP
3F00
3F00
C0C0
C0C0
00C0
00C0
3F00
3F00
C000
C000
C000
C000
3FC0
3FC0
ENDCHAR
STARTCHAR COPTIC
ENCODING 1002
SWIDTH 1066 0
DWIDTH 10 0
BBX 10 14 0 0
BITMAP
3300
3300
CCC0
CCC0
0C00
0C00
3300
3300
3300
3300
C0C0
C0C0
FFC0
FFC0
ENDCHAR
STARTCHAR COPTIC
ENCODING 1003
SWIDTH 1066 0
DWIDTH 10 0
BBX 10 10 0 0
BITMAP
3300
3300
CCC0
CCC0
0C00
0C00
3300
3300
3F00
3F00
ENDCHAR
STARTCHAR COPTIC
ENCODING 1004
SWIDTH 1066 0
DWIDTH 10 0
BBX 10 16 0 0
BITMAP
3FC0
3FC0
C000
C000
FF00
FF00
C0C0
C0C0
C0C0
C0C0
C0C0
C0C0
C0C0
C0C0
3F00
3F00
ENDCHAR
STARTCHAR COPTIC
ENCODING 1005
SWIDTH 1066 0
DWIDTH 10 0
BBX 10 14 0 0
BITMAP
3F00
3F00
C000
C000
CF00
CF00
C0C0
C0C0
C0C0
C0C0
C0C0
C0C0
3F00
3F00
ENDCHAR
STARTCHAR COPTIC
ENCODING 1006
SWIDTH 1066 0
DWIDTH 10 0
BBX 10 14 0 0
BITMAP
0C00
0C00
3F00
3F00
CCC0
CCC0
0C00
0C00
0C00
0C00
0C00
0C00
0C00
0C00
ENDCHAR
STARTCHAR COPTIC
ENCODING 1007
SWIDTH 1066 0
DWIDTH 10 0
BBX 10 14 0 0
BITMAP
0F00
0F00
0C00
0C00
FFC0
FFC0
CC00
CC00
0C00
0C00
0C00
0C00
3C00
3C00
ENDCHAR
STARTCHAR GREEK
ENCODING 1008
SWIDTH 1066 0
DWIDTH 10 0
BBX 10 10 0 0
BITMAP
F0C0
F0C0
3300
3300
3F00
3F00
3300
3300
C3C0
C3C0
ENDCHAR
STARTCHAR GREEK
ENCODING 1009
SWIDTH 1066 0
DWIDTH 10 0
BBX 10 16 0 -6
BITMAP
3F00
3F00
C0C0
C0C0
C0C0
C0C0
C0C0
C0C0
FF00
FF00
C000
C000
3F00
3F00
00C0
00C0
ENDCHAR
STARTCHAR GREEK
ENCODING 1010
SWIDTH 1066 0
DWIDTH 10 0
BBX 10 10 0 0
BITMAP
3FC0
3FC0
C000
C000
C000
C000
C000
C000
3FC0
3FC0
ENDCHAR
STARTCHAR GREEK
ENCODING 1011
SWIDTH 640 0
DWIDTH 6 0
BBX 6 18 0 -4
BITMAP
0C
0C
00
00
0C
0C
0C
0C
0C
0C
0C
0C
0C
0C
0C
0C
F0
F0
ENDCHAR
STARTCHAR GREEK
ENCODING 1012
SWIDTH 1066 0
DWIDTH 10 0
BBX 10 14 0 0
BITMAP
3F00
3F00
C0C0
C0C0
C0C0
C0C0
FFC0
FFC0
C0C0
C0C0
C0C0
C0C0
3F00
3F00
ENDCHAR
STARTCHAR GREEK
ENCODING 1013
SWIDTH 852 0
DWIDTH 8 0
BBX 8 10 0 0
BITMAP
3F
3F
C0
C0
FC
FC
C0
C0
3F
3F
ENDCHAR
STARTCHAR GREEK
ENCODING 1014
SWIDTH 852 0
DWIDTH 8 0
BBX 8 10 0 0
BITMAP
FC
FC
03
03
3F
3F
03
03
FC
FC
ENDCHAR
STARTCHAR GREEK
ENCODING 1015
SWIDTH 1066 0
DWIDTH 10 0
BBX 10 14 0 0
BITMAP
C000
C000
FF00
FF00
C0C0
C0C0
C0C0
C0C0
C0C0
C0C0
FF00
FF00
C000
C000
ENDCHAR
STARTCHAR GREEK
ENCODING 1016
SWIDTH 1066 0
DWIDTH 10 0
BBX 10 18 0 -4
BITMAP
C000
C000
C000
C000
FF00
FF00
C0C0
C0C0
C0C0
C0C0
C0C0
C0C0
FF00
FF00
C000
C000
C000
C000
ENDCHAR
STARTCHAR GREEK
ENCODING 1017
SWIDTH 1066 0
DWIDTH 10 0
BBX 10 14 0 0
BITMAP
3FC0
3FC0
C000
C000
C000
C000
C000
C000
C000
C000
C000
C000
3FC0
3FC0
ENDCHAR
STARTCHAR GREEK
ENCODING 1018
SWIDTH 1066 0
DWIDTH 10 0
BBX 10 14 0 0
BITMAP
C0C0
C0C0
F3C0
F3C0
CCC0
CCC0
C0C0
C0C0
C0C0
C0C0
C0C0
C0C0
C0C0
C0C0
ENDCHAR
STARTCHAR GREEK
ENCODING 1019
SWIDTH 1066 0
DWIDTH 10 0
BBX 10 12 0 -4
BITMAP
C0C0
C0C0
F3C0
F3C0
CCC0
CCC0
CCC0
CCC0
C000
C000
C000
C000
ENDCHAR
STARTCHAR GREEK
ENCODING 1020
SWIDTH 1066 0
DWIDTH 10 0
BBX 10 16 0 -6
BITMAP
3F00
3F00
C0C0
C0C0
C0C0
C0C0
C0C0
C0C0
FF00
FF00
C000
C000
F000
F000
C000
C000
ENDCHAR
STARTCHAR GREEK
ENCODING 1021
SWIDTH 1066 0
DWIDTH 10 0
BBX 10 14 0 0
BITMAP
3F00
3F00
C0C0
C0C0
00C0
00C0
00C0
00C0
00C0
00C0
C0C0
C0C0
3F00
3F00
ENDCHAR
STARTCHAR GREEK
ENCODING 1022
SWIDTH 1066 0
DWIDTH 10 0
BBX 10 14 0 0
BITMAP
3FC0
3FC0
C000
C000
C000
C000
CC00
CC00
C000
C000
C000
C000
3FC0
3FC0
ENDCHAR
STARTCHAR GREEK
ENCODING 1023
SWIDTH 1066 0
DWIDTH 10 0
BBX 10 14 0 0
BITMAP
FF00
FF00
00C0
00C0
00C0
00C0
0CC0
0CC0
00C0
00C0
00C0
00C0
FF00
FF00
ENDCHAR
STARTCHAR CYRILLIC
ENCODING 1025
SWIDTH 1280 0
DWIDTH 12 0
BBX 10 18 0 0
BITMAP
3300
3300
0000
0000
FFC0
FFC0
C000
C000
C000
C000
FF00
FF00
C000
C000
C000
C000
FFC0
FFC0
ENDCHAR
STARTCHAR CYRILLIC
ENCODING 1026
SWIDTH 1280 0
DWIDTH 12 0
BBX 10 16 0 -2
BITMAP
FF00
FF00
3000
3000
3F00
3F00
30C0
30C0
30C0
30C0
30C0
30C0
30C0
30C0
0300
0300
ENDCHAR
STARTCHAR CYRILLIC
ENCODING 1027
SWIDTH 1280 0
DWIDTH 12 0
BBX 8 18 2 0
BITMAP
0C
0C
30
30
FF
FF
C0
C0
C0
C0
C0
C0
C0
C0
C0
C0
C0
C0
ENDCHAR
STARTCHAR CYRILLIC
ENCODING 1028
SWIDTH 1280 0
DWIDTH 12 0
BBX 10 14 0 0
BITMAP
3F00
3F00
C0C0
C0C0
C000
C000
FC00
FC00
C000
C000
C0C0
C0C0
3F00
3F00
ENDCHAR
STARTCHAR CYRILLIC
ENCODING 1029
SWIDTH 1280 0
DWIDTH 12 0
BBX 10 14 0 0
BITMAP
3FC0
3FC0
C000
C000
C000
C000
3F00
3F00
00C0
00C0
00C0
00C0
FF00
FF00
ENDCHAR
STARTCHAR CYRILLIC
ENCODING 1030
SWIDTH 1280 0
DWIDTH 12 0
BBX 2 14 4 0
BITMAP
C0
C0
C0
C0
C0
C0
C0
C0
C0
C0
C0
C0
C0
C0
ENDCHAR
STARTCHAR CYRILLIC
ENCODING 1031
SWIDTH 1280 0
DWIDTH 12 0
BBX 6 18 2 0
BITMAP
CC
CC
00
00
30
30
30
30
30
30
30
30
30
30
30
30
30
30
ENDCHAR
STARTCHAR CYRILLIC
ENCODING 1032
SWIDTH 1280 0
DWIDTH 12 0
BBX 10 14 0 0
BITMAP
00C0
00C0
00C0
00C0
00C0
00C0
00C0
00C0
C0C0
C0C0
C0C0
C0C0
3F00
3F00
ENDCHAR
STARTCHAR CYRILLIC
ENCODING 1033
SWIDTH 1280 0
DWIDTH 12 0
BBX 12 14 0 0
BITMAP
0F00
0F00
3300
3300
3300
3300
33C0
33C0
3330
3330
3330
3330
C3C0
C3C0
ENDCHAR
STARTCHAR CYRILLIC
ENCODING 1034
SWIDTH 1280 0
DWIDTH 12 0
BBX 10 14 0 0
BITMAP
CC00
CC00
CC00
CC00
CC00
CC00
FF00
FF00
CCC0
CCC0
CCC0
CCC0
CF00
CF00
ENDCHAR
STARTCHAR CYRILLIC
ENCODING 1035
SWIDTH 1280 0
DWIDTH 12 0
BBX 10 14 0 0
BITMAP
FF00
FF00
3000
3000
3F00
3F00
30C0
30C0
30C0
30C0
30C0
30C0
30C0
30C0
ENDCHAR
STARTCHAR CYRILLIC
ENCODING 1036
SWIDTH 1280 0
DWIDTH 12 0
BBX 10 18 0 0
BITMAP
0300
0300
0C00
0C00
C0C0
C0C0
C300
C300
CC00
CC00
F000
F000
CC00
CC00
C300
C300
C0C0
C0C0
ENDCHAR
STARTCHAR CYRILLIC
ENCODING 1038
SWIDTH 1280 0
DWIDTH 12 0
BBX 10 18 0 0
BITMAP
3300
3300
0C00
0C00
C0C0
C0C0
C0C0
C0C0
C0C0
C0C0
3FC0
3FC0
00C0
00C0
C0C0
C0C0
3F00
3F00
ENDCHAR
STARTCHAR CYRILLIC
ENCODING 1039
SWIDTH 1280 0
DWIDTH 12 0
BBX 10 18 0 -4
BITMAP
C0C0
C0C0
C0C0
C0C0
C0C0
C0C0
C0C0
C0C0
C0C0
C0C0
C0C0
C0C0
FFC0
FFC0
0C00
0C00
0C00
0C00
ENDCHAR
STARTCHAR CYRILLIC
ENCODING 1040
SWIDTH 1280 0
DWIDTH 12 0
BBX 10 14 0 0
BITMAP
3F00
3F00
C0C0
C0C0
C0C0
C0C0
FFC0
FFC0
C0C0
C0C0
C0C0
C0C0
C0C0
C0C0
ENDCHAR
STARTCHAR CYRILLIC
ENCODING 1041
SWIDTH 1280 0
DWIDTH 12 0
BBX 10 14 0 0
BITMAP
FF00
FF00
C000
C000
C000
C000
FF00
FF00
C0C0
C0C0
C0C0
C0C0
FF00
FF00
ENDCHAR
STARTCHAR CYRILLIC
ENCODING 1042
SWIDTH 1280 0
DWIDTH 12 0
BBX 10 14 0 0
BITMAP
FF00
FF00
C0C0
C0C0
C0C0
C0C0
FF00
FF00
C0C0
C0C0
C0C0
C0C0
FF00
FF00
ENDCHAR
STARTCHAR CYRILLIC
ENCODING 1043
SWIDTH 1280 0
DWIDTH 12 0
BBX 8 14 2 0
BITMAP
FF
FF
C0
C0
C0
C0
C0
C0
C0
C0
C0
C0
C0
C0
ENDCHAR
STARTCHAR CYRILLIC
ENCODING 1044
SWIDTH 1280 0
DWIDTH 12 0
BBX 12 18 0 -4
BITMAP
0FC0
0FC0
30C0
30C0
30C0
30C0
30C0
30C0
30C0
30C0
30C0
30C0
FFF0
FFF0
C030
C030
C030
C030
ENDCHAR
STARTCHAR CYRILLIC
ENCODING 1045
SWIDTH 1280 0
DWIDTH 12 0
BBX 10 14 0 0
BITMAP
FFC0
FFC0
C000
C000
C000
C000
FF00
FF00
C000
C000
C000
C000
FFC0
FFC0
ENDCHAR
STARTCHAR CYRILLIC
ENCODING 1046
SWIDTH 1280 0
DWIDTH 12 0
BBX 10 14 0 0
BITMAP
CCC0
CCC0
CCC0
CCC0
CCC0
CCC0
3F00
3F00
CCC0
CCC0
CCC0
CCC0
CCC0
CCC0
ENDCHAR
STARTCHAR CYRILLIC
ENCODING 1047
SWIDTH 1280 0
DWIDTH 12 0
BBX 10 14 0 0
BITMAP
3F00
3F00
C0C0
C0C0
00C0
00C0
0F00
0F00
00C0
00C0
C0C0
C0C0
3F00
3F00
ENDCHAR
STARTCHAR CYRILLIC
ENCODING 1048
SWIDTH 1280 0
DWIDTH 12 0
BBX 10 14 0 0
BITMAP
C0C0
C0C0
C0C0
C0C0
C3C0
C3C0
CCC0
CCC0
F0C0
F0C0
C0C0
C0C0
C0C0
C0C0
ENDCHAR
STARTCHAR CYRILLIC
ENCODING 1049
SWIDTH 1280 0
DWIDTH 12 0
BBX 10 18 0 0
BITMAP
3300
3300
0C00
0C00
C0C0
C0C0
C0C0
C0C0
C3C0
C3C0
CCC0
CCC0
F0C0
F0C0
C0C0
C0C0
C0C0
C0C0
ENDCHAR
STARTCHAR CYRILLIC
ENCODING 1050
SWIDTH 1280 0
DWIDTH 12 0
BBX 10 14 0 0
BITMAP
C0C0
C0C0
C300
C300
CC00
CC00
F000
F000
CC00
CC00
C300
C300
C0C0
C0C0
ENDCHAR
STARTCHAR CYRILLIC
ENCODING 1051
SWIDTH 1280 0
DWIDTH 12 0
BBX 10 14 0 0
BITMAP
0FC0
0FC0
30C0
30C0
30C0
30C0
30C0
30C0
30C0
30C0
30C0
30C0
C0C0
C0C0
ENDCHAR
STARTCHAR CYRILLIC
ENCODING 1052
SWIDTH 1280 0
DWIDTH 12 0
BBX 10 14 0 0
BITMAP
C0C0
C0C0
F3C0
F3C0
CCC0
CCC0
C0C0
C0C0
C0C0
C0C0
C0C0
C0C0
C0C0
C0C0
ENDCHAR
STARTCHAR CYRILLIC
ENCODING 1053
SWIDTH 1280 0
DWIDTH 12 0
BBX 10 14 0 0
BITMAP
C0C0
C0C0
C0C0
C0C0
C0C0
C0C0
FFC0
FFC0
C0C0
C0C0
C0C0
C0C0
C0C0
C0C0
ENDCHAR
STARTCHAR CYRILLIC
ENCODING 1054
SWIDTH 1280 0
DWIDTH 12 0
BBX 10 14 0 0
BITMAP
3F00
3F00
C0C0
C0C0
C0C0
C0C0
C0C0
C0C0
C0C0
C0C0
C0C0
C0C0
3F00
3F00
ENDCHAR
STARTCHAR CYRILLIC
ENCODING 1055
SWIDTH 1280 0
DWIDTH 12 0
BBX 10 14 0 0
BITMAP
FFC0
FFC0
C0C0
C0C0
C0C0
C0C0
C0C0
C0C0
C0C0
C0C0
C0C0
C0C0
C0C0
C0C0
ENDCHAR
STARTCHAR CYRILLIC
ENCODING 1056
SWIDTH 1280 0
DWIDTH 12 0
BBX 10 14 0 0
BITMAP
FF00
FF00
C0C0
C0C0
C0C0
C0C0
FF00
FF00
C000
C000
C000
C000
C000
C000
ENDCHAR
STARTCHAR CYRILLIC
ENCODING 1057
SWIDTH 1280 0
DWIDTH 12 0
BBX 10 14 0 0
BITMAP
3FC0
3FC0
C000
C000
C000
C000
C000
C000
C000
C000
C000
C000
3FC0
3FC0
ENDCHAR
STARTCHAR CYRILLIC
ENCODING 1058
SWIDTH 1280 0
DWIDTH 12 0
BBX 10 14 0 0
BITMAP
FFC0
FFC0
0C00
0C00
0C00
0C00
0C00
0C00
0C00
0C00
0C00
0C00
0C00
0C00
ENDCHAR
STARTCHAR CYRILLIC
ENCODING 1059
SWIDTH 1280 0
DWIDTH 12 0
BBX 10 14 0 0
BITMAP
C0C0
C0C0
C0C0
C0C0
C0C0
C0C0
3FC0
3FC0
00C0
00C0
C0C0
C0C0
3F00
3F00
ENDCHAR
STARTCHAR CYRILLIC
ENCODING 1060
SWIDTH 1280 0
DWIDTH 12 0
BBX 10 14 0 0
BITMAP
0C00
0C00
3F00
3F00
CCC0
CCC0
CCC0
CCC0
CCC0
CCC0
3F00
3F00
0C00
0C00
ENDCHAR
STARTCHAR CYRILLIC
ENCODING 1061
SWIDTH 1280 0
DWIDTH 12 0
BBX 10 14 0 0
BITMAP
C0C0
C0C0
3300
3300
0C00
0C00
0C00
0C00
0C00
0C00
3300
3300
C0C0
C0C0
ENDCHAR
STARTCHAR CYRILLIC
ENCODING 1062
SWIDTH 1280 0
DWIDTH 12 0
BBX 12 18 0 -4
BITMAP
C0C0
C0C0
C0C0
C0C0
C0C0
C0C0
C0C0
C0C0
C0C0
C0C0
C0C0
C0C0
FFF0
FFF0
0030
0030
0030
0030
ENDCHAR
STARTCHAR CYRILLIC
ENCODING 1063
SWIDTH 1280 0
DWIDTH 12 0
BBX 10 14 0 0
BITMAP
C0C0
C0C0
C0C0
C0C0
C0C0
C0C0
3FC0
3FC0
00C0
00C0
00C0
00C0
00C0
00C0
ENDCHAR
STARTCHAR CYRILLIC
ENCODING 1064
SWIDTH 1280 0
DWIDTH 12 0
BBX 10 14 0 0
BITMAP
CCC0
CCC0
CCC0
CCC0
CCC0
CCC0
CCC0
CCC0
CCC0
CCC0
CCC0
CCC0
FFC0
FFC0
ENDCHAR
STARTCHAR CYRILLIC
ENCODING 1065
SWIDTH 1280 0
DWIDTH 12 0
BBX 12 18 0 -4
BITMAP
CCC0
CCC0
CCC0
CCC0
CCC0
CCC0
CCC0
CCC0
CCC0
CCC0
CCC0
CCC0
FFF0
FFF0
0030
0030
0030
0030
ENDCHAR
STARTCHAR CYRILLIC
ENCODING 1066
SWIDTH 1280 0
DWIDTH 12 0
BBX 10 14 0 0
BITMAP
F000
F000
3000
3000
3000
3000
3F00
3F00
30C0
30C0
30C0
30C0
3F00
3F00
ENDCHAR
STARTCHAR CYRILLIC
ENCODING 1067
SWIDTH 1280 0
DWIDTH 12 0
BBX 10 14 0 0
BITMAP
C0C0
C0C0
C0C0
C0C0
C0C0
C0C0
FCC0
FCC0
C3C0
C3C0
C3C0
C3C0
FCC0
FCC0
ENDCHAR
STARTCHAR CYRILLIC
ENCODING 1068
SWIDTH 1280 0
DWIDTH 12 0
BBX 10 14 0 0
BITMAP
C000
C000
C000
C000
C000
C000
FF00
FF00
C0C0
C0C0
C0C0
C0C0
FF00
FF00
ENDCHAR
STARTCHAR CYRILLIC
ENCODING 1069
SWIDTH 1280 0
DWIDTH 12 0
BBX 10 14 0 0
BITMAP
3F00
3F00
C0C0
C0C0
00C0
00C0
3FC0
3FC0
00C0
00C0
C0C0
C0C0
3F00
3F00
ENDCHAR
STARTCHAR CYRILLIC
ENCODING 1070
SWIDTH 1280 0
DWIDTH 12 0
BBX 10 14 0 0
BITMAP
C300
C300
CCC0
CCC0
CCC0
CCC0
FCC0
FCC0
CCC0
CCC0
CCC0
CCC0
C300
C300
ENDCHAR
STARTCHAR CYRILLIC
ENCODING 1071
SWIDTH 1280 0
DWIDTH 12 0
BBX 10 14 0 0
BITMAP
0FC0
0FC0
30C0
30C0
30C0
30C0
0FC0
0FC0
0CC0
0CC0
30C0
30C0
C0C0
C0C0
ENDCHAR
STARTCHAR CYRILLIC
ENCODING 1072
SWIDTH 1280 0
DWIDTH 12 0
BBX 10 10 0 0
BITMAP
3FC0
3FC0
C0C0
C0C0
C0C0
C0C0
C3C0
C3C0
3CC0
3CC0
ENDCHAR
STARTCHAR CYRILLIC
ENCODING 1073
SWIDTH 1280 0
DWIDTH 12 0
BBX 10 16 0 0
BITMAP
00C0
00C0
3F00
3F00
C000
C000
FF00
FF00
C0C0
C0C0
C0C0
C0C0
C0C0
C0C0
3F00
3F00
ENDCHAR
STARTCHAR CYRILLIC
ENCODING 1074
SWIDTH 1280 0
DWIDTH 12 0
BBX 10 10 0 0
BITMAP
FF00
FF00
C0C0
C0C0
FF00
FF00
C0C0
C0C0
FF00
FF00
ENDCHAR
STARTCHAR CYRILLIC
ENCODING 1075
SWIDTH 1280 0
DWIDTH 12 0
BBX 8 10 2 0
BITMAP
FF
FF
C0
C0
C0
C0
C0
C0
C0
C0
ENDCHAR
STARTCHAR CYRILLIC
ENCODING 1076
SWIDTH 1280 0
DWIDTH 12 0
BBX 12 14 0 -4
BITMAP
0FC0
0FC0
30C0
30C0
30C0
30C0
30C0
30C0
FFF0
FFF0
C030
C030
C030
C030
ENDCHAR
STARTCHAR CYRILLIC
ENCODING 1077
SWIDTH 1280 0
DWIDTH 12 0
BBX 10 10 0 0
BITMAP
3F00
3F00
C0C0
C0C0
FFC0
FFC0
C000
C000
3FC0
3FC0
ENDCHAR
STARTCHAR CYRILLIC
ENCODING 1078
SWIDTH 1280 0
DWIDTH 12 0
BBX 10 10 0 0
BITMAP
CCC0
CCC0
CCC0
CCC0
3F00
3F00
CCC0
CCC0
CCC0
CCC0
ENDCHAR
STARTCHAR CYRILLIC
ENCODING 1079
SWIDTH 1280 0
DWIDTH 12 0
BBX 10 10 0 0
BITMAP
3F00
3F00
C0C0
C0C0
0F00
0F00
C0C0
C0C0
3F00
3F00
ENDCHAR
STARTCHAR CYRILLIC
ENCODING 1080
SWIDTH 1280 0
DWIDTH 12 0
BBX 10 10 0 0
BITMAP
C0C0
C0C0
C3C0
C3C0
CCC0
CCC0
F0C0
F0C0
C0C0
C0C0
ENDCHAR
STARTCHAR CYRILLIC
ENCODING 1081
SWIDTH 1280 0
DWIDTH 12 0
BBX 10 14 0 0
BITMAP
3300
3300
0C00
0C00
C0C0
C0C0
C3C0
C3C0
CCC0
CCC0
F0C0
F0C0
C0C0
C0C0
ENDCHAR
STARTCHAR CYRILLIC
ENCODING 1082
SWIDTH 1280 0
DWIDTH 12 0
BBX 10 10 0 0
BITMAP
C0C0
C0C0
C300
C300
FC00
FC00
C300
C300
C0C0
C0C0
ENDCHAR
STARTCHAR CYRILLIC
ENCODING 1083
SWIDTH 1280 0
DWIDTH 12 0
BBX 10 10 0 0
BITMAP
0FC0
0FC0
30C0
30C0
30C0
30C0
30C0
30C0
C0C0
C0C0
ENDCHAR
STARTCHAR CYRILLIC
ENCODING 1084
SWIDTH 1280 0
DWIDTH 12 0
BBX 10 10 0 0
BITMAP
C0C0
C0C0
F3C0
F3C0
CCC0
CCC0
C0C0
C0C0
C0C0
C0C0
ENDCHAR
STARTCHAR CYRILLIC
ENCODING 1085
SWIDTH 1280 0
DWIDTH 12 0
BBX 10 10 0 0
BITMAP
C0C0
C0C0
C0C0
C0C0
FFC0
FFC0
C0C0
C0C0
C0C0
C0C0
ENDCHAR
STARTCHAR CYRILLIC
ENCODING 1086
SWIDTH 1280 0
DWIDTH 12 0
BBX 10 10 0 0
BITMAP
3F00
3F00
C0C0
C0C0
C0C0
C0C0
C0C0
C0C0
3F00
3F00
ENDCHAR
STARTCHAR CYRILLIC
ENCODING 1087
SWIDTH 1280 0
DWIDTH 12 0
BBX 10 10 0 0
BITMAP
FFC0
FFC0
C0C0
C0C0
C0C0
C0C0
C0C0
C0C0
C0C0
C0C0
ENDCHAR
STARTCHAR CYRILLIC
ENCODING 1088
SWIDTH 1280 0
DWIDTH 12 0
BBX 10 14 0 -4
BITMAP
FF00
FF00
C0C0
C0C0
C0C0
C0C0
C0C0
C0C0
FF00
FF00
C000
C000
C000
C000
ENDCHAR
STARTCHAR CYRILLIC
ENCODING 1089
SWIDTH 1280 0
DWIDTH 12 0
BBX 10 10 0 0
BITMAP
3F00
3F00
C0C0
C0C0
C000
C000
C0C0
C0C0
3F00
3F00
ENDCHAR
STARTCHAR CYRILLIC
ENCODING 1090
SWIDTH 1280 0
DWIDTH 12 0
BBX 10 10 0 0
BITMAP
FFC0
FFC0
0C00
0C00
0C00
0C00
0C00
0C00
0C00
0C00
ENDCHAR
STARTCHAR CYRILLIC
ENCODING 1091
SWIDTH 1280 0
DWIDTH 12 0
BBX 10 14 0 -4
BITMAP
C0C0
C0C0
C0C0
C0C0
C0C0
C0C0
C0C0
C0C0
3FC0
3FC0
00C0
00C0
3F00
3F00
ENDCHAR
STARTCHAR CYRILLIC
ENCODING 1092
SWIDTH 1280 0
DWIDTH 12 0
BBX 10 18 0 -4
BITMAP
0C00
0C00
0C00
0C00
3F00
3F00
CCC0
CCC0
CCC0
CCC0
CCC0
CCC0
3F00
3F00
0C00
0C00
0C00
0C00
ENDCHAR
STARTCHAR CYRILLIC
ENCODING 1093
SWIDTH 1280 0
DWIDTH 12 0
BBX 10 10 0 0
BITMAP
C0C0
C0C0
3300
3300
0C00
0C00
3300
3300
C0C0
C0C0
ENDCHAR
STARTCHAR CYRILLIC
ENCODING 1094
SWIDTH 1280 0
DWIDTH 12 0
BBX 12 14 0 -4
BITMAP
C0C0
C0C0
C0C0
C0C0
C0C0
C0C0
C0C0
C0C0
FFF0
FFF0
0030
0030
0030
0030
ENDCHAR
STARTCHAR CYRILLIC
ENCODING 1095
SWIDTH 1280 0
DWIDTH 12 0
BBX 10 10 0 0
BITMAP
C0C0
C0C0
C0C0
C0C0
3FC0
3FC0
00C0
00C0
00C0
00C0
ENDCHAR
STARTCHAR CYRILLIC
ENCODING 1096
SWIDTH 1280 0
DWIDTH 12 0
BBX 10 10 0 0
BITMAP
CCC0
CCC0
CCC0
CCC0
CCC0
CCC0
CCC0
CCC0
FFC0
FFC0
ENDCHAR
STARTCHAR CYRILLIC
ENCODING 1097
SWIDTH 1280 0
DWIDTH 12 0
BBX 12 14 0 -4
BITMAP
CCC0
CCC0
CCC0
CCC0
CCC0
CCC0
CCC0
CCC0
FFF0
FFF0
0030
0030
0030
0030
ENDCHAR
STARTCHAR CYRILLIC
ENCODING 1098
SWIDTH 1280 0
DWIDTH 12 0
BBX 10 10 0 0
BITMAP
F000
F000
3000
3000
3F00
3F00
30C0
30C0
3F00
3F00
ENDCHAR
STARTCHAR CYRILLIC
ENCODING 1099
SWIDTH 1280 0
DWIDTH 12 0
BBX 10 10 0 0
BITMAP
C0C0
C0C0
C0C0
C0C0
FCC0
FCC0
C3C0
C3C0
FCC0
FCC0
ENDCHAR
STARTCHAR CYRILLIC
ENCODING 1100
SWIDTH 1280 0
DWIDTH 12 0
BBX 10 10 0 0
BITMAP
C000
C000
C000
C000
FF00
FF00
C0C0
C0C0
FF00
FF00
ENDCHAR
STARTCHAR CYRILLIC
ENCODING 1101
SWIDTH 1280 0
DWIDTH 12 0
BBX 10 10 0 0
BITMAP
FF00
FF00
00C0
00C0
3FC0
3FC0
00C0
00C0
FF00
FF00
ENDCHAR
STARTCHAR CYRILLIC
ENCODING 1102
SWIDTH 1280 0
DWIDTH 12 0
BBX 10 10 0 0
BITMAP
C300
C300
CCC0
CCC0
FCC0
FCC0
CCC0
CCC0
C300
C300
ENDCHAR
STARTCHAR CYRILLIC
ENCODING 1103
SWIDTH 1280 0
DWIDTH 12 0
BBX 10 10 0 0
BITMAP
3FC0
3FC0
C0C0
C0C0
3FC0
3FC0
30C0
30C0
C0C0
C0C0
ENDCHAR
STARTCHAR CYRILLIC
ENCODING 1105
SWIDTH 1280 0
DWIDTH 12 0
BBX 10 14 0 0
BITMAP
3300
3300
0000
0000
3F00
3F00
C0C0
C0C0
FFC0
FFC0
C000
C000
3FC0
3FC0
ENDCHAR
STARTCHAR CYRILLIC
ENCODING 1106
SWIDTH 1280 0
DWIDTH 12 0
BBX 10 16 0 -2
BITMAP
3000
3000
3000
3000
FF00
FF00
3000
3000
3F00
3F00
30C0
30C0
30C0
30C0
0300
0300
ENDCHAR
STARTCHAR CYRILLIC
ENCODING 1107
SWIDTH 1280 0
DWIDTH 12 0
BBX 8 16 2 0
BITMAP
0C
0C
30
30
00
00
FF
FF
C0
C0
C0
C0
C0
C0
C0
C0
ENDCHAR
STARTCHAR CYRILLIC
ENCODING 1108
SWIDTH 1280 0
DWIDTH 12 0
BBX 10 10 0 0
BITMAP
3F00
3F00
C0C0
C0C0
FC00
FC00
C000
C000
3FC0
3FC0
ENDCHAR
STARTCHAR CYRILLIC
ENCODING 1109
SWIDTH 1280 0
DWIDTH 12 0
BBX 10 10 0 0
BITMAP
3FC0
3FC0
C000
C000
3F00
3F00
00C0
00C0
FF00
FF00
ENDCHAR
STARTCHAR CYRILLIC
ENCODING 1110
SWIDTH 1280 0
DWIDTH 12 0
BBX 2 14 4 0
BITMAP
C0
C0
00
00
C0
C0
C0
C0
C0
C0
C0
C0
C0
C0
ENDCHAR
STARTCHAR CYRILLIC
ENCODING 1111
SWIDTH 1280 0
DWIDTH 12 0
BBX 6 14 2 0
BITMAP
CC
CC
00
00
30
30
30
30
30
30
30
30
30
30
ENDCHAR
STARTCHAR CYRILLIC
ENCODING 1112
SWIDTH 1280 0
DWIDTH 12 0
BBX 6 18 0 -4
BITMAP
0C
0C
00
00
0C
0C
0C
0C
0C
0C
0C
0C
0C
0C
0C
0C
F0
F0
ENDCHAR
STARTCHAR CYRILLIC
ENCODING 1113
SWIDTH 1280 0
DWIDTH 12 0
BBX 12 10 0 0
BITMAP
0F00
0F00
3300
3300
33C0
33C0
3330
3330
C3C0
C3C0
ENDCHAR
STARTCHAR CYRILLIC
ENCODING 1114
SWIDTH 1280 0
DWIDTH 12 0
BBX 10 10 0 0
BITMAP
CC00
CC00
CC00
CC00
FF00
FF00
CCC0
CCC0
CF00
CF00
ENDCHAR
STARTCHAR CYRILLIC
ENCODING 1115
SWIDTH 1280 0
DWIDTH 12 0
BBX 10 14 0 0
BITMAP
3000
3000
3000
3000
FF00
FF00
3000
3000
3F00
3F00
30C0
30C0
30C0
30C0
ENDCHAR
STARTCHAR CYRILLIC
ENCODING 1116
SWIDTH 1280 0
DWIDTH 12 0
BBX 10 16 0 0
BITMAP
0300
0300
0C00
0C00
0000
0000
C0C0
C0C0
C300
C300
FC00
FC00
C300
C300
C0C0
C0C0
ENDCHAR
STARTCHAR CYRILLIC
ENCODING 1118
SWIDTH 1280 0
DWIDTH 12 0
BBX 10 18 0 -4
BITMAP
3300
3300
0C00
0C00
C0C0
C0C0
C0C0
C0C0
C0C0
C0C0
C0C0
C0C0
3FC0
3FC0
00C0
00C0
3F00
3F00
ENDCHAR
STARTCHAR CYRILLIC
ENCODING 1119
SWIDTH 1280 0
DWIDTH 12 0
BBX 10 14 0 -4
BITMAP
C0C0
C0C0
C0C0
C0C0
C0C0
C0C0
C0C0
C0C0
FFC0
FFC0
0C00
0C00
0C00
0C00
ENDCHAR
STARTCHAR CYRILLIC
ENCODING 1168
SWIDTH 1280 0
DWIDTH 12 0
BBX 8 18 2 0
BITMAP
03
03
03
03
FF
FF
C0
C0
C0
C0
C0
C0
C0
C0
C0
C0
C0
C0
ENDCHAR
STARTCHAR CYRILLIC
ENCODING 1169
SWIDTH 1280 0
DWIDTH 12 0
BBX 8 14 2 0
BITMAP
03
03
03
03
FF
FF
C0
C0
C0
C0
C0
C0
C0
C0
ENDCHAR
STARTCHAR NKO
ENCODING 2040
SWIDTH 1280 0
DWIDTH 12 0
BBX 12 8 0 -4
BITMAP
FFF0
FFF0
FFF0
FFF0
FFF0
FFF0
FFF0
FFF0
ENDCHAR
STARTCHAR NKO
ENCODING 2041
SWIDTH 1280 0
DWIDTH 12 0
BBX 12 8 0 -4
BITMAP
3330
3330
CCC0
CCC0
3330
3330
CCC0
CCC0
ENDCHAR
STARTCHAR NKO
ENCODING 2042
SWIDTH 1280 0
DWIDTH 12 0
BBX 10 18 0 -4
BITMAP
CCC0
CCC0
0000
0000
CCC0
CCC0
0000
0000
CCC0
CCC0
0000
0000
CCC0
CCC0
0000
0000
CCC0
CCC0
ENDCHAR
STARTCHAR KANNADA
ENCODING 3232
SWIDTH 1280 0
DWIDTH 12 0
BBX 12 14 0 0
BITMAP
03C0
03C0
0030
0030
FFC0
FFC0
3030
3030
3330
3330
3030
3030
0FC0
0FC0
ENDCHAR
STARTCHAR HYPHEN
ENCODING 8208
SWIDTH 1280 0
DWIDTH 12 0
BBX 6 2 2 6
BITMAP
FC
FC
ENDCHAR
STARTCHAR NON-BREAKING
ENCODING 8209
SWIDTH 1280 0
DWIDTH 12 0
BBX 6 2 2 6
BITMAP
FC
FC
ENDCHAR
STARTCHAR FIGURE
ENCODING 8210
SWIDTH 1280 0
DWIDTH 12 0
BBX 8 2 2 6
BITMAP
FF
FF
ENDCHAR
STARTCHAR EN
ENCODING 8211
SWIDTH 1280 0
DWIDTH 12 0
BBX 8 2 2 6
BITMAP
FF
FF
ENDCHAR
STARTCHAR EM
ENCODING 8212
SWIDTH 1280 0
DWIDTH 12 0
BBX 12 2 0 6
BITMAP
FFF0
FFF0
ENDCHAR
STARTCHAR HORIZONTAL
ENCODING 8213
SWIDTH 1280 0
DWIDTH 12 0
BBX 14 2 0 6
BITMAP
FFFC
FFFC
ENDCHAR
STARTCHAR DOUBLE
ENCODING 8215
SWIDTH 1280 0
DWIDTH 12 0
BBX 10 2 0 0
BITMAP
FFC0
FFC0
ENDCHAR
STARTCHAR LEFT
ENCODING 8216
SWIDTH 1280 0
DWIDTH 12 0
BBX 4 6 4 8
BITMAP
30
30
C0
C0
F0
F0
ENDCHAR
STARTCHAR RIGHT
ENCODING 8217
SWIDTH 1280 0
DWIDTH 12 0
BBX 4 6 4 8
BITMAP
F0
F0
30
30
C0
C0
ENDCHAR
STARTCHAR SINGLE
ENCODING 8218
SWIDTH 1280 0
DWIDTH 12 0
BBX 4 8 4 -4
BITMAP
F0
F0
F0
F0
30
30
C0
C0
ENDCHAR
STARTCHAR SINGLE
ENCODING 8219
SWIDTH 1280 0
DWIDTH 12 0
BBX 4 6 4 8
BITMAP
F0
F0
C0
C0
30
30
ENDCHAR
STARTCHAR LEFT
ENCODING 8220
SWIDTH 1280 0
DWIDTH 12 0
BBX 8 6 2 8
BITMAP
33
33
CC
CC
FF
FF
ENDCHAR
STARTCHAR RIGHT
ENCODING 8221
SWIDTH 1280 0
DWIDTH 12 0
BBX 8 6 2 8
BITMAP
FF
FF
33
33
CC
CC
ENDCHAR
STARTCHAR DOUBLE
ENCODING 8222
SWIDTH 1280 0
DWIDTH 12 0
BBX 8 6 2 -2
BITMAP
FF
FF
33
33
CC
CC
ENDCHAR
STARTCHAR DOUBLE
ENCODING 8223
SWIDTH 1280 0
DWIDTH 12 0
BBX 8 6 2 8
BITMAP
FF
FF
CC
CC
33
33
ENDCHAR
STARTCHAR DAGGER
ENCODING 8224
SWIDTH 1280 0
DWIDTH 12 0
BBX 6 12 2 2
BITMAP
30
30
FC
FC
30
30
30
30
30
30
30
30
ENDCHAR
STARTCHAR DOUBLE
ENCODING 8225
SWIDTH 1280 0
DWIDTH 12 0
BBX 6 18 2 -4
BITMAP
30
30
30
30
FC
FC
30
30
30
30
30
30
FC
FC
30
30
30
30
ENDCHAR
STARTCHAR BULLET
ENCODING 8226
SWIDTH 1280 0
DWIDTH 12 0
BBX 10 10 0 2
BITMAP
3F00
3F00
FFC0
FFC0
FFC0
FFC0
FFC0
FFC0
3F00
3F00
ENDCHAR
STARTCHAR TRIANGULAR
ENCODING 8227
SWIDTH 1280 0
DWIDTH 12 0
BBX 12 12 0 0
BITMAP
F000
F000
FF00
FF00
FFF0
FFF0
FFF0
FFF0
FF00
FF00
F000
F000
ENDCHAR
STARTCHAR ONE
ENCODING 8228
SWIDTH 1280 0
DWIDTH 12 0
BBX 2 2 4 0
BITMAP
C0
C0
ENDCHAR
STARTCHAR TWO
ENCODING 8229
SWIDTH 1280 0
DWIDTH 12 0
BBX 6 2 2 0
BITMAP
FC
FC
ENDCHAR
STARTCHAR HORIZONTAL
ENCODING 8230
SWIDTH 1280 0
DWIDTH 12 0
BBX 10 2 0 0
BITMAP
CCC0
CCC0
ENDCHAR
STARTCHAR HYPHENATION
ENCODING 8231
SWIDTH 1280 0
DWIDTH 12 0
BBX 2 2 4 4
BITMAP
C0
C0
ENDCHAR
STARTCHAR PER
ENCODING 8240
SWIDTH 1280 0
DWIDTH 12 0
BBX 14 14 -2 0
BITMAP
30C0
30C0
CCC0
CCC0
3300
3300
0C00
0C00
3330
3330
CCCC
CCCC
C330
C330
ENDCHAR
STARTCHAR PER
ENCODING 8241
SWIDTH 1280 0
DWIDTH 12 0
BBX 18 14 -4 0
BITMAP
30C000
30C000
CCC000
CCC000
330000
330000
0C0000
0C0000
333300
333300
CCCCC0
CCCCC0
C33300
C33300
ENDCHAR
STARTCHAR SINGLE
ENCODING 8249
SWIDTH 1280 0
DWIDTH 12 0
BBX 4 8 2 2
BITMAP
30
30
C0
C0
C0
C0
30
30
ENDCHAR
STARTCHAR SINGLE
ENCODING 8250
SWIDTH 1280 0
DWIDTH 12 0
BBX 4 8 4 2
BITMAP
C0
C0
30
30
30
30
C0
C0
ENDCHAR
STARTCHAR UNDERTIE
ENCODING 8255
SWIDTH 1066 0
DWIDTH 10 0
BBX 10 4 0 0
BITMAP
C0C0
C0C0
3F00
3F00
ENDCHAR
STARTCHAR FRACTION
ENCODING 8260
SWIDTH 1280 0
DWIDTH 12 0
BBX 10 18 0 -2
BITMAP
00C0
00C0
00C0
00C0
0300
0300
0300
0300
0C00
0C00
3000
3000
3000
3000
C000
C000
C000
C000
ENDCHAR
STARTCHAR REVERSED
ENCODING 8267
SWIDTH 1280 0
DWIDTH 12 0
BBX 12 16 0 0
BITMAP
FFC0
FFC0
33F0
33F0
33F0
33F0
33F0
33F0
3FC0
3FC0
3300
3300
3300
3300
F300
F300
ENDCHAR
STARTCHAR EURO
ENCODING 8364
SWIDTH 1280 0
DWIDTH 12 0
BBX 10 14 0 0
BITMAP
0F00
0F00
30C0
30C0
FC00
FC00
3000
3000
FC00
FC00
30C0
30C0
0F00
0F00
ENDCHAR
STARTCHAR NUMERO
ENCODING 8470
SWIDTH 1280 0
DWIDTH 12 0
BBX 14 14 -2 0
BITMAP
C300
C300
C300
C300
F330
F330
FFCC
FFCC
CF30
CF30
C300
C300
C3FC
C3FC
ENDCHAR
STARTCHAR TRADE
ENCODING 8482
SWIDTH 1280 0
DWIDTH 12 0
BBX 12 6 0 8
BITMAP
FF30
FF30
33F0
33F0
33F0
33F0
ENDCHAR
STARTCHAR SCRIPT
ENCODING 8495
SWIDTH 1066 0
DWIDTH 10 0
BBX 10 10 0 0
BITMAP
3C00
3C00
C300
C300
FC00
FC00
C0C0
C0C0
3F00
3F00
ENDCHAR
STARTCHAR SCRIPT
ENCODING 8499
SWIDTH 1280 0
DWIDTH 12 0
BBX 12 14 0 0
BITMAP
0CC0
0CC0
0CC0
0CC0
3FC0
3FC0
3FC0
3FC0
3CC0
3CC0
CCC0
CCC0
C0F0
C0F0
ENDCHAR
STARTCHAR SCRIPT
ENCODING 8500
SWIDTH 1280 0
DWIDTH 12 0
BBX 12 10 0 0
BITMAP
3C00
3C00
C330
C330
C3C0
C3C0
C300
C300
3C00
3C00
ENDCHAR
STARTCHAR ROMAN
ENCODING 8556
SWIDTH 1066 0
DWIDTH 10 0
BBX 8 14 2 0
BITMAP
C0
C0
C0
C0
C0
C0
C0
C0
C0
C0
C0
C0
FF
FF
ENDCHAR
STARTCHAR LEFTWARDS
ENCODING 8592
SWIDTH 1280 0
DWIDTH 12 0
BBX 14 10 -2 2
BITMAP
0C00
0C00
3000
3000
FFFC
FFFC
3000
3000
0C00
0C00
ENDCHAR
STARTCHAR UPWARDS
ENCODING 8593
SWIDTH 1066 0
DWIDTH 10 0
BBX 10 14 0 0
BITMAP
0C00
0C00
3F00
3F00
CCC0
CCC0
0C00
0C00
0C00
0C00
0C00
0C00
0C00
0C00
ENDCHAR
STARTCHAR RIGHTWARDS
ENCODING 8594
SWIDTH 1280 0
DWIDTH 12 0
BBX 14 10 -2 2
BITMAP
00C0
00C0
0030
0030
FFFC
FFFC
0030
0030
00C0
00C0
ENDCHAR
STARTCHAR DOWNWARDS
ENCODING 8595
SWIDTH 1280 0
DWIDTH 12 0
BBX 10 14 0 0
BITMAP
0C00
0C00
0C00
0C00
0C00
0C00
0C00
0C00
CCC0
CCC0
3F00
3F00
0C00
0C00
ENDCHAR
STARTCHAR LEFT
ENCODING 8596
SWIDTH 1280 0
DWIDTH 12 0
BBX 12 6 0 4
BITMAP
30C0
30C0
FFF0
FFF0
30C0
30C0
ENDCHAR
STARTCHAR UP
ENCODING 8597
SWIDTH 1066 0
DWIDTH 10 0
BBX 10 18 0 -4
BITMAP
0C00
0C00
3F00
3F00
CCC0
CCC0
0C00
0C00
0C00
0C00
0C00
0C00
CCC0
CCC0
3F00
3F00
0C00
0C00
ENDCHAR
STARTCHAR NORTH
ENCODING 8598
SWIDTH 1066 0
DWIDTH 10 0
BBX 10 10 0 0
BITMAP
FC00
FC00
F000
F000
CC00
CC00
0300
0300
00C0
00C0
ENDCHAR
STARTCHAR NORTH
ENCODING 8599
SWIDTH 1066 0
DWIDTH 10 0
BBX 10 10 0 0
BITMAP
0FC0
0FC0
03C0
03C0
0CC0
0CC0
3000
3000
C000
C000
ENDCHAR
STARTCHAR SOUTH
ENCODING 8600
SWIDTH 1066 0
DWIDTH 10 0
BBX 10 10 0 0
BITMAP
C000
C000
3000
3000
0CC0
0CC0
03C0
03C0
0FC0
0FC0
ENDCHAR
STARTCHAR SOUTH
ENCODING 8601
SWIDTH 1066 0
DWIDTH 10 0
BBX 10 10 0 0
BITMAP
00C0
00C0
0300
0300
CC00
CC00
F000
F000
FC00
FC00
ENDCHAR
STARTCHAR UPWARDS
ENCODING 8624
SWIDTH 1280 0
DWIDTH 12 0
BBX 12 18 0 0
BITMAP
0C00
0C00
3000
3000
FFF0
FFF0
3030
3030
0C30
0C30
0030
0030
0030
0030
0030
0030
0030
0030
ENDCHAR
STARTCHAR UPWARDS
ENCODING 8625
SWIDTH 1280 0
DWIDTH 12 0
BBX 12 18 0 0
BITMAP
0300
0300
00C0
00C0
FFF0
FFF0
C0C0
C0C0
C300
C300
C000
C000
C000
C000
C000
C000
C000
C000
ENDCHAR
STARTCHAR DOWNWARDS
ENCODING 8626
SWIDTH 1280 0
DWIDTH 12 0
BBX 12 18 0 0
BITMAP
0030
0030
0030
0030
0030
0030
0030
0030
0C30
0C30
3030
3030
FFF0
FFF0
3000
3000
0C00
0C00
ENDCHAR
STARTCHAR DOWNWARDS
ENCODING 8627
SWIDTH 1280 0
DWIDTH 12 0
BBX 12 18 0 -2
BITMAP
C000
C000
C000
C000
C000
C000
C000
C000
C300
C300
C0C0
C0C0
FFF0
FFF0
00C0
00C0
0300
0300
ENDCHAR
STARTCHAR RIGHTWARDS
ENCODING 8628
SWIDTH 1280 0
DWIDTH 12 0
BBX 10 12 0 0
BITMAP
FC00
FC00
0C00
0C00
0C00
0C00
CCC0
CCC0
3F00
3F00
0C00
0C00
ENDCHAR
STARTCHAR DOWNWARDS
ENCODING 8629
SWIDTH 1280 0
DWIDTH 12 0
BBX 12 14 0 0
BITMAP
0030
0030
0030
0030
0C30
0C30
3030
3030
FFF0
FFF0
3000
3000
0C00
0C00
ENDCHAR
STARTCHAR ANTICLOCKWISE
ENCODING 8630
SWIDTH 1280 0
DWIDTH 12 0
BBX 12 12 -2 0
BITMAP
03C0
03C0
0C30
0C30
0C00
0C00
CCC0
CCC0
3F00
3F00
0C00
0C00
ENDCHAR
STARTCHAR CLOCKWISE
ENCODING 8631
SWIDTH 1280 0
DWIDTH 12 0
BBX 12 12 -2 0
BITMAP
3C00
3C00
C300
C300
0300
0300
3330
3330
0FC0
0FC0
0300
0300
ENDCHAR
STARTCHAR NORTH
ENCODING 8689
SWIDTH 1280 0
DWIDTH 12 0
BBX 12 12 0 0
BITMAP
FFF0
FFF0
C000
C000
CFC0
CFC0
CF00
CF00
CCC0
CCC0
C030
C030
ENDCHAR
STARTCHAR SOUTH
ENCODING 8690
SWIDTH 1280 0
DWIDTH 12 0
BBX 12 12 0 0
BITMAP
C030
C030
3330
3330
0F30
0F30
3F30
3F30
0030
0030
FFF0
FFF0
ENDCHAR
STARTCHAR DOWNWARDS
ENCODING 8693
SWIDTH 1280 0
DWIDTH 12 0
BBX 12 14 0 0
BITMAP
30C0
30C0
FCC0
FCC0
30C0
30C0
30C0
30C0
30C0
30C0
33F0
33F0
30C0
30C0
ENDCHAR
STARTCHAR THREE
ENCODING 8694
SWIDTH 1280 0
DWIDTH 12 0
BBX 12 22 0 -4
BITMAP
00C0
00C0
FFF0
FFF0
00C0
00C0
0000
0000
00C0
00C0
FFF0
FFF0
00C0
00C0
0000
0000
00C0
00C0
FFF0
FFF0
00C0
00C0
ENDCHAR
STARTCHAR LEFTWARDS
ENCODING 8695
SWIDTH 1280 0
DWIDTH 12 0
BBX 12 6 0 4
BITMAP
3300
3300
FFF0
FFF0
3300
3300
ENDCHAR
STARTCHAR RIGHTWARDS
ENCODING 8696
SWIDTH 1280 0
DWIDTH 12 0
BBX 12 6 0 4
BITMAP
0CC0
0CC0
FFF0
FFF0
0CC0
0CC0
ENDCHAR
STARTCHAR LEFTWARDS
ENCODING 8701
SWIDTH 1280 0
DWIDTH 12 0
BBX 12 6 0 4
BITMAP
3000
3000
CFF0
CFF0
3000
3000
ENDCHAR
STARTCHAR RIGHTWARDS
ENCODING 8702
SWIDTH 1280 0
DWIDTH 12 0
BBX 12 6 0 4
BITMAP
00C0
00C0
FF30
FF30
00C0
00C0
ENDCHAR
STARTCHAR LEFT
ENCODING 8703
SWIDTH 1280 0
DWIDTH 12 0
BBX 12 6 0 4
BITMAP
30C0
30C0
CF30
CF30
30C0
30C0
ENDCHAR
STARTCHAR FOR
ENCODING 8704
SWIDTH 1280 0
DWIDTH 12 0
BBX 10 14 0 0
BITMAP
C0C0
C0C0
C0C0
C0C0
FFC0
FFC0
3300
3300
3300
3300
0C00
0C00
0C00
0C00
ENDCHAR
STARTCHAR COMPLEMENT
ENCODING 8705
SWIDTH 1280 0
DWIDTH 12 0
BBX 10 14 0 0
BITMAP
3F00
3F00
C0C0
C0C0
C0C0
C0C0
C000
C000
C0C0
C0C0
C0C0
C0C0
3F00
3F00
ENDCHAR
STARTCHAR PARTIAL
ENCODING 8706
SWIDTH 1280 0
DWIDTH 12 0
BBX 8 14 2 0
BITMAP
30
30
0C
0C
0F
0F
33
33
C3
C3
C3
C3
3C
3C
ENDCHAR
STARTCHAR THERE
ENCODING 8707
SWIDTH 1280 0
DWIDTH 12 0
BBX 10 14 0 0
BITMAP
FFC0
FFC0
00C0
00C0
00C0
00C0
3FC0
3FC0
00C0
00C0
00C0
00C0
FFC0
FFC0
ENDCHAR
STARTCHAR THERE
ENCODING 8708
SWIDTH 1280 0
DWIDTH 12 0
BBX 10 22 0 -4
BITMAP
00C0
00C0
00C0
00C0
FFC0
FFC0
03C0
03C0
03C0
03C0
3FC0
3FC0
0CC0
0CC0
0CC0
0CC0
FFC0
FFC0
3000
3000
3000
3000
ENDCHAR
STARTCHAR EMPTY
ENCODING 8709
SWIDTH 1280 0
DWIDTH 12 0
BBX 14 14 -2 0
BITMAP
0FCC
0FCC
3030
3030
30F0
30F0
3330
3330
3C30
3C30
3030
3030
CFC0
CFC0
ENDCHAR
STARTCHAR INCREMENT
ENCODING 8710
SWIDTH 1280 0
DWIDTH 12 0
BBX 10 12 0 0
BITMAP
0C00
0C00
0C00
0C00
3300
3300
3300
3300
C0C0
C0C0
FFC0
FFC0
ENDCHAR
STARTCHAR NABLA
ENCODING 8711
SWIDTH 1280 0
DWIDTH 12 0
BBX 10 12 0 0
BITMAP
FFC0
FFC0
C0C0
C0C0
3300
3300
3300
3300
0C00
0C00
0C00
0C00
ENDCHAR
STARTCHAR ELEMENT
ENCODING 8712
SWIDTH 1280 0
DWIDTH 12 0
BBX 10 14 0 0
BITMAP
0FC0
0FC0
3000
3000
C000
C000
FF00
FF00
C000
C000
3000
3000
0FC0
0FC0
ENDCHAR
STARTCHAR NOT
ENCODING 8713
SWIDTH 1280 0
DWIDTH 12 0
BBX 10 22 0 -4
BITMAP
00C0
00C0
00C0
00C0
0FC0
0FC0
3300
3300
C300
C300
FF00
FF00
CC00
CC00
3C00
3C00
3FC0
3FC0
3000
3000
3000
3000
ENDCHAR
STARTCHAR SMALL
ENCODING 8714
SWIDTH 1280 0
DWIDTH 12 0
BBX 10 10 0 0
BITMAP
3FC0
3FC0
C000
C000
FF00
FF00
C000
C000
3FC0
3FC0
ENDCHAR
STARTCHAR CONTAINS
ENCODING 8715
SWIDTH 1280 0
DWIDTH 12 0
BBX 10 14 0 0
BITMAP
FC00
FC00
0300
0300
00C0
00C0
3FC0
3FC0
00C0
00C0
0300
0300
FC00
FC00
ENDCHAR
STARTCHAR DOES
ENCODING 8716
SWIDTH 1280 0
DWIDTH 12 0
BBX 10 22 0 -4
BITMAP
C000
C000
C000
C000
FC00
FC00
3300
3300
30C0
30C0
3FC0
3FC0
0CC0
0CC0
0F00
0F00
FF00
FF00
0300
0300
0300
0300
ENDCHAR
STARTCHAR SMALL
ENCODING 8717
SWIDTH 1280 0
DWIDTH 12 0
BBX 10 10 0 0
BITMAP
FF00
FF00
00C0
00C0
3FC0
3FC0
00C0
00C0
FF00
FF00
ENDCHAR
STARTCHAR N-ARY
ENCODING 8719
SWIDTH 1280 0
DWIDTH 12 0
BBX 12 14 0 0
BITMAP
FFF0
FFF0
30C0
30C0
30C0
30C0
30C0
30C0
30C0
30C0
30C0
30C0
30C0
30C0
ENDCHAR
STARTCHAR N-ARY
ENCODING 8720
SWIDTH 1280 0
DWIDTH 12 0
BBX 12 14 0 0
BITMAP
30C0
30C0
30C0
30C0
30C0
30C0
30C0
30C0
30C0
30C0
30C0
30C0
FFF0
FFF0
ENDCHAR
STARTCHAR N-ARY
ENCODING 8721
SWIDTH 1280 0
DWIDTH 12 0
BBX 10 14 0 0
BITMAP
FFC0
FFC0
30C0
30C0
0C00
0C00
0300
0300
0C00
0C00
30C0
30C0
FFC0
FFC0
ENDCHAR
STARTCHAR MINUS
ENCODING 8722
SWIDTH 1280 0
DWIDTH 12 0
BBX 10 2 0 4
BITMAP
FFC0
FFC0
ENDCHAR
STARTCHAR MINUS-OR-PLUS
ENCODING 8723
SWIDTH 1280 0
DWIDTH 12 0
BBX 10 14 0 0
BITMAP
FFC0
FFC0
0000
0000
0C00
0C00
0C00
0C00
FFC0
FFC0
0C00
0C00
0C00
0C00
ENDCHAR
STARTCHAR DOT
ENCODING 8724
SWIDTH 1280 0
DWIDTH 12 0
BBX 10 18 0 0
BITMAP
0C00
0C00
3F00
3F00
0C00
0C00
0000
0000
0C00
0C00
0C00
0C00
FFC0
FFC0
0C00
0C00
0C00
0C00
ENDCHAR
STARTCHAR SQUARE
ENCODING 8730
SWIDTH 1280 0
DWIDTH 12 0
BBX 14 16 -2 0
BITMAP
000C
000C
000C
000C
0030
0030
0030
0030
FCC0
FCC0
0CC0
0CC0
0300
0300
0300
0300
ENDCHAR
STARTCHAR CUBE
ENCODING 8731
SWIDTH 1280 0
DWIDTH 12 0
BBX 14 18 -2 0
BITMAP
0F00
0F00
030C
030C
0C0C
0C0C
0330
0330
0F30
0F30
F0C0
F0C0
0CC0
0CC0
0300
0300
0300
0300
ENDCHAR
STARTCHAR FOURTH
ENCODING 8732
SWIDTH 1280 0
DWIDTH 12 0
BBX 14 18 -2 0
BITMAP
0300
0300
0F0C
0F0C
3F0C
3F0C
0330
0330
0330
0330
FCC0
FCC0
0CC0
0CC0
0300
0300
0300
0300
ENDCHAR
STARTCHAR PROPORTIONAL
ENCODING 8733
SWIDTH 1280 0
DWIDTH 12 0
BBX 8 6 0 4
BITMAP
F3
F3
CC
CC
F3
F3
ENDCHAR
STARTCHAR INFINITY
ENCODING 8734
SWIDTH 1280 0
DWIDTH 12 0
BBX 10 6 0 4
BITMAP
F3C0
F3C0
CCC0
CCC0
F3C0
F3C0
ENDCHAR
STARTCHAR DIVIDES
ENCODING 8739
SWIDTH 1280 0
DWIDTH 12 0
BBX 2 14 4 0
BITMAP
C0
C0
C0
C0
C0
C0
C0
C0
C0
C0
C0
C0
C0
C0
ENDCHAR
STARTCHAR INTEGRAL
ENCODING 8747
SWIDTH 1280 0
DWIDTH 12 0
BBX 10 22 0 -4
BITMAP
03C0
03C0
0C00
0C00
0C00
0C00
0C00
0C00
0C00
0C00
0C00
0C00
0C00
0C00
0C00
0C00
0C00
0C00
0C00
0C00
F000
F000
ENDCHAR
STARTCHAR ALMOST
ENCODING 8776
SWIDTH 1280 0
DWIDTH 12 0
BBX 10 10 0 2
BITMAP
00C0
00C0
3F00
3F00
C0C0
C0C0
3F00
3F00
C000
C000
ENDCHAR
STARTCHAR RING
ENCODING 8790
SWIDTH 1280 0
DWIDTH 12 0
BBX 10 6 0 4
BITMAP
FFC0
FFC0
3300
3300
FFC0
FFC0
ENDCHAR
STARTCHAR NOT
ENCODING 8800
SWIDTH 1280 0
DWIDTH 12 0
BBX 10 10 0 2
BITMAP
0300
0300
FFC0
FFC0
0C00
0C00
FFC0
FFC0
3000
3000
ENDCHAR
STARTCHAR LESS-THAN
ENCODING 8804
SWIDTH 1280 0
DWIDTH 12 0
BBX 8 14 2 0
BITMAP
0C
0C
30
30
C0
C0
30
30
0C
0C
00
00
FF
FF
ENDCHAR
STARTCHAR GREATER-THAN
ENCODING 8805
SWIDTH 1280 0
DWIDTH 12 0
BBX 8 14 2 0
BITMAP
30
30
0C
0C
03
03
0C
0C
30
30
00
00
FF
FF
ENDCHAR
STARTCHAR LESS-THAN
ENCODING 8806
SWIDTH 1280 0
DWIDTH 12 0
BBX 8 18 2 -4
BITMAP
0C
0C
30
30
C0
C0
30
30
0C
0C
00
00
FF
FF
00
00
FF
FF
ENDCHAR
STARTCHAR GREATER-THAN
ENCODING 8807
SWIDTH 1280 0
DWIDTH 12 0
BBX 8 18 2 -4
BITMAP
30
30
0C
0C
03
03
0C
0C
30
30
00
00
FF
FF
00
00
FF
FF
ENDCHAR
STARTCHAR CIRCLED
ENCODING 8853
SWIDTH 1066 0
DWIDTH 10 0
BBX 10 10 0 2
BITMAP
3F00
3F00
CCC0
CCC0
FFC0
FFC0
CCC0
CCC0
3F00
3F00
ENDCHAR
STARTCHAR CIRCLED
ENCODING 8854
SWIDTH 1280 0
DWIDTH 12 0
BBX 10 10 0 2
BITMAP
3F00
3F00
C0C0
C0C0
FFC0
FFC0
C0C0
C0C0
3F00
3F00
ENDCHAR
STARTCHAR CIRCLED
ENCODING 8855
SWIDTH 1280 0
DWIDTH 12 0
BBX 10 10 0 2
BITMAP
3F00
3F00
F3C0
F3C0
CCC0
CCC0
F3C0
F3C0
3F00
3F00
ENDCHAR
STARTCHAR CIRCLED
ENCODING 8856
SWIDTH 1280 0
DWIDTH 12 0
BBX 10 10 0 2
BITMAP
3F00
3F00
C3C0
C3C0
CCC0
CCC0
F0C0
F0C0
3F00
3F00
ENDCHAR
STARTCHAR CIRCLED
ENCODING 8857
SWIDTH 1280 0
DWIDTH 12 0
BBX 10 10 0 2
BITMAP
3F00
3F00
C0C0
C0C0
CCC0
CCC0
C0C0
C0C0
3F00
3F00
ENDCHAR
STARTCHAR ARC
ENCODING 8978
SWIDTH 1280 0
DWIDTH 12 0
BBX 10 4 0 6
BITMAP
3F00
3F00
C0C0
C0C0
ENDCHAR
STARTCHAR FROWN
ENCODING 8994
SWIDTH 1280 0
DWIDTH 12 0
BBX 12 4 0 4
BITMAP
3FC0
3FC0
C030
C030
ENDCHAR
STARTCHAR BLACK
ENCODING 9193
SWIDTH 1280 0
DWIDTH 12 0
BBX 12 10 0 2
BITMAP
C300
C300
F3C0
F3C0
FFF0
FFF0
F3C0
F3C0
C300
C300
ENDCHAR
STARTCHAR BLACK
ENCODING 9194
SWIDTH 1280 0
DWIDTH 12 0
BBX 12 10 0 2
BITMAP
0C30
0C30
3CF0
3CF0
FFF0
FFF0
3CF0
3CF0
0C30
0C30
ENDCHAR
STARTCHAR BLACK
ENCODING 9195
SWIDTH 1280 0
DWIDTH 12 0
BBX 10 12 0 0
BITMAP
0C00
0C00
3F00
3F00
FFC0
FFC0
0C00
0C00
3F00
3F00
FFC0
FFC0
ENDCHAR
STARTCHAR BLACK
ENCODING 9196
SWIDTH 1280 0
DWIDTH 12 0
BBX 10 12 0 0
BITMAP
FFC0
FFC0
3F00
3F00
0C00
0C00
FFC0
FFC0
3F00
3F00
0C00
0C00
ENDCHAR
STARTCHAR BLACK
ENCODING 9197
SWIDTH 1280 0
DWIDTH 12 0
BBX 14 10 -2 2
BITMAP
C30C
C30C
F3CC
F3CC
FFFC
FFFC
F3CC
F3CC
C30C
C30C
ENDCHAR
STARTCHAR BLACK
ENCODING 9198
SWIDTH 1280 0
DWIDTH 12 0
BBX 14 10 -2 2
BITMAP
C30C
C30C
CF3C
CF3C
FFFC
FFFC
CF3C
CF3C
C30C
C30C
ENDCHAR
STARTCHAR BLACK
ENCODING 9199
SWIDTH 1280 0
DWIDTH 12 0
BBX 12 10 0 2
BITMAP
C330
C330
F330
F330
FF30
FF30
F330
F330
C330
C330
ENDCHAR
STARTCHAR QUADRANT
ENCODING 9622
SWIDTH 1280 0
DWIDTH 12 0
BBX 6 6 0 0
BITMAP
FC
FC
FC
FC
FC
FC
ENDCHAR
STARTCHAR QUADRANT
ENCODING 9623
SWIDTH 1280 0
DWIDTH 12 0
BBX 6 6 6 0
BITMAP
FC
FC
FC
FC
FC
FC
ENDCHAR
STARTCHAR QUADRANT
ENCODING 9624
SWIDTH 1280 0
DWIDTH 12 0
BBX 6 6 0 6
BITMAP
FC
FC
FC
FC
FC
FC
ENDCHAR
STARTCHAR QUADRANT
ENCODING 9625
SWIDTH 1280 0
DWIDTH 12 0
BBX 12 12 0 0
BITMAP
FC00
FC00
FC00
FC00
FC00
FC00
FFF0
FFF0
FFF0
FFF0
FFF0
FFF0
ENDCHAR
STARTCHAR QUADRANT
ENCODING 9626
SWIDTH 1280 0
DWIDTH 12 0
BBX 12 12 0 0
BITMAP
FC00
FC00
FC00
FC00
FC00
FC00
03F0
03F0
03F0
03F0
03F0
03F0
ENDCHAR
STARTCHAR QUADRANT
ENCODING 9627
SWIDTH 1280 0
DWIDTH 12 0
BBX 12 12 0 0
BITMAP
FFF0
FFF0
FFF0
FFF0
FFF0
FFF0
FC00
FC00
FC00
FC00
FC00
FC00
ENDCHAR
STARTCHAR QUADRANT
ENCODING 9628
SWIDTH 1280 0
DWIDTH 12 0
BBX 12 12 0 0
BITMAP
FFF0
FFF0
FFF0
FFF0
FFF0
FFF0
03F0
03F0
03F0
03F0
03F0
03F0
ENDCHAR
STARTCHAR QUADRANT
ENCODING 9629
SWIDTH 1280 0
DWIDTH 12 0
BBX 6 6 6 6
BITMAP
FC
FC
FC
FC
FC
FC
ENDCHAR
STARTCHAR QUADRANT
ENCODING 9630
SWIDTH 1280 0
DWIDTH 12 0
BBX 12 12 0 0
BITMAP
03F0
03F0
03F0
03F0
03F0
03F0
FC00
FC00
FC00
FC00
FC00
FC00
ENDCHAR
STARTCHAR QUADRANT
ENCODING 9631
SWIDTH 1280 0
DWIDTH 12 0
BBX 12 12 0 0
BITMAP
03F0
03F0
03F0
03F0
03F0
03F0
FFF0
FFF0
FFF0
FFF0
FFF0
FFF0
ENDCHAR
STARTCHAR BLACK
ENCODING 9632
SWIDTH 1280 0
DWIDTH 12 0
BBX 12 12 0 0
BITMAP
FFF0
FFF0
FFF0
FFF0
FFF0
FFF0
FFF0
FFF0
FFF0
FFF0
FFF0
FFF0
ENDCHAR
STARTCHAR WHITE
ENCODING 9633
SWIDTH 1280 0
DWIDTH 12 0
BBX 12 12 0 0
BITMAP
FFF0
FFF0
C030
C030
C030
C030
C030
C030
C030
C030
FFF0
FFF0
ENDCHAR
STARTCHAR WHITE
ENCODING 9634
SWIDTH 1280 0
DWIDTH 12 0
BBX 12 12 0 0
BITMAP
3FC0
3FC0
C030
C030
C030
C030
C030
C030
C030
C030
3FC0
3FC0
ENDCHAR
STARTCHAR WHITE
ENCODING 9635
SWIDTH 1280 0
DWIDTH 12 0
BBX 10 10 0 0
BITMAP
FFC0
FFC0
C0C0
C0C0
CCC0
CCC0
C0C0
C0C0
FFC0
FFC0
ENDCHAR
STARTCHAR SQUARE
ENCODING 9636
SWIDTH 1280 0
DWIDTH 12 0
BBX 10 10 0 0
BITMAP
FFC0
FFC0
C0C0
C0C0
FFC0
FFC0
C0C0
C0C0
FFC0
FFC0
ENDCHAR
STARTCHAR SQUARE
ENCODING 9637
SWIDTH 1280 0
DWIDTH 12 0
BBX 10 10 0 0
BITMAP
FFC0
FFC0
CCC0
CCC0
CCC0
CCC0
CCC0
CCC0
FFC0
FFC0
ENDCHAR
STARTCHAR SQUARE
ENCODING 9638
SWIDTH 1280 0
DWIDTH 12 0
BBX 10 10 0 0
BITMAP
FFC0
FFC0
CCC0
CCC0
FFC0
FFC0
CCC0
CCC0
FFC0
FFC0
ENDCHAR
STARTCHAR SQUARE
ENCODING 9639
SWIDTH 1280 0
DWIDTH 12 0
BBX 10 10 0 0
BITMAP
FFC0
FFC0
F0C0
F0C0
CCC0
CCC0
C3C0
C3C0
FFC0
FFC0
ENDCHAR
STARTCHAR SQUARE
ENCODING 9640
SWIDTH 1280 0
DWIDTH 12 0
BBX 10 10 0 0
BITMAP
FFC0
FFC0
C3C0
C3C0
CCC0
CCC0
F0C0
F0C0
FFC0
FFC0
ENDCHAR
STARTCHAR SQUARE
ENCODING 9641
SWIDTH 1280 0
DWIDTH 12 0
BBX 10 10 0 0
BITMAP
FFC0
FFC0
CCC0
CCC0
F3C0
F3C0
CCC0
CCC0
FFC0
FFC0
ENDCHAR
STARTCHAR BLACK
ENCODING 9642
SWIDTH 1280 0
DWIDTH 12 0
BBX 10 10 0 0
BITMAP
FFC0
FFC0
FFC0
FFC0
FFC0
FFC0
FFC0
FFC0
FFC0
FFC0
ENDCHAR
STARTCHAR WHITE
ENCODING 9643
SWIDTH 1280 0
DWIDTH 12 0
BBX 10 10 0 0
BITMAP
FFC0
FFC0
C0C0
C0C0
C0C0
C0C0
C0C0
C0C0
FFC0
FFC0
ENDCHAR
STARTCHAR BLACK
ENCODING 9644
SWIDTH 1280 0
DWIDTH 12 0
BBX 10 6 0 0
BITMAP
FFC0
FFC0
FFC0
FFC0
FFC0
FFC0
ENDCHAR
STARTCHAR WHITE
ENCODING 9645
SWIDTH 1280 0
DWIDTH 12 0
BBX 10 6 0 0
BITMAP
FFC0
FFC0
C0C0
C0C0
FFC0
FFC0
ENDCHAR
STARTCHAR BLACK
ENCODING 9646
SWIDTH 1280 0
DWIDTH 12 0
BBX 8 14 0 0
BITMAP
FF
FF
FF
FF
FF
FF
FF
FF
FF
FF
FF
FF
FF
FF
ENDCHAR
STARTCHAR WHITE
ENCODING 9647
SWIDTH 1280 0
DWIDTH 12 0
BBX 8 14 0 0
BITMAP
FF
FF
C3
C3
C3
C3
C3
C3
C3
C3
C3
C3
FF
FF
ENDCHAR
STARTCHAR BLACK
ENCODING 9648
SWIDTH 1280 0
DWIDTH 12 0
BBX 12 6 0 0
BITMAP
3FF0
3FF0
FFF0
FFF0
FFC0
FFC0
ENDCHAR
STARTCHAR WHITE
ENCODING 9649
SWIDTH 1280 0
DWIDTH 12 0
BBX 12 6 0 0
BITMAP
3FF0
3FF0
C030
C030
FFC0
FFC0
ENDCHAR
STARTCHAR BLACK
ENCODING 9650
SWIDTH 1280 0
DWIDTH 12 0
BBX 12 12 0 0
BITMAP
0F00
0F00
0F00
0F00
3FC0
3FC0
3FC0
3FC0
FFF0
FFF0
FFF0
FFF0
ENDCHAR
STARTCHAR WHITE
ENCODING 9651
SWIDTH 1280 0
DWIDTH 12 0
BBX 12 12 0 0
BITMAP
0F00
0F00
0F00
0F00
30C0
30C0
30C0
30C0
C030
C030
FFF0
FFF0
ENDCHAR
STARTCHAR BLACK
ENCODING 9652
SWIDTH 1280 0
DWIDTH 12 0
BBX 10 12 0 0
BITMAP
0C00
0C00
0C00
0C00
3F00
3F00
3F00
3F00
FFC0
FFC0
FFC0
FFC0
ENDCHAR
STARTCHAR WHITE
ENCODING 9653
SWIDTH 1280 0
DWIDTH 12 0
BBX 10 12 0 0
BITMAP
0C00
0C00
0C00
0C00
3300
3300
3300
3300
C0C0
C0C0
FFC0
FFC0
ENDCHAR
STARTCHAR BLACK
ENCODING 9654
SWIDTH 1280 0
DWIDTH 12 0
BBX 12 12 0 0
BITMAP
F000
F000
FF00
FF00
FFF0
FFF0
FFF0
FFF0
FF00
FF00
F000
F000
ENDCHAR
STARTCHAR WHITE
ENCODING 9655
SWIDTH 1280 0
DWIDTH 12 0
BBX 12 12 0 0
BITMAP
F000
F000
CF00
CF00
C0F0
C0F0
C0F0
C0F0
CF00
CF00
F000
F000
ENDCHAR
STARTCHAR BLACK
ENCODING 9656
SWIDTH 1280 0
DWIDTH 12 0
BBX 12 10 0 0
BITMAP
F000
F000
FF00
FF00
FFF0
FFF0
FF00
FF00
F000
F000
ENDCHAR
STARTCHAR WHITE
ENCODING 9657
SWIDTH 1280 0
DWIDTH 12 0
BBX 12 10 0 0
BITMAP
F000
F000
CF00
CF00
C0F0
C0F0
CF00
CF00
F000
F000
ENDCHAR
STARTCHAR BLACK
ENCODING 9658
SWIDTH 1280 0
DWIDTH 12 0
BBX 14 10 -2 0
BITMAP
F000
F000
FFC0
FFC0
FFFC
FFFC
FFC0
FFC0
F000
F000
ENDCHAR
STARTCHAR WHITE
ENCODING 9659
SWIDTH 1280 0
DWIDTH 12 0
BBX 14 10 -2 0
BITMAP
F000
F000
CFC0
CFC0
C03C
C03C
CFC0
CFC0
F000
F000
ENDCHAR
STARTCHAR BLACK
ENCODING 9660
SWIDTH 1280 0
DWIDTH 12 0
BBX 12 12 0 0
BITMAP
FFF0
FFF0
FFF0
FFF0
3FC0
3FC0
3FC0
3FC0
0F00
0F00
0F00
0F00
ENDCHAR
STARTCHAR WHITE
ENCODING 9661
SWIDTH 1280 0
DWIDTH 12 0
BBX 12 12 0 0
BITMAP
FFF0
FFF0
C030
C030
30C0
30C0
30C0
30C0
0F00
0F00
0F00
0F00
ENDCHAR
STARTCHAR BLACK
ENCODING 9662
SWIDTH 1280 0
DWIDTH 12 0
BBX 10 12 0 0
BITMAP
FFC0
FFC0
FFC0
FFC0
3F00
3F00
3F00
3F00
0C00
0C00
0C00
0C00
ENDCHAR
STARTCHAR WHITE
ENCODING 9663
SWIDTH 1280 0
DWIDTH 12 0
BBX 10 12 0 0
BITMAP
FFC0
FFC0
C0C0
C0C0
3300
3300
3300
3300
0C00
0C00
0C00
0C00
ENDCHAR
STARTCHAR BLACK
ENCODING 9664
SWIDTH 1280 0
DWIDTH 12 0
BBX 12 12 0 0
BITMAP
00F0
00F0
0FF0
0FF0
FFF0
FFF0
FFF0
FFF0
0FF0
0FF0
00F0
00F0
ENDCHAR
STARTCHAR WHITE
ENCODING 9665
SWIDTH 1280 0
DWIDTH 12 0
BBX 12 12 0 0
BITMAP
00F0
00F0
0F30
0F30
F030
F030
F030
F030
0F30
0F30
00F0
00F0
ENDCHAR
STARTCHAR BLACK
ENCODING 9666
SWIDTH 1280 0
DWIDTH 12 0
BBX 12 10 0 0
BITMAP
00F0
00F0
0FF0
0FF0
FFF0
FFF0
0FF0
0FF0
00F0
00F0
ENDCHAR
STARTCHAR WHITE
ENCODING 9667
SWIDTH 1280 0
DWIDTH 12 0
BBX 12 10 0 0
BITMAP
00F0
00F0
0F30
0F30
F030
F030
0F30
0F30
00F0
00F0
ENDCHAR
STARTCHAR BLACK
ENCODING 9668
SWIDTH 1280 0
DWIDTH 12 0
BBX 14 10 -2 0
BITMAP
003C
003C
0FFC
0FFC
FFFC
FFFC
0FFC
0FFC
003C
003C
ENDCHAR
STARTCHAR WHITE
ENCODING 9669
SWIDTH 1280 0
DWIDTH 12 0
BBX 14 10 -2 0
BITMAP
003C
003C
0FCC
0FCC
F00C
F00C
0FCC
0FCC
003C
003C
ENDCHAR
STARTCHAR BLACK
ENCODING 9670
SWIDTH 1280 0
DWIDTH 12 0
BBX 10 10 0 2
BITMAP
0C00
0C00
3F00
3F00
FFC0
FFC0
3F00
3F00
0C00
0C00
ENDCHAR
STARTCHAR WHITE
ENCODING 9671
SWIDTH 1280 0
DWIDTH 12 0
BBX 10 10 0 2
BITMAP
0C00
0C00
3300
3300
C0C0
C0C0
3300
3300
0C00
0C00
ENDCHAR
STARTCHAR WHITE
ENCODING 9672
SWIDTH 1280 0
DWIDTH 12 0
BBX 10 10 0 2
BITMAP
0C00
0C00
3300
3300
CCC0
CCC0
3300
3300
0C00
0C00
ENDCHAR
STARTCHAR FISHEYE
ENCODING 9673
SWIDTH 1280 0
DWIDTH 12 0
BBX 10 10 0 2
BITMAP
3F00
3F00
C0C0
C0C0
CCC0
CCC0
C0C0
C0C0
3F00
3F00
ENDCHAR
STARTCHAR LOZENGE
ENCODING 9674
SWIDTH 1280 0
DWIDTH 12 0
BBX 10 14 0 0
BITMAP
0C00
0C00
3300
3300
3300
3300
C0C0
C0C0
3300
3300
3300
3300
0C00
0C00
ENDCHAR
STARTCHAR WHITE
ENCODING 9675
SWIDTH 1280 0
DWIDTH 12 0
BBX 10 10 0 2
BITMAP
3F00
3F00
C0C0
C0C0
C0C0
C0C0
C0C0
C0C0
3F00
3F00
ENDCHAR
STARTCHAR DOTTED
ENCODING 9676
SWIDTH 1280 0
DWIDTH 12 0
BBX 10 10 0 2
BITMAP
3300
3300
C0C0
C0C0
0000
0000
C0C0
C0C0
3300
3300
ENDCHAR
STARTCHAR CIRCLE
ENCODING 9677
SWIDTH 1280 0
DWIDTH 12 0
BBX 10 10 0 0
BITMAP
3F00
3F00
CCC0
CCC0
CCC0
CCC0
CCC0
CCC0
3F00
3F00
ENDCHAR
STARTCHAR BULLSEYE
ENCODING 9678
SWIDTH 1066 0
DWIDTH 10 0
BBX 10 10 0 0
BITMAP
3F00
3F00
C0C0
C0C0
CCC0
CCC0
C0C0
C0C0
3F00
3F00
ENDCHAR
STARTCHAR BLACK
ENCODING 9679
SWIDTH 1280 0
DWIDTH 12 0
BBX 8 8 2 4
BITMAP
3C
3C
FF
FF
FF
FF
3C
3C
ENDCHAR
STARTCHAR CIRCLE
ENCODING 9680
SWIDTH 1280 0
DWIDTH 12 0
BBX 8 8 2 4
BITMAP
3C
3C
F3
F3
F3
F3
3C
3C
ENDCHAR
STARTCHAR CIRCLE
ENCODING 9681
SWIDTH 1280 0
DWIDTH 12 0
BBX 8 8 2 4
BITMAP
3C
3C
CF
CF
CF
CF
3C
3C
ENDCHAR
STARTCHAR CIRCLE
ENCODING 9682
SWIDTH 1280 0
DWIDTH 12 0
BBX 8 8 2 4
BITMAP
3C
3C
FF
FF
C3
C3
3C
3C
ENDCHAR
STARTCHAR CIRCLE
ENCODING 9683
SWIDTH 1280 0
DWIDTH 12 0
BBX 8 8 2 4
BITMAP
3C
3C
C3
C3
FF
FF
3C
3C
ENDCHAR
STARTCHAR CIRCLE
ENCODING 9684
SWIDTH 1280 0
DWIDTH 12 0
BBX 8 8 2 4
BITMAP
3C
3C
CF
CF
C3
C3
3C
3C
ENDCHAR
STARTCHAR CIRCLE
ENCODING 9685
SWIDTH 1280 0
DWIDTH 12 0
BBX 8 8 2 4
BITMAP
3C
3C
CF
CF
FF
FF
3C
3C
ENDCHAR
STARTCHAR LEFT
ENCODING 9686
SWIDTH 1280 0
DWIDTH 12 0
BBX 4 8 2 4
BITMAP
30
30
F0
F0
F0
F0
30
30
ENDCHAR
STARTCHAR RIGHT
ENCODING 9687
SWIDTH 1280 0
DWIDTH 12 0
BBX 4 8 6 4
BITMAP
C0
C0
F0
F0
F0
F0
C0
C0
ENDCHAR
STARTCHAR INVERSE
ENCODING 9688
SWIDTH 1280 0
DWIDTH 12 0
BBX 12 22 0 -4
BITMAP
FFF0
FFF0
FFF0
FFF0
FFF0
FFF0
FFF0
FFF0
F0F0
F0F0
C030
C030
C030
C030
F0F0
F0F0
FFF0
FFF0
FFF0
FFF0
FFF0
FFF0
ENDCHAR
STARTCHAR INVERSE
ENCODING 9689
SWIDTH 1280 0
DWIDTH 12 0
BBX 14 14 -2 0
BITMAP
FFFC
FFFC
F03C
F03C
CFCC
CFCC
CFCC
CFCC
CFCC
CFCC
F03C
F03C
FFFC
FFFC
ENDCHAR
STARTCHAR UPPER
ENCODING 9690
SWIDTH 1280 0
DWIDTH 12 0
BBX 14 8 -2 6
BITMAP
FFFC
FFFC
F03C
F03C
CFCC
CFCC
CFCC
CFCC
ENDCHAR
STARTCHAR LOWER
ENCODING 9691
SWIDTH 1280 0
DWIDTH 12 0
BBX 14 8 -2 0
BITMAP
CFCC
CFCC
CFCC
CFCC
F03C
F03C
FFFC
FFFC
ENDCHAR
STARTCHAR UPPER
ENCODING 9692
SWIDTH 1280 0
DWIDTH 12 0
BBX 6 6 0 6
BITMAP
3C
3C
C0
C0
C0
C0
ENDCHAR
STARTCHAR UPPER
ENCODING 9693
SWIDTH 1280 0
DWIDTH 12 0
BBX 6 6 4 6
BITMAP
F0
F0
0C
0C
0C
0C
ENDCHAR
STARTCHAR LOWER
ENCODING 9694
SWIDTH 1280 0
DWIDTH 12 0
BBX 6 6 4 2
BITMAP
0C
0C
0C
0C
F0
F0
ENDCHAR
STARTCHAR LOWER
ENCODING 9695
SWIDTH 1280 0
DWIDTH 12 0
BBX 6 6 0 2
BITMAP
C0
C0
C0
C0
3C
3C
ENDCHAR
STARTCHAR UPPER
ENCODING 9696
SWIDTH 1280 0
DWIDTH 12 0
BBX 10 6 0 6
BITMAP
3F00
3F00
C0C0
C0C0
C0C0
C0C0
ENDCHAR
STARTCHAR LOWER
ENCODING 9697
SWIDTH 1280 0
DWIDTH 12 0
BBX 12 6 0 2
BITMAP
C030
C030
3030
3030
0FC0
0FC0
ENDCHAR
STARTCHAR BLACK
ENCODING 9698
SWIDTH 1280 0
DWIDTH 12 0
BBX 12 12 0 0
BITMAP
0030
0030
00F0
00F0
03F0
03F0
0FF0
0FF0
3FF0
3FF0
FFF0
FFF0
ENDCHAR
STARTCHAR BLACK
ENCODING 9699
SWIDTH 1280 0
DWIDTH 12 0
BBX 12 12 0 0
BITMAP
C000
C000
F000
F000
FC00
FC00
FF00
FF00
FFC0
FFC0
FFF0
FFF0
ENDCHAR
STARTCHAR BLACK
ENCODING 9700
SWIDTH 1280 0
DWIDTH 12 0
BBX 12 12 0 0
BITMAP
FFF0
FFF0
FFC0
FFC0
FF00
FF00
FC00
FC00
F000
F000
C000
C000
ENDCHAR
STARTCHAR BLACK
ENCODING 9701
SWIDTH 1280 0
DWIDTH 12 0
BBX 12 12 0 0
BITMAP
FFF0
FFF0
3FF0
3FF0
0FF0
0FF0
03F0
03F0
00F0
00F0
0030
0030
ENDCHAR
STARTCHAR WHITE
ENCODING 9702
SWIDTH 1280 0
DWIDTH 12 0
BBX 10 10 0 2
BITMAP
3F00
3F00
C0C0
C0C0
C0C0
C0C0
C0C0
C0C0
3F00
3F00
ENDCHAR
STARTCHAR SQUARE
ENCODING 9703
SWIDTH 1280 0
DWIDTH 12 0
BBX 10 10 0 0
BITMAP
FFC0
FFC0
F0C0
F0C0
F0C0
F0C0
F0C0
F0C0
FFC0
FFC0
ENDCHAR
STARTCHAR SQUARE
ENCODING 9704
SWIDTH 1280 0
DWIDTH 12 0
BBX 10 10 0 0
BITMAP
FFC0
FFC0
C3C0
C3C0
C3C0
C3C0
C3C0
C3C0
FFC0
FFC0
ENDCHAR
STARTCHAR SQUARE
ENCODING 9705
SWIDTH 1280 0
DWIDTH 12 0
BBX 10 10 0 0
BITMAP
FFC0
FFC0
FCC0
FCC0
F0C0
F0C0
C0C0
C0C0
FFC0
FFC0
ENDCHAR
STARTCHAR SQUARE
ENCODING 9706
SWIDTH 1280 0
DWIDTH 12 0
BBX 10 10 0 0
BITMAP
FFC0
FFC0
C0C0
C0C0
C3C0
C3C0
CFC0
CFC0
FFC0
FFC0
ENDCHAR
STARTCHAR WHITE
ENCODING 9707
SWIDTH 1280 0
DWIDTH 12 0
BBX 10 10 0 0
BITMAP
FFC0
FFC0
CCC0
CCC0
CCC0
CCC0
CCC0
CCC0
FFC0
FFC0
ENDCHAR
STARTCHAR WHITE
ENCODING 9708
SWIDTH 1280 0
DWIDTH 12 0
BBX 10 14 0 0
BITMAP
0C00
0C00
0C00
0C00
3300
3300
3300
3300
CCC0
CCC0
C0C0
C0C0
FFC0
FFC0
ENDCHAR
STARTCHAR UP-POINTING
ENCODING 9709
SWIDTH 1280 0
DWIDTH 12 0
BBX 10 12 0 0
BITMAP
0C00
0C00
0C00
0C00
3F00
3F00
3F00
3F00
FCC0
FCC0
FFC0
FFC0
ENDCHAR
STARTCHAR UP-POINTING
ENCODING 9710
SWIDTH 1280 0
DWIDTH 12 0
BBX 10 12 0 0
BITMAP
0C00
0C00
0C00
0C00
3F00
3F00
3F00
3F00
CFC0
CFC0
FFC0
FFC0
ENDCHAR
STARTCHAR LARGE
ENCODING 9711
SWIDTH 1280 0
DWIDTH 12 0
BBX 10 10 0 0
BITMAP
3F00
3F00
C0C0
C0C0
C0C0
C0C0
C0C0
C0C0
3F00
3F00
ENDCHAR
STARTCHAR WHITE
ENCODING 9712
SWIDTH 1280 0
DWIDTH 12 0
BBX 10 10 0 0
BITMAP
FFC0
FFC0
CCC0
CCC0
FCC0
FCC0
C0C0
C0C0
FFC0
FFC0
ENDCHAR
STARTCHAR WHITE
ENCODING 9713
SWIDTH 1280 0
DWIDTH 12 0
BBX 10 10 0 0
BITMAP
FFC0
FFC0
C0C0
C0C0
FCC0
FCC0
CCC0
CCC0
FFC0
FFC0
ENDCHAR
STARTCHAR WHITE
ENCODING 9714
SWIDTH 1280 0
DWIDTH 12 0
BBX 10 10 0 0
BITMAP
FFC0
FFC0
C0C0
C0C0
CFC0
CFC0
CCC0
CCC0
FFC0
FFC0
ENDCHAR
STARTCHAR WHITE
ENCODING 9715
SWIDTH 1280 0
DWIDTH 12 0
BBX 10 10 0 0
BITMAP
FFC0
FFC0
CCC0
CCC0
CFC0
CFC0
C0C0
C0C0
FFC0
FFC0
ENDCHAR
STARTCHAR WHITE
ENCODING 9716
SWIDTH 1280 0
DWIDTH 12 0
BBX 10 10 0 0
BITMAP
3F00
3F00
CCC0
CCC0
FCC0
FCC0
C0C0
C0C0
3F00
3F00
ENDCHAR
STARTCHAR WHITE
ENCODING 9717
SWIDTH 1280 0
DWIDTH 12 0
BBX 10 10 0 0
BITMAP
3F00
3F00
C0C0
C0C0
FCC0
FCC0
CCC0
CCC0
3F00
3F00
ENDCHAR
STARTCHAR WHITE
ENCODING 9718
SWIDTH 1280 0
DWIDTH 12 0
BBX 10 10 0 0
BITMAP
3F00
3F00
C0C0
C0C0
CFC0
CFC0
CCC0
CCC0
3F00
3F00
ENDCHAR
STARTCHAR WHITE
ENCODING 9719
SWIDTH 1280 0
DWIDTH 12 0
BBX 10 10 0 0
BITMAP
3F00
3F00
CCC0
CCC0
CFC0
CFC0
C0C0
C0C0
3F00
3F00
ENDCHAR
STARTCHAR UPPER
ENCODING 9720
SWIDTH 1280 0
DWIDTH 12 0
BBX 8 8 0 6
BITMAP
FF
FF
CC
CC
F0
F0
C0
C0
ENDCHAR
STARTCHAR UPPER
ENCODING 9721
SWIDTH 1280 0
DWIDTH 12 0
BBX 8 8 4 6
BITMAP
FF
FF
33
33
0F
0F
03
03
ENDCHAR
STARTCHAR LOWER
ENCODING 9722
SWIDTH 1280 0
DWIDTH 12 0
BBX 8 8 0 0
BITMAP
C0
C0
F0
F0
CC
CC
FF
FF
ENDCHAR
STARTCHAR WHITE
ENCODING 9723
SWIDTH 1280 0
DWIDTH 12 0
BBX 12 12 0 0
BITMAP
FFF0
FFF0
C030
C030
C030
C030
C030
C030
C030
C030
FFF0
FFF0
ENDCHAR
STARTCHAR BLACK
ENCODING 9724
SWIDTH 1280 0
DWIDTH 12 0
BBX 12 12 0 0
BITMAP
FFF0
FFF0
FFF0
FFF0
FFF0
FFF0
FFF0
FFF0
FFF0
FFF0
FFF0
FFF0
ENDCHAR
STARTCHAR WHITE
ENCODING 9725
SWIDTH 1280 0
DWIDTH 12 0
BBX 10 10 0 2
BITMAP
FFC0
FFC0
C0C0
C0C0
C0C0
C0C0
C0C0
C0C0
FFC0
FFC0
ENDCHAR
STARTCHAR BLACK
ENCODING 9726
SWIDTH 1280 0
DWIDTH 12 0
BBX 10 10 0 2
BITMAP
FFC0
FFC0
FFC0
FFC0
FFC0
FFC0
FFC0
FFC0
FFC0
FFC0
ENDCHAR
STARTCHAR LOWER
ENCODING 9727
SWIDTH 1280 0
DWIDTH 12 0
BBX 8 8 4 0
BITMAP
03
03
0F
0F
33
33
FF
FF
ENDCHAR
STARTCHAR BLACK
ENCODING 9728
SWIDTH 1280 0
DWIDTH 12 0
BBX 10 14 0 -4
BITMAP
0C00
0C00
C0C0
C0C0
3F00
3F00
FFC0
FFC0
3F00
3F00
C0C0
C0C0
0C00
0C00
ENDCHAR
STARTCHAR CLOUD
ENCODING 9729
SWIDTH 1280 0
DWIDTH 12 0
BBX 12 6 0 2
BITMAP
0CC0
0CC0
3FF0
3FF0
FFF0
FFF0
ENDCHAR
STARTCHAR UMBRELLA
ENCODING 9730
SWIDTH 1280 0
DWIDTH 12 0
BBX 10 12 0 0
BITMAP
3F00
3F00
FFC0
FFC0
0C00
0C00
0C00
0C00
0C00
0C00
3000
3000
ENDCHAR
STARTCHAR COMET
ENCODING 9732
SWIDTH 1280 0
DWIDTH 12 0
BBX 12 14 0 0
BITMAP
0C00
0C00
0CC0
0CC0
30C0
30C0
0300
0300
3030
3030
CCC0
CCC0
3000
3000
ENDCHAR
STARTCHAR BLACK
ENCODING 9733
SWIDTH 1280 0
DWIDTH 12 0
BBX 10 10 0 2
BITMAP
0C00
0C00
0C00
0C00
FFC0
FFC0
3F00
3F00
C0C0
C0C0
ENDCHAR
STARTCHAR WHITE
ENCODING 9734
SWIDTH 1280 0
DWIDTH 12 0
BBX 10 10 0 4
BITMAP
0C00
0C00
0C00
0C00
F3C0
F3C0
3F00
3F00
C0C0
C0C0
ENDCHAR
STARTCHAR LIGHTNING
ENCODING 9735
SWIDTH 1280 0
DWIDTH 12 0
BBX 8 14 0 0
BITMAP
03
03
0C
0C
30
30
C0
C0
33
33
0F
0F
3F
3F
ENDCHAR
STARTCHAR THUNDERSTORM
ENCODING 9736
SWIDTH 1280 0
DWIDTH 12 0
BBX 10 14 0 0
BITMAP
FFC0
FFC0
C0C0
C0C0
C300
C300
CC00
CC00
CCC0
CCC0
C3C0
C3C0
CFC0
CFC0
ENDCHAR
STARTCHAR SUN
ENCODING 9737
SWIDTH 1280 0
DWIDTH 12 0
BBX 10 10 0 0
BITMAP
3F00
3F00
C0C0
C0C0
CCC0
CCC0
C0C0
C0C0
3F00
3F00
ENDCHAR
STARTCHAR WHITE
ENCODING 9750
SWIDTH 1280 0
DWIDTH 12 0
BBX 10 14 0 0
BITMAP
0C00
0C00
3300
3300
C0C0
C0C0
C0C0
C0C0
C0C0
C0C0
C0C0
C0C0
FFC0
FFC0
ENDCHAR
STARTCHAR BLACK
ENCODING 9751
SWIDTH 1280 0
DWIDTH 12 0
BBX 10 14 0 0
BITMAP
0C00
0C00
3F00
3F00
FFC0
FFC0
FFC0
FFC0
FFC0
FFC0
FFC0
FFC0
FFC0
FFC0
ENDCHAR
STARTCHAR BLACK
ENCODING 9824
SWIDTH 1280 0
DWIDTH 12 0
BBX 10 16 0 -2
BITMAP
0C00
0C00
0C00
0C00
3F00
3F00
FFC0
FFC0
FFC0
FFC0
3F00
3F00
0C00
0C00
3F00
3F00
ENDCHAR
STARTCHAR WHITE
ENCODING 9825
SWIDTH 1280 0
DWIDTH 12 0
BBX 10 10 0 0
BITMAP
3300
3300
CCC0
CCC0
C0C0
C0C0
3300
3300
0C00
0C00
ENDCHAR
STARTCHAR WHITE
ENCODING 9826
SWIDTH 1280 0
DWIDTH 12 0
BBX 10 12 0 0
BITMAP
0C00
0C00
3300
3300
C0C0
C0C0
C0C0
C0C0
3300
3300
0C00
0C00
ENDCHAR
STARTCHAR BLACK
ENCODING 9827
SWIDTH 1280 0
DWIDTH 12 0
BBX 10 16 0 -2
BITMAP
3F00
3F00
3F00
3F00
0C00
0C00
FFC0
FFC0
FFC0
FFC0
FFC0
FFC0
0C00
0C00
3F00
3F00
ENDCHAR
STARTCHAR WHITE
ENCODING 9828
SWIDTH 1280 0
DWIDTH 12 0
BBX 10 16 0 -2
BITMAP
0C00
0C00
0C00
0C00
3300
3300
C0C0
C0C0
C0C0
C0C0
3F00
3F00
0C00
0C00
3F00
3F00
ENDCHAR
STARTCHAR BLACK
ENCODING 9829
SWIDTH 1706 0
DWIDTH 16 0
BBX 14 12 0 0
BITMAP
3CF0
3CF0
FFFC
FFFC
FFFC
FFFC
3FF0
3FF0
0FC0
0FC0
0300
0300
ENDCHAR
STARTCHAR BLACK
ENCODING 9830
SWIDTH 1280 0
DWIDTH 12 0
BBX 10 18 0 -4
BITMAP
0C00
0C00
0C00
0C00
3F00
3F00
3F00
3F00
FFC0
FFC0
3F00
3F00
3F00
3F00
0C00
0C00
0C00
0C00
ENDCHAR
STARTCHAR WHITE
ENCODING 9831
SWIDTH 1280 0
DWIDTH 12 0
BBX 10 16 0 -2
BITMAP
3F00
3F00
3300
3300
0C00
0C00
FFC0
FFC0
CCC0
CCC0
FFC0
FFC0
0C00
0C00
3F00
3F00
ENDCHAR
STARTCHAR QUARTER
ENCODING 9833
SWIDTH 1280 0
DWIDTH 12 0
BBX 6 14 0 0
BITMAP
0C
0C
0C
0C
0C
0C
0C
0C
0C
0C
FC
FC
FC
FC
ENDCHAR
STARTCHAR EIGHTH
ENCODING 9834
SWIDTH 1280 0
DWIDTH 12 0
BBX 10 14 0 0
BITMAP
0F00
0F00
0CC0
0CC0
0CC0
0CC0
0C00
0C00
0C00
0C00
FC00
FC00
FC00
FC00
ENDCHAR
STARTCHAR BEAMED
ENCODING 9835
SWIDTH 1280 0
DWIDTH 12 0
BBX 14 14 0 0
BITMAP
0FFC
0FFC
0FFC
0FFC
0C0C
0C0C
0C0C
0C0C
0C0C
0C0C
FCFC
FCFC
FCFC
FCFC
ENDCHAR
STARTCHAR BEAMED
ENCODING 9836
SWIDTH 1280 0
DWIDTH 12 0
BBX 14 14 0 0
BITMAP
0FFC
0FFC
0FFC
0FFC
0C0C
0C0C
0FFC
0FFC
0C0C
0C0C
FCFC
FCFC
FCFC
FCFC
ENDCHAR
STARTCHAR MUSIC
ENCODING 9837
SWIDTH 1280 0
DWIDTH 12 0
BBX 6 14 0 0
BITMAP
C0
C0
C0
C0
C0
C0
C0
C0
FC
FC
CC
CC
F0
F0
ENDCHAR
STARTCHAR MUSIC
ENCODING 9838
SWIDTH 1280 0
DWIDTH 12 0
BBX 8 16 0 -2
BITMAP
C0
C0
C3
C3
CF
CF
F3
F3
CF
CF
F3
F3
C3
C3
03
03
ENDCHAR
STARTCHAR MUSIC
ENCODING 9839
SWIDTH 1280 0
DWIDTH 12 0
BBX 10 16 0 -2
BITMAP
0300
0300
33C0
33C0
3F00
3F00
F300
F300
33C0
33C0
3F00
3F00
F300
F300
3000
3000
ENDCHAR
STARTCHAR CHECK
ENCODING 10003
SWIDTH 1066 0
DWIDTH 10 0
BBX 10 14 0 0
BITMAP
00C0
00C0
0300
0300
0300
0300
CC00
CC00
CC00
CC00
3000
3000
3000
3000
ENDCHAR
STARTCHAR HEAVY
ENCODING 10004
SWIDTH 1280 0
DWIDTH 12 0
BBX 12 14 0 0
BITMAP
0030
0030
00F0
00F0
00C0
00C0
F3C0
F3C0
3300
3300
3F00
3F00
0C00
0C00
ENDCHAR
STARTCHAR MULTIPLICATION
ENCODING 10005
SWIDTH 1066 0
DWIDTH 10 0
BBX 10 10 0 0
BITMAP
C0C0
C0C0
3300
3300
0C00
0C00
3300
3300
C0C0
C0C0
ENDCHAR
STARTCHAR HEAVY
ENCODING 10006
SWIDTH 1066 0
DWIDTH 10 0
BBX 10 10 0 0
BITMAP
F3C0
F3C0
3300
3300
0C00
0C00
3300
3300
F3C0
F3C0
ENDCHAR
STARTCHAR BALLOT
ENCODING 10007
SWIDTH 1066 0
DWIDTH 10 0
BBX 10 14 0 0
BITMAP
00C0
00C0
30C0
30C0
3300
3300
0C00
0C00
3300
3300
C300
C300
C000
C000
ENDCHAR
STARTCHAR HEAVY
ENCODING 10008
SWIDTH 1066 0
DWIDTH 10 0
BBX 10 14 0 0
BITMAP
00C0
00C0
33C0
33C0
3F00
3F00
0C00
0C00
3F00
3F00
F300
F300
C000
C000
ENDCHAR
STARTCHAR HEAVY
ENCODING 10010
SWIDTH 1280 0
DWIDTH 12 0
BBX 12 12 0 0
BITMAP
0F00
0F00
0F00
0F00
FFF0
FFF0
FFF0
FFF0
0F00
0F00
0F00
0F00
ENDCHAR
STARTCHAR OPEN
ENCODING 10011
SWIDTH 1280 0
DWIDTH 12 0
BBX 10 10 0 2
BITMAP
0C00
0C00
0C00
0C00
F3C0
F3C0
0C00
0C00
0C00
0C00
ENDCHAR
STARTCHAR HEAVY
ENCODING 10012
SWIDTH 1280 0
DWIDTH 12 0
BBX 12 12 0 0
BITMAP
0F00
0F00
0F00
0F00
F0F0
F0F0
F0F0
F0F0
0F00
0F00
0F00
0F00
ENDCHAR
STARTCHAR LATIN
ENCODING 10013
SWIDTH 1066 0
DWIDTH 10 0
BBX 10 12 0 0
BITMAP
0C00
0C00
0C00
0C00
FFC0
FFC0
0C00
0C00
0C00
0C00
0C00
0C00
ENDCHAR
STARTCHAR SHADOWED
ENCODING 10014
SWIDTH 1280 0
DWIDTH 12 0
BBX 12 14 0 0
BITMAP
0F00
0F00
0F00
0F00
FFF0
FFF0
FFF0
FFF0
0F00
0F00
0F00
0F00
0F00
0F00
ENDCHAR
STARTCHAR CIRCLED
ENCODING 10026
SWIDTH 1280 0
DWIDTH 12 0
BBX 14 16 -2 -2
BITMAP
3FF0
3FF0
FCFC
FCFC
FCFC
FCFC
C00C
C00C
F03C
F03C
CFCC
CFCC
FFFC
FFFC
3FF0
3FF0
ENDCHAR
STARTCHAR OPEN
ENCODING 10027
SWIDTH 1280 0
DWIDTH 12 0
BBX 10 10 0 4
BITMAP
0C00
0C00
0C00
0C00
F3C0
F3C0
3F00
3F00
C0C0
C0C0
ENDCHAR
STARTCHAR EIGHT
ENCODING 10035
SWIDTH 1280 0
DWIDTH 12 0
BBX 10 14 0 -2
BITMAP
0C00
0C00
CCC0
CCC0
3F00
3F00
FFC0
FFC0
3F00
3F00
CCC0
CCC0
0C00
0C00
ENDCHAR
STARTCHAR SIX
ENCODING 10038
SWIDTH 1280 0
DWIDTH 12 0
BBX 10 12 0 0
BITMAP
0C00
0C00
CCC0
CCC0
3F00
3F00
3F00
3F00
CCC0
CCC0
0C00
0C00
ENDCHAR
STARTCHAR LOWER
ENCODING 10063
SWIDTH 1280 0
DWIDTH 12 0
BBX 12 12 0 2
BITMAP
FFC0
FFC0
C0F0
C0F0
C0F0
C0F0
C0F0
C0F0
FFF0
FFF0
3FF0
3FF0
ENDCHAR
STARTCHAR UPPER
ENCODING 10064
SWIDTH 1280 0
DWIDTH 12 0
BBX 12 12 0 2
BITMAP
3FF0
3FF0
FFF0
FFF0
C0F0
C0F0
C0F0
C0F0
C0F0
C0F0
FFC0
FFC0
ENDCHAR
STARTCHAR LOWER
ENCODING 10065
SWIDTH 1280 0
DWIDTH 12 0
BBX 12 12 0 2
BITMAP
FFC0
FFC0
C0F0
C0F0
C0F0
C0F0
C0F0
C0F0
FFF0
FFF0
3FF0
3FF0
ENDCHAR
STARTCHAR UPPER
ENCODING 10066
SWIDTH 1280 0
DWIDTH 12 0
BBX 12 12 0 2
BITMAP
3FF0
3FF0
FFF0
FFF0
C0F0
C0F0
C0F0
C0F0
C0F0
C0F0
FFC0
FFC0
ENDCHAR
STARTCHAR HEAVY
ENCODING 10075
SWIDTH 1280 0
DWIDTH 12 0
BBX 4 8 4 6
BITMAP
30
30
C0
C0
F0
F0
F0
F0
ENDCHAR
STARTCHAR HEAVY
ENCODING 10076
SWIDTH 1280 0
DWIDTH 12 0
BBX 4 8 4 8
BITMAP
F0
F0
F0
F0
30
30
C0
C0
ENDCHAR
STARTCHAR HEAVY
ENCODING 10077
SWIDTH 1280 0
DWIDTH 12 0
BBX 10 8 0 6
BITMAP
30C0
30C0
C300
C300
F3C0
F3C0
F3C0
F3C0
ENDCHAR
STARTCHAR HEAVY
ENCODING 10078
SWIDTH 1280 0
DWIDTH 12 0
BBX 10 8 0 8
BITMAP
F3C0
F3C0
F3C0
F3C0
30C0
30C0
C300
C300
ENDCHAR
STARTCHAR HEAVY
ENCODING 10079
SWIDTH 1280 0
DWIDTH 12 0
BBX 4 8 0 -4
BITMAP
F0
F0
F0
F0
30
30
C0
C0
ENDCHAR
STARTCHAR HEAVY
ENCODING 10080
SWIDTH 1280 0
DWIDTH 12 0
BBX 10 8 0 -4
BITMAP
F3C0
F3C0
F3C0
F3C0
30C0
30C0
C300
C300
ENDCHAR
STARTCHAR HEAVY
ENCODING 10084
SWIDTH 1706 0
DWIDTH 16 0
BBX 14 12 0 0
BITMAP
3CF0
3CF0
FFFC
FFFC
FFFC
FFFC
3FF0
3FF0
0FC0
0FC0
0300
0300
ENDCHAR
STARTCHAR ROTATED
ENCODING 10085
SWIDTH 1280 0
DWIDTH 12 0
BBX 10 10 0 2
BITMAP
3C00
3C00
FF00
FF00
3FC0
3FC0
FF00
FF00
3C00
3C00
ENDCHAR
STARTCHAR FLORAL
ENCODING 10086
SWIDTH 1280 0
DWIDTH 12 0
BBX 16 18 -2 0
BITMAP
030C
030C
3CC3
3CC3
C3C3
C3C3
C33C
C33C
0CC0
0CC0
3FF0
3FF0
3FF0
3FF0
0FC0
0FC0
0300
0300
ENDCHAR
STARTCHAR MEDIUM
ENCODING 10092
SWIDTH 1280 0
DWIDTH 12 0
BBX 10 14 0 0
BITMAP
03C0
03C0
0F00
0F00
3C00
3C00
F000
F000
3C00
3C00
0F00
0F00
03C0
03C0
ENDCHAR
STARTCHAR MEDIUM
ENCODING 10093
SWIDTH 1280 0
DWIDTH 12 0
BBX 10 14 0 0
BITMAP
F000
F000
3C00
3C00
0F00
0F00
03C0
03C0
0F00
0F00
3C00
3C00
F000
F000
ENDCHAR
STARTCHAR HEAVY
ENCODING 10094
SWIDTH 1280 0
DWIDTH 12 0
BBX 12 16 0 -2
BITMAP
03F0
03F0
0FC0
0FC0
3F00
3F00
FC00
FC00
FC00
FC00
3F00
3F00
0FC0
0FC0
03F0
03F0
ENDCHAR
STARTCHAR HEAVY
ENCODING 10095
SWIDTH 1280 0
DWIDTH 12 0
BBX 12 16 0 -2
BITMAP
FC00
FC00
3F00
3F00
0FC0
0FC0
03F0
03F0
03F0
03F0
0FC0
0FC0
3F00
3F00
FC00
FC00
ENDCHAR
STARTCHAR HEAVY
ENCODING 10096
SWIDTH 1280 0
DWIDTH 12 0
BBX 12 16 0 -2
BITMAP
0FF0
0FF0
3FC0
3FC0
FF00
FF00
FC00
FC00
FC00
FC00
FF00
FF00
3FC0
3FC0
0FF0
0FF0
ENDCHAR
STARTCHAR HEAVY
ENCODING 10097
SWIDTH 1280 0
DWIDTH 12 0
BBX 12 16 0 -2
BITMAP
FF00
FF00
3FC0
3FC0
0FF0
0FF0
03F0
03F0
03F0
03F0
0FF0
0FF0
3FC0
3FC0
FF00
FF00
ENDCHAR
STARTCHAR DINGBAT
ENCODING 10122
SWIDTH 1280 0
DWIDTH 12 0
BBX 12 16 0 -2
BITMAP
3FC0
3FC0
F0F0
F0F0
FCF0
FCF0
FCF0
FCF0
FCF0
FCF0
FCF0
FCF0
F030
F030
3FC0
3FC0
ENDCHAR
STARTCHAR DINGBAT
ENCODING 10123
SWIDTH 1280 0
DWIDTH 12 0
BBX 12 16 0 -2
BITMAP
3FC0
3FC0
F0F0
F0F0
CF30
CF30
FF30
FF30
FCF0
FCF0
F3F0
F3F0
C030
C030
3FC0
3FC0
ENDCHAR
STARTCHAR DINGBAT
ENCODING 10124
SWIDTH 1280 0
DWIDTH 12 0
BBX 12 16 0 -2
BITMAP
3FC0
3FC0
C0F0
C0F0
FF30
FF30
F0F0
F0F0
FF30
FF30
FF30
FF30
C0F0
C0F0
3FC0
3FC0
ENDCHAR
STARTCHAR DINGBAT
ENCODING 10125
SWIDTH 1280 0
DWIDTH 12 0
BBX 12 16 0 -2
BITMAP
3FC0
3FC0
FC30
FC30
F330
F330
CF30
CF30
C030
C030
FF30
FF30
FF30
FF30
3FC0
3FC0
ENDCHAR
STARTCHAR DINGBAT
ENCODING 10126
SWIDTH 1280 0
DWIDTH 12 0
BBX 12 16 0 -2
BITMAP
3FC0
3FC0
C030
C030
CFF0
CFF0
C0F0
C0F0
FF30
FF30
FF30
FF30
C0F0
C0F0
3FC0
3FC0
ENDCHAR
STARTCHAR DINGBAT
ENCODING 10127
SWIDTH 1280 0
DWIDTH 12 0
BBX 12 16 0 -2
BITMAP
3FC0
3FC0
F0F0
F0F0
CFF0
CFF0
C0F0
C0F0
CF30
CF30
CF30
CF30
F0F0
F0F0
3FC0
3FC0
ENDCHAR
STARTCHAR DINGBAT
ENCODING 10128
SWIDTH 1280 0
DWIDTH 12 0
BBX 12 16 0 -2
BITMAP
3FC0
3FC0
C030
C030
FF30
FF30
FCF0
FCF0
FCF0
FCF0
F3F0
F3F0
F3F0
F3F0
3FC0
3FC0
ENDCHAR
STARTCHAR DINGBAT
ENCODING 10129
SWIDTH 1280 0
DWIDTH 12 0
BBX 12 16 0 -2
BITMAP
3FC0
3FC0
F0F0
F0F0
CF30
CF30
F0F0
F0F0
CF30
CF30
CF30
CF30
F0F0
F0F0
3FC0
3FC0
ENDCHAR
STARTCHAR DINGBAT
ENCODING 10130
SWIDTH 1280 0
DWIDTH 12 0
BBX 12 16 0 -2
BITMAP
3FC0
3FC0
F0F0
F0F0
CF30
CF30
CF30
CF30
F030
F030
FF30
FF30
F0F0
F0F0
3FC0
3FC0
ENDCHAR
STARTCHAR DINGBAT
ENCODING 10131
SWIDTH 1280 0
DWIDTH 12 0
BBX 14 16 0 -2
BITMAP
3FF0
3FF0
CF3C
CF3C
CCCC
CCCC
CCCC
CCCC
CCCC
CCCC
CCCC
CCCC
CF3C
CF3C
3FF0
3FF0
ENDCHAR
STARTCHAR HEAVY
ENCODING 10132
SWIDTH 1280 0
DWIDTH 12 0
BBX 10 10 0 0
BITMAP
0C00
0C00
0300
0300
FFC0
FFC0
0300
0300
0C00
0C00
ENDCHAR
STARTCHAR HEAVY
ENCODING 10133
SWIDTH 1280 0
DWIDTH 12 0
BBX 12 12 0 0
BITMAP
0F00
0F00
0F00
0F00
FFF0
FFF0
FFF0
FFF0
0F00
0F00
0F00
0F00
ENDCHAR
STARTCHAR HEAVY
ENCODING 10134
SWIDTH 1280 0
DWIDTH 12 0
BBX 12 4 0 4
BITMAP
FFF0
FFF0
FFF0
FFF0
ENDCHAR
STARTCHAR HEAVY
ENCODING 10135
SWIDTH 1280 0
DWIDTH 12 0
BBX 12 12 0 0
BITMAP
0F00
0F00
0000
0000
FFF0
FFF0
FFF0
FFF0
0000
0000
0F00
0F00
ENDCHAR
STARTCHAR HEAVY
ENCODING 10136
SWIDTH 1280 0
DWIDTH 12 0
BBX 10 10 0 0
BITMAP
C000
C000
3000
3000
0CC0
0CC0
03C0
03C0
0FC0
0FC0
ENDCHAR
STARTCHAR HEAVY
ENCODING 10137
SWIDTH 1280 0
DWIDTH 12 0
BBX 10 6 0 2
BITMAP
0300
0300
FFC0
FFC0
0300
0300
ENDCHAR
STARTCHAR HEAVY
ENCODING 10138
SWIDTH 1280 0
DWIDTH 12 0
BBX 10 10 0 0
BITMAP
0FC0
0FC0
03C0
03C0
0CC0
0CC0
3000
3000
C000
C000
ENDCHAR
STARTCHAR DRAFTING
ENCODING 10139
SWIDTH 1280 0
DWIDTH 12 0
BBX 16 10 -4 0
BITMAP
0300
0300
00F0
00F0
FFFF
FFFF
00F0
00F0
0300
0300
ENDCHAR
STARTCHAR WHITE
ENCODING 11088
SWIDTH 1280 0
DWIDTH 12 0
BBX 10 12 0 0
BITMAP
0C00
0C00
0C00
0C00
FFC0
FFC0
3300
3300
3F00
3F00
C0C0
C0C0
ENDCHAR
STARTCHAR uni2B5F
ENCODING 11103
SWIDTH 1280 0
DWIDTH 12 0
BBX 10 18 0 0
BITMAP
CCC0
CCC0
0000
0000
CCC0
CCC0
0000
0000
CCC0
CCC0
0000
0000
CCC0
CCC0
0000
0000
CCC0
CCC0
ENDCHAR
STARTCHAR uni2B60
ENCODING 11104
SWIDTH 1280 0
DWIDTH 12 0
BBX 12 18 0 -2
BITMAP
F000
F000
F0C0
F0C0
F3F0
F3F0
F0C0
F0C0
F0C0
F0C0
F300
F300
FC00
FC00
F000
F000
F000
F000
ENDCHAR
STARTCHAR uni2B61
ENCODING 11105
SWIDTH 1280 0
DWIDTH 12 0
BBX 8 14 2 0
BITMAP
F0
F0
F0
F0
FF
FF
00
00
F3
F3
FF
FF
CF
CF
ENDCHAR
STARTCHAR uni2B62
ENCODING 11106
SWIDTH 1280 0
DWIDTH 12 0
BBX 10 16 0 -2
BITMAP
3FC0
3FC0
C000
C000
C3C0
C3C0
C3C0
C3C0
C000
C000
C3C0
C3C0
C300
C300
3C00
3C00
ENDCHAR
STARTCHAR uni2B63
ENCODING 11107
SWIDTH 1280 0
DWIDTH 12 0
BBX 12 16 0 -2
BITMAP
FFC0
FFC0
0030
0030
C3C0
C3C0
C300
C300
C300
C300
C300
C300
C300
C300
3C00
3C00
ENDCHAR
STARTCHAR uni2B64
ENCODING 11108
SWIDTH 1280 0
DWIDTH 12 0
BBX 12 14 0 0
BITMAP
0F00
0F00
30C0
30C0
30C0
30C0
FFF0
FFF0
F0F0
F0F0
FFF0
FFF0
3FC0
3FC0
ENDCHAR
STARTCHAR uni2B65
ENCODING 11109
SWIDTH 1280 0
DWIDTH 12 0
BBX 14 14 0 0
BITMAP
F33C
F33C
C00C
C00C
0FC0
0FC0
CFCC
CFCC
0FC0
0FC0
C00C
C00C
F33C
F33C
ENDCHAR
STARTCHAR uni2B66
ENCODING 11110
SWIDTH 1280 0
DWIDTH 12 0
BBX 14 14 0 0
BITMAP
CCCC
CCCC
0000
0000
FFFC
FFFC
FFFC
FFFC
FFFC
FFFC
0000
0000
CCCC
CCCC
ENDCHAR
STARTCHAR uni2B67
ENCODING 11111
SWIDTH 1492 0
DWIDTH 14 0
BBX 14 14 0 0
BITMAP
3FF0
3FF0
FCFC
FCFC
FCFC
FCFC
FC0C
FC0C
FFFC
FFFC
FFFC
FFFC
3FF0
3FF0
ENDCHAR
STARTCHAR uni2B68
ENCODING 11112
SWIDTH 1280 0
DWIDTH 12 0
BBX 16 14 0 0
BITMAP
FFFC
FFFC
C00C
C00C
CFCF
CFCF
CFCF
CFCF
CFCF
CFCF
C00C
C00C
FFFC
FFFC
ENDCHAR
STARTCHAR uni2B69
ENCODING 11113
SWIDTH 1280 0
DWIDTH 12 0
BBX 16 14 0 0
BITMAP
FFFC
FFFC
C00C
C00C
C00F
C00F
C00F
C00F
C00F
C00F
C00C
C00C
FFFC
FFFC
ENDCHAR
STARTCHAR uni2B6A
ENCODING 11114
SWIDTH 1280 0
DWIDTH 12 0
BBX 16 14 0 0
BITMAP
FFFC
FFFC
C00C
C00C
CC0F
CC0F
CC0F
CC0F
CC0F
CC0F
C00C
C00C
FFFC
FFFC
ENDCHAR
STARTCHAR uni2B6B
ENCODING 11115
SWIDTH 1280 0
DWIDTH 12 0
BBX 16 14 0 0
BITMAP
FFFC
FFFC
C00C
C00C
CF0F
CF0F
CF0F
CF0F
CF0F
CF0F
C00C
C00C
FFFC
FFFC
ENDCHAR
STARTCHAR uni2B6C
ENCODING 11116
SWIDTH 1280 0
DWIDTH 12 0
BBX 10 14 0 -2
BITMAP
FFC0
FFC0
0000
0000
0C00
0C00
0C00
0C00
FFC0
FFC0
0C00
0C00
0C00
0C00
ENDCHAR
STARTCHAR uni2B6D
ENCODING 11117
SWIDTH 1280 0
DWIDTH 12 0
BBX 14 14 0 0
BITMAP
FFFC
FFFC
CCCC
CCCC
F33C
F33C
CFCC
CFCC
FFFC
FFFC
FFFC
FFFC
FFFC
FFFC
ENDCHAR
STARTCHAR uni2B6E
ENCODING 11118
SWIDTH 1280 0
DWIDTH 12 0
BBX 14 14 0 0
BITMAP
FFFC
FFFC
CFCC
CFCC
F33C
F33C
FCFC
FCFC
FFFC
FFFC
FFFC
FFFC
FFFC
FFFC
ENDCHAR
STARTCHAR uni2B6F
ENCODING 11119
SWIDTH 1280 0
DWIDTH 12 0
BBX 10 6 0 2
BITMAP
CCC0
CCC0
3300
3300
CCC0
CCC0
ENDCHAR
STARTCHAR uni2B70
ENCODING 11120
SWIDTH 1280 0
DWIDTH 12 0
BBX 10 6 0 2
BITMAP
CCC0
CCC0
0000
0000
CCC0
CCC0
ENDCHAR
STARTCHAR uni2B71
ENCODING 11121
SWIDTH 1280 0
DWIDTH 12 0
BBX 10 6 0 2
BITMAP
FFC0
FFC0
FFC0
FFC0
FFC0
FFC0
ENDCHAR
STARTCHAR uni2B80
ENCODING 11136
SWIDTH 1280 0
DWIDTH 12 0
BBX 12 22 0 -4
BITMAP
C000
C000
F000
F000
FC00
FC00
FF00
FF00
FFC0
FFC0
FFF0
FFF0
FFC0
FFC0
FF00
FF00
FC00
FC00
F000
F000
C000
C000
ENDCHAR
STARTCHAR uni2B81
ENCODING 11137
SWIDTH 1280 0
DWIDTH 12 0
BBX 12 22 0 -4
BITMAP
C000
C000
3000
3000
0C00
0C00
0300
0300
00C0
00C0
0030
0030
00C0
00C0
0300
0300
0C00
0C00
3000
3000
C000
C000
ENDCHAR
STARTCHAR uni2B82
ENCODING 11138
SWIDTH 1280 0
DWIDTH 12 0
BBX 12 22 0 -4
BITMAP
0030
0030
00F0
00F0
03F0
03F0
0FF0
0FF0
3FF0
3FF0
FFF0
FFF0
3FF0
3FF0
0FF0
0FF0
03F0
03F0
00F0
00F0
0030
0030
ENDCHAR
STARTCHAR uni2B83
ENCODING 11139
SWIDTH 1280 0
DWIDTH 12 0
BBX 12 22 0 -4
BITMAP
0030
0030
00C0
00C0
0300
0300
0C00
0C00
3000
3000
C000
C000
3000
3000
0C00
0C00
0300
0300
00C0
00C0
0030
0030
ENDCHAR
STARTCHAR char11150
ENCODING 11150
SWIDTH 1706 0
DWIDTH 16 0
BBX 14 20 2 -2
BITMAP
0FC0
0FC0
FFFC
FFFC
F33C
F33C
F33C
F33C
C00C
C00C
C00C
C00C
F03C
F03C
FCFC
FCFC
FCFC
FCFC
FFFC
FFFC
ENDCHAR
STARTCHAR char11151
ENCODING 11151
SWIDTH 1706 0
DWIDTH 16 0
BBX 14 20 2 -2
BITMAP
0FC0
0FC0
FFFC
FFFC
C00C
C00C
CFCC
CFCC
CFCC
CFCC
CFCC
CFCC
CFCC
CFCC
CFCC
CFCC
C00C
C00C
FFFC
FFFC
ENDCHAR
STARTCHAR char11152
ENCODING 11152
SWIDTH 1706 0
DWIDTH 16 0
BBX 14 20 2 -2
BITMAP
0FC0
0FC0
FFFC
FFFC
C00C
C00C
C00C
C00C
C00C
C00C
C00C
C00C
C00C
C00C
C00C
C00C
C00C
C00C
FFFC
FFFC
ENDCHAR
STARTCHAR char11153
ENCODING 11153
SWIDTH 1706 0
DWIDTH 16 0
BBX 14 20 2 -2
BITMAP
0FC0
0FC0
FFFC
FFFC
C00C
C00C
C00C
C00C
C00C
C00C
CFCC
CFCC
CFCC
CFCC
CFCC
CFCC
C00C
C00C
FFFC
FFFC
ENDCHAR
STARTCHAR char11154
ENCODING 11154
SWIDTH 1706 0
DWIDTH 16 0
BBX 14 20 2 -2
BITMAP
0FC0
0FC0
FFFC
FFFC
FF3C
FF3C
FCFC
FCFC
F0FC
F0FC
C00C
C00C
FC3C
FC3C
FCFC
FCFC
F3FC
F3FC
FFFC
FFFC
ENDCHAR
STARTCHAR char11155
ENCODING 11155
SWIDTH 1492 0
DWIDTH 14 0
BBX 10 18 4 -2
BITMAP
C000
C000
F000
F000
FC00
FC00
FF00
FF00
FFC0
FFC0
FF00
FF00
FC00
FC00
F000
F000
C000
C000
ENDCHAR
STARTCHAR char11156
ENCODING 11156
SWIDTH 1706 0
DWIDTH 16 0
BBX 12 16 4 0
BITMAP
F0F0
F0F0
F0F0
F0F0
F0F0
F0F0
F0F0
F0F0
F0F0
F0F0
F0F0
F0F0
F0F0
F0F0
F0F0
F0F0
ENDCHAR
STARTCHAR char11157
ENCODING 11157
SWIDTH 1706 0
DWIDTH 16 0
BBX 14 16 2 0
BITMAP
3FFC
3FFC
3FFC
3FFC
300C
300C
300C
300C
300C
300C
300C
300C
F03C
F03C
F03C
F03C
ENDCHAR
STARTCHAR char11158
ENCODING 11158
SWIDTH 1706 0
DWIDTH 16 0
BBX 14 16 2 0
BITMAP
0FC0
0FC0
3CF0
3CF0
FCFC
FCFC
FCFC
FCFC
FC0C
FC0C
FFFC
FFFC
3FF0
3FF0
0FC0
0FC0
ENDCHAR
STARTCHAR char11159
ENCODING 11159
SWIDTH 1492 0
DWIDTH 14 0
BBX 14 20 2 -2
BITMAP
0300
0300
0300
0300
0FC0
0FC0
0FC0
0FC0
0FC0
0FC0
3CF0
3CF0
3CF0
3CF0
FCFC
FCFC
F03C
F03C
C00C
C00C
ENDCHAR
STARTCHAR char11160
ENCODING 11160
SWIDTH 1706 0
DWIDTH 16 0
BBX 16 16 0 0
BITMAP
FF3F
FF3F
FF3F
FF3F
FF3F
FF3F
FF00
FF00
FF3F
FF3F
FF3F
FF3F
FF3F
FF3F
FF3F
FF3F
ENDCHAR
STARTCHAR char11161
ENCODING 11161
SWIDTH 1706 0
DWIDTH 16 0
BBX 16 16 0 0
BITMAP
FCFF
FCFF
FCFF
FCFF
FCFF
FCFF
00FF
00FF
FCFF
FCFF
FCFF
FCFF
FCFF
FCFF
FCFF
FCFF
ENDCHAR
STARTCHAR char11162
ENCODING 11162
SWIDTH 1706 0
DWIDTH 16 0
BBX 16 16 0 0
BITMAP
FFFF
FFFF
FFFF
FFFF
FFFF
FFFF
FFFF
FFFF
0000
0000
FF3F
FF3F
FF3F
FF3F
FF3F
FF3F
ENDCHAR
STARTCHAR char11163
ENCODING 11163
SWIDTH 1492 0
DWIDTH 14 0
BBX 16 16 0 0
BITMAP
FFF0
FFF0
FFF3
FFF3
FFF3
FFF3
FFF3
FFF3
FFF3
FFF3
FFF3
FFF3
0003
0003
0FFF
0FFF
ENDCHAR
STARTCHAR char11164
ENCODING 11164
SWIDTH 1706 0
DWIDTH 16 0
BBX 16 18 0 0
BITMAP
0FF0
0FF0
300C
300C
C003
C003
C003
C003
C003
C003
CC33
CC33
FC3F
FC3F
3C3C
3C3C
0C30
0C30
ENDCHAR
STARTCHAR char11165
ENCODING 11165
SWIDTH 1492 0
DWIDTH 14 0
BBX 14 18 0 -2
BITMAP
00C0
00C0
C3C0
C3C0
33C0
33C0
CCC0
CCC0
F300
F300
FCC0
FCC0
0F30
0F30
03CC
03CC
00C0
00C0
ENDCHAR
STARTCHAR char11166
ENCODING 11166
SWIDTH 1920 0
DWIDTH 18 0
BBX 16 18 0 -2
BITMAP
00C3
00C3
03CC
03CC
0FC0
0FC0
FFC0
FFC0
FFCF
FFCF
FFC0
FFC0
0FC0
0FC0
03CC
03CC
00C3
00C3
ENDCHAR
STARTCHAR char11167
ENCODING 11167
SWIDTH 1280 0
DWIDTH 12 0
BBX 10 18 0 -2
BITMAP
00C0
00C0
03C0
03C0
0FC0
0FC0
FFC0
FFC0
FFC0
FFC0
FFC0
FFC0
0FC0
0FC0
03C0
03C0
00C0
00C0
ENDCHAR
STARTCHAR char11168
ENCODING 11168
SWIDTH 1706 0
DWIDTH 16 0
BBX 14 12 2 0
BITMAP
3CF0
3CF0
FFFC
FFFC
FFFC
FFFC
3FF0
3FF0
0FC0
0FC0
0300
0300
ENDCHAR
STARTCHAR WAVE
ENCODING 12316
SWIDTH 1280 0
DWIDTH 12 0
BBX 12 4 0 6
BITMAP
3C30
3C30
C3C0
C3C0
ENDCHAR
STARTCHAR REVERSED
ENCODING 12317
SWIDTH 1280 0
DWIDTH 12 0
BBX 8 6 2 8
BITMAP
CC
CC
CC
CC
33
33
ENDCHAR
STARTCHAR DOUBLE
ENCODING 12318
SWIDTH 1280 0
DWIDTH 12 0
BBX 8 6 0 8
BITMAP
33
33
33
33
CC
CC
ENDCHAR
STARTCHAR LOW
ENCODING 12319
SWIDTH 1280 0
DWIDTH 12 0
BBX 8 4 2 0
BITMAP
33
33
CC
CC
ENDCHAR
STARTCHAR char11104
ENCODING 57504
SWIDTH 1280 0
DWIDTH 12 0
BBX 12 18 0 -2
BITMAP
F000
F000
F0C0
F0C0
F3F0
F3F0
F0C0
F0C0
F0C0
F0C0
F300
F300
FC00
FC00
F000
F000
F000
F000
ENDCHAR
STARTCHAR char11105
ENCODING 57505
SWIDTH 1280 0
DWIDTH 12 0
BBX 8 14 2 0
BITMAP
F0
F0
F0
F0
FF
FF
00
00
F3
F3
FF
FF
CF
CF
ENDCHAR
STARTCHAR char11108
ENCODING 57506
SWIDTH 1280 0
DWIDTH 12 0
BBX 12 14 0 0
BITMAP
0F00
0F00
30C0
30C0
30C0
30C0
FFF0
FFF0
F0F0
F0F0
FFF0
FFF0
3FC0
3FC0
ENDCHAR
STARTCHAR char11136
ENCODING 57520
SWIDTH 1280 0
DWIDTH 12 0
BBX 12 22 0 -4
BITMAP
C000
C000
F000
F000
FC00
FC00
FF00
FF00
FFC0
FFC0
FFF0
FFF0
FFC0
FFC0
FF00
FF00
FC00
FC00
F000
F000
C000
C000
ENDCHAR
STARTCHAR char11137
ENCODING 57521
SWIDTH 1280 0
DWIDTH 12 0
BBX 12 22 0 -4
BITMAP
C000
C000
3000
3000
0C00
0C00
0300
0300
00C0
00C0
0030
0030
00C0
00C0
0300
0300
0C00
0C00
3000
3000
C000
C000
ENDCHAR
STARTCHAR char11138
ENCODING 57522
SWIDTH 1280 0
DWIDTH 12 0
BBX 12 22 0 -4
BITMAP
0030
0030
00F0
00F0
03F0
03F0
0FF0
0FF0
3FF0
3FF0
FFF0
FFF0
3FF0
3FF0
0FF0
0FF0
03F0
03F0
00F0
00F0
0030
0030
ENDCHAR
STARTCHAR char11139
ENCODING 57523
SWIDTH 1280 0
DWIDTH 12 0
BBX 12 22 0 -4
BITMAP
0030
0030
00C0
00C0
0300
0300
0C00
0C00
3000
3000
C000
C000
3000
3000
0C00
0C00
0300
0300
00C0
00C0
0030
0030
ENDCHAR
STARTCHAR Private
ENCODING 63743
SWIDTH 1280 0
DWIDTH 12 0
BBX 12 14 0 0
BITMAP
F0F0
F0F0
F0F0
F0F0
0000
0000
0000
0000
C030
C030
CF30
CF30
F0F0
F0F0
ENDCHAR
STARTCHAR LATIN
ENCODING 64257
SWIDTH 1280 0
DWIDTH 12 0
BBX 10 14 0 0
BITMAP
0F00
0F00
3000
3000
FFC0
FFC0
30C0
30C0
30C0
30C0
30C0
30C0
30C0
30C0
ENDCHAR
STARTCHAR LATIN
ENCODING 64258
SWIDTH 1280 0
DWIDTH 12 0
BBX 10 14 0 0
BITMAP
0FC0
0FC0
30C0
30C0
FCC0
FCC0
30C0
30C0
30C0
30C0
30C0
30C0
30C0
30C0
ENDCHAR
STARTCHAR FULLWIDTH
ENCODING 65339
SWIDTH 1280 0
DWIDTH 12 0
BBX 4 18 4 -2
BITMAP
F0
F0
C0
C0
C0
C0
C0
C0
C0
C0
C0
C0
C0
C0
C0
C0
F0
F0
ENDCHAR
STARTCHAR FULLWIDTH
ENCODING 65340
SWIDTH 1280 0
DWIDTH 12 0
BBX 12 12 0 0
BITMAP
C000
C000
3000
3000
0C00
0C00
0300
0300
00C0
00C0
0030
0030
ENDCHAR
STARTCHAR FULLWIDTH
ENCODING 65341
SWIDTH 1280 0
DWIDTH 12 0
BBX 4 18 4 -2
BITMAP
F0
F0
30
30
30
30
30
30
30
30
30
30
30
30
30
30
F0
F0
ENDCHAR
STARTCHAR FULLWIDTH
ENCODING 65342
SWIDTH 1280 0
DWIDTH 12 0
BBX 10 6 2 10
BITMAP
0C00
0C00
3300
3300
C0C0
C0C0
ENDCHAR
STARTCHAR FULLWIDTH
ENCODING 65374
SWIDTH 1280 0
DWIDTH 12 0
BBX 18 4 -4 6
BITMAP
3F00C0
3F00C0
C0FF00
C0FF00
ENDCHAR
STARTCHAR HALFWIDTH
ENCODING 65378
SWIDTH 1280 0
DWIDTH 12 0
BBX 6 12 0 2
BITMAP
FC
FC
C0
C0
C0
C0
C0
C0
C0
C0
C0
C0
ENDCHAR
STARTCHAR HALFWIDTH
ENCODING 65379
SWIDTH 1280 0
DWIDTH 12 0
BBX 6 12 0 0
BITMAP
0C
0C
0C
0C
0C
0C
0C
0C
0C
0C
FC
FC
ENDCHAR
STARTCHAR HALFWIDTH
ENCODING 65417
SWIDTH 1280 0
DWIDTH 12 0
BBX 6 16 0 0
BITMAP
0C
0C
0C
0C
0C
0C
30
30
30
30
30
30
C0
C0
C0
C0
ENDCHAR
STARTCHAR HALFWIDTH
ENCODING 65438
SWIDTH 1280 0
DWIDTH 12 0
BBX 6 4 2 10
BITMAP
CC
CC
CC
CC
ENDCHAR
STARTCHAR HALFWIDTH
ENCODING 65439
SWIDTH 1280 0
DWIDTH 12 0
BBX 6 6 2 8
BITMAP
30
30
CC
CC
30
30
ENDCHAR
STARTCHAR HALFWIDTH
ENCODING 65475
SWIDTH 0 0
DWIDTH 0 0
BBX 0 0 0 0
BITMAP
ENDCHAR
ENDFONT
